SplineFontDB: 3.0
FontName: Almendra-Italic
FullName: Almendra Italic
FamilyName: Almendra
Weight: Book
Copyright: Copyright (c) 2011-2012, Ana Sanfelippo (anasanfe@gmail.com), with Reserved Font Name 'Almendra'
Version: 1.003
ItalicAngle: -12
UnderlinePosition: -50
UnderlineWidth: 50
Ascent: 800
Descent: 200
sfntRevision: 0x000100c5
LayerCount: 2
Layer: 0 1 "Back"  1
Layer: 1 1 "Fore"  0
XUID: [1021 587 521552052 3016363]
FSType: 0
OS2Version: 3
OS2_WeightWidthSlopeOnly: 0
OS2_UseTypoMetrics: 1
CreationTime: 1273876560
ModificationTime: 1352828611
PfmFamily: 17
TTFWeight: 400
TTFWidth: 5
LineGap: 0
VLineGap: 0
Panose: 2 0 0 0 0 0 0 0 0 0
OS2TypoAscent: 951
OS2TypoAOffset: 0
OS2TypoDescent: -345
OS2TypoDOffset: 0
OS2TypoLinegap: 0
OS2WinAscent: 951
OS2WinAOffset: 0
OS2WinDescent: 345
OS2WinDOffset: 0
HheadAscent: 951
HheadAOffset: 0
HheadDescent: -345
HheadDOffset: 0
OS2SubXSize: 650
OS2SubYSize: 600
OS2SubXOff: -16
OS2SubYOff: 75
OS2SupXSize: 650
OS2SupYSize: 600
OS2SupXOff: 74
OS2SupYOff: 350
OS2StrikeYSize: 50
OS2StrikeYPos: 308
OS2Vendor: 'pyrs'
OS2CodePages: 20000001.00000000
OS2UnicodeRanges: 8000006f.00000002.00000000.00000000
Lookup: 4 0 1 "'liga' Standard Ligatures in Latin lookup 0"  {"'liga' Standard Ligatures in Latin lookup 0 subtable"  } ['liga' ('latn' <'dflt' > ) ]
Lookup: 258 0 0 "'kern' Horizontal Kerning in Latin lookup 0"  {"'kern' Horizontal Kerning in Latin lookup 0 subtable"  } ['kern' ('latn' <'dflt' > ) ]
DEI: 91125
TtTable: prep
PUSHW_1
 511
SCANCTRL
PUSHB_1
 4
SCANTYPE
EndTTInstrs
ShortTable: maxp 16
  1
  0
  247
  93
  4
  0
  0
  2
  0
  1
  1
  0
  64
  0
  0
  0
EndShort

StartChar: exclam
Encoding: 33 33 4
Width: 205
GlyphClass: 2
Flags: W
LayerCount: 2
Fore
SplineSet
154 53 m 1,0,1
 145 38 145 38 126.5 16 c 128,-1,2
 108 -6 108 -6 94 -15 c 1,3,4
 70 2 70 2 46 53 c 1,5,6
 53 66 53 66 72 83 c 128,-1,7
 91 100 91 100 105 108 c 1,8,9
 130 92 130 92 154 53 c 1,0,1
186 696 m 0,10,11
 189 696 189 696 192 696 c 1,12,13
 204 684 204 684 219 656 c 1,14,15
 169 505 169 505 120 182 c 1,16,-1
 94 180 l 1,17,-1
 123 679 l 1,18,19
 159 696 159 696 186 696 c 0,10,11
EndSplineSet
EndChar

StartChar: quotedbl
Encoding: 34 34 5
Width: 310
GlyphClass: 2
Flags: W
LayerCount: 2
Fore
SplineSet
138 666 m 0,0,1
 141 666 141 666 144 666 c 1,2,-1
 155 653 l 1,3,4
 115 576 115 576 82 434 c 1,5,-1
 59 432 l 1,6,-1
 72 649 l 1,7,8
 108 666 108 666 138 666 c 0,0,1
268 666 m 0,9,10
 271 666 271 666 274 666 c 1,11,-1
 285 653 l 1,12,13
 245 576 245 576 212 434 c 1,14,-1
 189 432 l 1,15,-1
 202 649 l 1,16,17
 238 666 238 666 268 666 c 0,9,10
EndSplineSet
EndChar

StartChar: numbersign
Encoding: 35 35 6
Width: 572
GlyphClass: 2
Flags: W
LayerCount: 2
Fore
SplineSet
405 371 m 1,0,1
 472 370 472 370 496 370 c 128,-1,2
 520 370 520 370 528 370 c 1,3,-1
 535 364 l 1,4,-1
 508 316 l 1,5,-1
 395 319 l 1,6,-1
 371 188 l 1,7,8
 435 187 435 187 458.5 187 c 128,-1,9
 482 187 482 187 489 187 c 1,10,-1
 495 182 l 1,11,-1
 469 133 l 1,12,-1
 361 136 l 1,13,-1
 318 -92 l 1,14,-1
 313 -92 l 1,15,16
 290 -87 290 -87 274 -71 c 1,17,18
 300 34 300 34 319 137 c 1,19,-1
 211 140 l 1,20,-1
 168 -92 l 1,21,-1
 163 -92 l 1,22,23
 140 -87 140 -87 124 -71 c 1,24,25
 154 50 154 50 170 141 c 1,26,-1
 45 144 l 1,27,-1
 37 151 l 1,28,-1
 64 203 l 1,29,-1
 109 199 l 2,30,31
 127 197 127 197 180 195 c 1,32,-1
 205 324 l 1,33,-1
 83 327 l 1,34,-1
 76 333 l 1,35,-1
 103 386 l 1,36,-1
 148 382 l 2,37,38
 164 380 164 380 215 378 c 1,39,-1
 256 587 l 1,40,41
 275 587 275 587 300 592 c 1,42,-1
 304 589 l 1,43,44
 277 486 277 486 256 376 c 1,45,46
 289 374 289 374 365 372 c 1,47,-1
 406 587 l 1,48,49
 425 587 425 587 450 592 c 1,50,-1
 454 589 l 1,51,52
 428 489 428 489 405 371 c 1,0,1
221 193 m 1,53,54
 253 191 253 191 329 189 c 1,55,-1
 354 320 l 1,56,-1
 246 323 l 1,57,-1
 221 193 l 1,53,54
EndSplineSet
EndChar

StartChar: dollar
Encoding: 36 36 7
Width: 355
GlyphClass: 2
Flags: W
LayerCount: 2
Fore
SplineSet
96 199 m 1,0,1
 88 175 88 175 88 153 c 128,-1,2
 88 131 88 131 109 101.5 c 128,-1,3
 130 72 130 72 157 53 c 1,4,-1
 173 255 l 1,5,6
 98 295 98 295 78.5 314 c 128,-1,7
 59 333 59 333 59 355 c 0,8,9
 59 405 59 405 102.5 450 c 128,-1,10
 146 495 146 495 201 519 c 1,11,-1
 207 588 l 1,12,13
 223 590 223 590 234 594 c 1,14,-1
 238 591 l 1,15,16
 233 568 233 568 228 516 c 1,17,18
 271 503 271 503 300 503 c 128,-1,19
 329 503 329 503 349 519 c 1,20,-1
 359 505 l 1,21,22
 341 487 341 487 331 478 c 128,-1,23
 321 469 321 469 314 460 c 1,24,25
 302 448 302 448 285 424 c 1,26,-1
 254 438 l 1,27,-1
 221 450 l 1,28,-1
 211 319 l 1,29,30
 248 300 248 300 265 290.5 c 128,-1,31
 282 281 282 281 300.5 262.5 c 128,-1,32
 319 244 319 244 319 225 c 0,33,34
 319 174 319 174 275 109 c 128,-1,35
 231 44 231 44 178 -4 c 1,36,-1
 174 -91 l 1,37,-1
 169 -92 l 1,38,39
 153 -87 153 -87 143 -77 c 1,40,-1
 149 -15 l 1,41,-1
 149 -10 l 1,42,43
 116 3 116 3 83.5 31.5 c 128,-1,44
 51 60 51 60 30 92 c 2,45,-1
 10 121 l 1,46,47
 59 166 59 166 82 206 c 1,48,-1
 96 199 l 1,0,1
257 173 m 0,49,50
 257 206 257 206 197 242 c 1,51,-1
 184 50 l 1,52,-1
 183 40 l 1,53,54
 202 55 202 55 229.5 103 c 128,-1,55
 257 151 257 151 257 173 c 0,49,50
195 458 m 1,56,-1
 168 464 l 1,57,58
 152 459 152 459 133.5 440 c 128,-1,59
 115 421 115 421 115 406 c 0,60,61
 115 370 115 370 186 332 c 1,62,-1
 195 457 l 1,63,-1
 195 458 l 1,56,-1
EndSplineSet
EndChar

StartChar: percent
Encoding: 37 37 8
Width: 800
GlyphClass: 2
Flags: W
LayerCount: 2
Fore
SplineSet
235 570 m 0,0,1
 256 570 256 570 341 555 c 128,-1,2
 426 540 426 540 492.5 540 c 128,-1,3
 559 540 559 540 584 578 c 1,4,-1
 591 588 l 1,5,6
 629 590 629 590 656 598 c 1,7,-1
 659 595 l 1,8,9
 581 494 581 494 499 378 c 2,10,-1
 161 -100 l 1,11,-1
 156 -100 l 1,12,13
 131 -88 131 -88 119 -68 c 1,14,15
 240 83 240 83 253 102 c 2,16,-1
 447 376 l 1,17,18
 530 495 530 495 551 527 c 1,19,-1
 547 528 l 1,20,21
 522 503 522 503 470 503 c 128,-1,22
 418 503 418 503 302 539 c 1,23,-1
 299 536 l 1,24,25
 347 483 347 483 354 407 c 1,26,27
 341 319 341 319 299.5 273 c 128,-1,28
 258 227 258 227 216.5 227 c 128,-1,29
 175 227 175 227 140 273.5 c 128,-1,30
 105 320 105 320 98 389 c 1,31,32
 112 472 112 472 155.5 521 c 128,-1,33
 199 570 199 570 235 570 c 0,0,1
503.5 279 m 128,-1,35
 547 328 547 328 585 328 c 128,-1,36
 623 328 623 328 659.5 279 c 128,-1,37
 696 230 696 230 702 165 c 1,38,39
 689 77 689 77 647.5 31 c 128,-1,40
 606 -15 606 -15 564.5 -15 c 128,-1,41
 523 -15 523 -15 488 31.5 c 128,-1,42
 453 78 453 78 446 147 c 1,43,34
 460 230 460 230 503.5 279 c 128,-1,35
530.5 232.5 m 128,-1,45
 514 184 514 184 514 142 c 128,-1,46
 514 100 514 100 527 64 c 128,-1,47
 540 28 540 28 566 16 c 1,48,49
 600 27 600 27 617 75 c 128,-1,50
 634 123 634 123 634 166 c 0,51,52
 634 270 634 270 582 297 c 1,53,44
 547 281 547 281 530.5 232.5 c 128,-1,45
182.5 474.5 m 128,-1,55
 166 426 166 426 166 384 c 128,-1,56
 166 342 166 342 179 306 c 128,-1,57
 192 270 192 270 218 258 c 1,58,59
 252 269 252 269 269 317 c 128,-1,60
 286 365 286 365 286 408 c 0,61,62
 286 512 286 512 234 539 c 1,63,54
 199 523 199 523 182.5 474.5 c 128,-1,55
EndSplineSet
EndChar

StartChar: ampersand
Encoding: 38 38 9
Width: 685
GlyphClass: 2
Flags: W
LayerCount: 2
Fore
SplineSet
48 286 m 0,0,1
 48 494 48 494 205 585 c 1,2,-1
 211 584 l 1,3,4
 249 510 249 510 296 442 c 1,5,6
 383 552 383 552 383 622 c 0,7,8
 383 628 383 628 381 652 c 1,9,-1
 385 657 l 1,10,11
 451 657 451 657 493 666 c 1,12,13
 455 555 455 555 345 432 c 0,14,15
 260 337 260 337 129 215 c 1,16,17
 152 126 152 126 201 85.5 c 128,-1,18
 250 45 250 45 340 45 c 0,19,20
 386 45 386 45 415 61 c 1,21,22
 448 94 448 94 467 148.5 c 128,-1,23
 486 203 486 203 486 251 c 128,-1,24
 486 299 486 299 477 322 c 1,25,26
 396 320 396 320 354 289 c 1,27,28
 347 275 347 275 347 245 c 128,-1,29
 347 215 347 215 357 204 c 1,30,-1
 356 197 l 1,31,32
 331 182 331 182 306 155 c 1,33,34
 294 156 294 156 286.5 165 c 128,-1,35
 279 174 279 174 279 186 c 0,36,37
 279 243 279 243 332.5 301 c 128,-1,38
 386 359 386 359 448 382 c 1,39,40
 553 372 553 372 582 372 c 0,41,42
 665 372 665 372 709 405 c 1,43,44
 716 419 716 419 716 449 c 128,-1,45
 716 479 716 479 706 490 c 1,46,-1
 707 497 l 1,47,48
 732 512 732 512 757 539 c 1,49,50
 769 538 769 538 776.5 529 c 128,-1,51
 784 520 784 520 784 508 c 0,52,53
 784 451 784 451 730.5 393 c 128,-1,54
 677 335 677 335 615 312 c 1,55,-1
 551 318 l 1,56,57
 550 197 550 197 493.5 109.5 c 128,-1,58
 437 22 437 22 328 -15 c 1,59,60
 189 -15 189 -15 118.5 63.5 c 128,-1,61
 48 142 48 142 48 286 c 0,0,1
127 438.5 m 128,-1,63
 113 385 113 385 113 335.5 c 128,-1,64
 113 286 113 286 121 250 c 1,65,66
 194 323 194 323 242 377 c 1,67,68
 208 431 208 431 168 515 c 1,69,62
 141 492 141 492 127 438.5 c 128,-1,63
EndSplineSet
EndChar

StartChar: quotesingle
Encoding: 39 39 10
Width: 180
GlyphClass: 2
Flags: W
LayerCount: 2
Fore
SplineSet
138 666 m 0,0,1
 141 666 141 666 144 666 c 1,2,-1
 155 653 l 1,3,4
 115 576 115 576 82 434 c 1,5,-1
 59 432 l 1,6,-1
 72 649 l 1,7,8
 108 666 108 666 138 666 c 0,0,1
EndSplineSet
EndChar

StartChar: parenleft
Encoding: 40 40 11
Width: 297
GlyphClass: 2
Flags: W
LayerCount: 2
Fore
SplineSet
304 701 m 1,0,1
 131 485 131 485 131 199 c 0,2,3
 131 105 131 105 154.5 -3.5 c 128,-1,4
 178 -112 178 -112 240 -205 c 1,5,-1
 229 -215 l 1,6,7
 141 -135 141 -135 100 -18 c 128,-1,8
 59 99 59 99 59 211 c 0,9,10
 59 374 59 374 126 502 c 128,-1,11
 193 630 193 630 294 711 c 1,12,-1
 304 701 l 1,0,1
EndSplineSet
EndChar

StartChar: parenright
Encoding: 41 41 12
Width: 299
GlyphClass: 2
Flags: W
LayerCount: 2
Fore
SplineSet
168 320 m 0,0,1
 168 534 168 534 57 701 c 1,2,-1
 67 711 l 1,3,4
 157 630 157 630 198.5 524 c 128,-1,5
 240 418 240 418 240 310 c 0,6,7
 240 146 240 146 171 5.5 c 128,-1,8
 102 -135 102 -135 2 -215 c 1,9,-1
 -7 -205 l 1,10,11
 67 -112 67 -112 112 12 c 0,12,13
 168 165 168 165 168 320 c 0,0,1
EndSplineSet
EndChar

StartChar: asterisk
Encoding: 42 42 13
Width: 371
GlyphClass: 2
Flags: W
LayerCount: 2
Fore
SplineSet
210 672 m 1,0,-1
 236 678 l 1,1,-1
 238 676 l 1,2,3
 206 627 206 627 196 564 c 1,4,5
 249 603 249 603 276 651 c 1,6,-1
 279 651 l 1,7,8
 282 646 282 646 285 625 c 1,9,10
 310 630 310 630 317 630 c 128,-1,11
 324 630 324 630 326 629 c 1,12,13
 326 623 326 623 300 594 c 1,14,-1
 316 574 l 1,15,-1
 315 572 l 1,16,17
 312 572 312 572 308 572 c 0,18,19
 262 572 262 572 202 547 c 1,20,21
 255 522 255 522 305 522 c 0,22,23
 308 522 308 522 312 522 c 1,24,-1
 313 520 l 1,25,-1
 293 500 l 1,26,27
 316 470 316 470 316 465 c 1,28,29
 315 464 315 464 308 464 c 128,-1,30
 301 464 301 464 274 469 c 1,31,32
 266 445 266 445 265 443 c 1,33,-1
 262 443 l 1,34,35
 241 490 241 490 194 530 c 1,36,37
 196 465 196 465 220 418 c 1,38,-1
 219 416 l 1,39,-1
 194 422 l 1,40,41
 177 385 177 385 173 383 c 1,42,43
 169 385 169 385 159 422 c 1,44,-1
 134 416 l 1,45,-1
 132 418 l 1,46,47
 163 468 163 468 174 530 c 1,48,49
 124 493 124 493 93 443 c 1,50,-1
 90 443 l 1,51,-1
 84 469 l 1,52,53
 59 464 59 464 52 464 c 128,-1,54
 45 464 45 464 43 465 c 1,55,56
 43 467 43 467 69 500 c 1,57,-1
 53 520 l 1,58,-1
 54 522 l 1,59,60
 58 522 58 522 61 522 c 0,61,62
 111 522 111 522 167 547 c 1,63,64
 109 572 109 572 61 572 c 0,65,66
 59 572 59 572 57 572 c 1,67,-1
 57 574 l 1,68,-1
 76 594 l 1,69,70
 74 597 74 597 68 605 c 0,71,72
 53 623 53 623 53 629 c 1,73,74
 54 630 54 630 61.5 630 c 128,-1,75
 69 630 69 630 95 625 c 1,76,77
 103 650 103 650 104 651 c 1,78,-1
 107 651 l 1,79,80
 130 602 130 602 176 564 c 1,81,82
 172 631 172 631 149 676 c 1,83,-1
 151 678 l 1,84,-1
 175 672 l 1,85,86
 192 708 192 708 196 711 c 1,87,88
 200 709 200 709 210 672 c 1,0,-1
EndSplineSet
EndChar

StartChar: plus
Encoding: 43 43 14
Width: 550
GlyphClass: 2
Flags: W
LayerCount: 2
Fore
SplineSet
299 222 m 1,0,1
 299 95 299 95 308 0 c 1,2,-1
 262 -9 l 1,3,-1
 252 -2 l 1,4,-1
 252 222 l 1,5,-1
 66 222 l 1,6,-1
 58 229 l 1,7,-1
 67 280 l 1,8,9
 189 274 189 274 252 273 c 1,10,-1
 252 476 l 1,11,-1
 299 485 l 1,12,-1
 304 479 l 1,13,14
 299 347 299 347 299 273 c 2,15,-1
 299 272 l 1,16,17
 336 271 336 271 396 271 c 128,-1,18
 456 271 456 271 495 274 c 1,19,-1
 501 268 l 1,20,-1
 492 222 l 1,21,-1
 299 222 l 1,0,1
EndSplineSet
EndChar

StartChar: comma
Encoding: 44 44 15
Width: 205
GlyphClass: 2
Flags: W
LayerCount: 2
Fore
SplineSet
159 53 m 1,0,1
 150 0 150 0 110.5 -54 c 128,-1,2
 71 -108 71 -108 23 -139 c 1,3,-1
 15 -129 l 1,4,5
 76 -68 76 -68 87 0 c 1,6,7
 62 25 62 25 50 53 c 1,8,9
 59 67 59 67 78.5 84 c 128,-1,10
 98 101 98 101 111 108 c 1,11,12
 122 101 122 101 137 83.5 c 128,-1,13
 152 66 152 66 159 53 c 1,0,1
EndSplineSet
EndChar

StartChar: hyphen
Encoding: 45 45 16
Width: 286
GlyphClass: 2
Flags: W
LayerCount: 2
Fore
SplineSet
80 288 m 2,0,1
 168 288 168 288 252 298 c 1,2,-1
 260 293 l 1,3,-1
 254 251 l 1,4,-1
 37 236 l 1,5,-1
 28 242 l 1,6,-1
 34 288 l 1,7,-1
 80 288 l 2,0,1
EndSplineSet
EndChar

StartChar: period
Encoding: 46 46 17
Width: 200
GlyphClass: 2
Flags: W
LayerCount: 2
Fore
SplineSet
154 53 m 1,0,1
 145 38 145 38 126.5 16 c 128,-1,2
 108 -6 108 -6 94 -15 c 1,3,4
 70 2 70 2 46 53 c 1,5,6
 53 66 53 66 72 83 c 128,-1,7
 91 100 91 100 105 108 c 1,8,9
 130 92 130 92 154 53 c 1,0,1
EndSplineSet
EndChar

StartChar: slash
Encoding: 47 47 18
Width: 394
GlyphClass: 2
Flags: W
LayerCount: 2
Fore
SplineSet
50 -41 m 1,0,-1
 45 -41 l 1,1,2
 22 -31 22 -31 7 -11 c 1,3,4
 56 83 56 83 99 178 c 2,5,-1
 234 477 l 2,6,7
 288 597 288 597 327 698 c 1,8,9
 356 700 356 700 383 706 c 1,10,-1
 387 703 l 1,11,12
 361 654 361 654 289 491 c 1,13,-1
 50 -41 l 1,0,-1
EndSplineSet
EndChar

StartChar: zero
Encoding: 48 48 19
Width: 417
GlyphClass: 2
Flags: W
LayerCount: 2
Fore
SplineSet
143 358.5 m 128,-1,1
 118 281 118 281 118 215 c 128,-1,2
 118 149 118 149 137.5 93 c 128,-1,3
 157 37 157 37 197 17 c 1,4,5
 248 34 248 34 273.5 108 c 128,-1,6
 299 182 299 182 299 247.5 c 128,-1,7
 299 313 299 313 279 373 c 128,-1,8
 259 433 259 433 219 453 c 1,9,0
 168 436 168 436 143 358.5 c 128,-1,1
108 415 m 128,-1,11
 164 485 164 485 221.5 485 c 128,-1,12
 279 485 279 485 327 414.5 c 128,-1,13
 375 344 375 344 385 248 c 1,14,15
 365 124 365 124 308.5 54.5 c 128,-1,16
 252 -15 252 -15 194.5 -15 c 128,-1,17
 137 -15 137 -15 89.5 55 c 128,-1,18
 42 125 42 125 32 221 c 1,19,10
 52 345 52 345 108 415 c 128,-1,11
EndSplineSet
EndChar

StartChar: one
Encoding: 49 49 20
Width: 264
GlyphClass: 2
Flags: W
LayerCount: 2
Fore
SplineSet
218 -13 m 1,0,1
 170 0 170 0 115 0 c 128,-1,2
 60 0 60 0 7 -8 c 1,3,-1
 5 7 l 1,4,5
 40 23 40 23 83 33 c 1,6,7
 101 131 101 131 101 352 c 0,8,9
 101 402 101 402 97 438 c 1,10,11
 52 451 52 451 23 467 c 1,12,-1
 26 482 l 1,13,14
 83 470 83 470 140 470 c 128,-1,15
 197 470 197 470 237 479 c 1,16,-1
 241 465 l 1,17,18
 207 449 207 449 192 424.5 c 128,-1,19
 177 400 177 400 170 337 c 128,-1,20
 163 274 163 274 163 178 c 128,-1,21
 163 82 163 82 169 38 c 1,22,23
 193 15 193 15 224 3 c 1,24,-1
 218 -13 l 1,0,1
EndSplineSet
EndChar

StartChar: two
Encoding: 50 50 21
Width: 355
GlyphClass: 2
Flags: W
LayerCount: 2
Fore
SplineSet
225 349 m 0,0,1
 225 423 225 423 164 423 c 0,2,3
 137 423 137 423 115 412 c 1,4,5
 108 400 108 400 108 380.5 c 128,-1,6
 108 361 108 361 118 352 c 1,7,-1
 117 345 l 1,8,9
 94 329 94 329 76 305 c 1,10,11
 64 306 64 306 57 314.5 c 128,-1,12
 50 323 50 323 50 334 c 0,13,14
 50 386 50 386 93 428 c 128,-1,15
 136 470 136 470 195 485 c 1,16,17
 250 485 250 485 280.5 439 c 128,-1,18
 311 393 311 393 311 330 c 1,19,20
 284 281 284 281 203 202.5 c 128,-1,21
 122 124 122 124 93 81 c 1,22,23
 150 69 150 69 197.5 69 c 128,-1,24
 245 69 245 69 264 78 c 1,25,26
 284 123 284 123 299 143 c 1,27,-1
 313 136 l 1,28,29
 293 86 293 86 293 50 c 128,-1,30
 293 14 293 14 305 -5 c 1,31,-1
 297 -17 l 1,32,33
 204 8 204 8 80 8 c 0,34,35
 38 8 38 8 16 -7 c 1,36,-1
 7 -1 l 1,37,38
 25 46 25 46 64 96.5 c 128,-1,39
 103 147 103 147 137.5 182.5 c 128,-1,40
 172 218 172 218 198.5 263 c 128,-1,41
 225 308 225 308 225 349 c 0,0,1
EndSplineSet
EndChar

StartChar: three
Encoding: 51 51 22
Width: 371
GlyphClass: 2
Flags: W
LayerCount: 2
Fore
SplineSet
261 100 m 0,0,1
 261 215 261 215 133 215 c 0,2,3
 114 215 114 215 100 212 c 1,4,-1
 93 228 l 1,5,6
 144 250 144 250 190 295.5 c 128,-1,7
 236 341 236 341 263 390 c 1,8,9
 195 405 195 405 151 405 c 128,-1,10
 107 405 107 405 97 400 c 1,11,12
 76 354 76 354 61 333 c 1,13,-1
 47 340 l 1,14,15
 67 390 67 390 67 428.5 c 128,-1,16
 67 467 67 467 55 486 c 1,17,-1
 66 498 l 1,18,19
 114 466 114 466 247 466 c 0,20,21
 302 466 302 466 338 470 c 1,22,-1
 343 454 l 1,23,24
 292 354 292 354 197 267 c 1,25,-1
 197 263 l 1,26,27
 268 258 268 258 299.5 231.5 c 128,-1,28
 331 205 331 205 331 141 c 128,-1,29
 331 77 331 77 270.5 2 c 128,-1,30
 210 -73 210 -73 146 -115 c 1,31,32
 111 -106 111 -106 74 -77.5 c 128,-1,33
 37 -49 37 -49 13 -16 c 2,34,-1
 -7 11 l 1,35,36
 41 55 41 55 70 97 c 1,37,-1
 84 90 l 1,38,39
 76 69 76 69 76 45.5 c 128,-1,40
 76 22 76 22 107.5 -12 c 128,-1,41
 139 -46 139 -46 170 -57 c 1,42,43
 209 -32 209 -32 235 11.5 c 128,-1,44
 261 55 261 55 261 100 c 0,0,1
EndSplineSet
EndChar

StartChar: four
Encoding: 52 52 23
Width: 412
GlyphClass: 2
Flags: W
LayerCount: 2
Fore
SplineSet
288 59 m 1,0,1
 288 -17 288 -17 294 -60 c 1,2,3
 320 -82 320 -82 350 -93 c 1,4,-1
 345 -109 l 1,5,6
 302 -100 302 -100 246.5 -100 c 128,-1,7
 191 -100 191 -100 134 -112 c 1,8,-1
 131 -97 l 1,9,10
 164 -81 164 -81 208 -68 c 1,11,12
 219 4 219 4 221 59 c 1,13,-1
 -10 59 l 1,14,-1
 -14 73 l 1,15,16
 124 230 124 230 234 460 c 1,17,18
 285 468 285 468 320 485 c 1,19,-1
 328 481 l 1,20,21
 314 438 314 438 308.5 414.5 c 128,-1,22
 303 391 303 391 296.5 312.5 c 128,-1,23
 290 234 290 234 289 107 c 1,24,25
 344 107 344 107 386 125 c 1,26,-1
 391 119 l 1,27,28
 379 89 379 89 374 53 c 1,29,30
 330 59 330 59 288 59 c 1,0,1
224 379 m 1,31,32
 155 213 155 213 85 116 c 1,33,34
 148 109 148 109 222 108 c 1,35,-1
 231 379 l 1,36,-1
 224 379 l 1,31,32
EndSplineSet
EndChar

StartChar: five
Encoding: 53 53 24
Width: 384
GlyphClass: 2
Flags: W
LayerCount: 2
Fore
SplineSet
83 375 m 2,0,1
 84 392 84 392 84 421 c 128,-1,2
 84 450 84 450 75 473 c 1,3,-1
 84 479 l 1,4,5
 106 464 106 464 162 464 c 128,-1,6
 218 464 218 464 311 489 c 1,7,-1
 319 477 l 1,8,9
 307 458 307 458 307 422 c 128,-1,10
 307 386 307 386 327 336 c 1,11,-1
 313 329 l 1,12,13
 298 349 298 349 278 394 c 1,14,15
 259 403 259 403 218.5 403 c 128,-1,16
 178 403 178 403 123 391 c 1,17,-1
 106 252 l 1,18,-1
 109 251 l 1,19,-1
 117 260 l 1,20,21
 158 270 158 270 208 270 c 0,22,23
 352 270 352 270 352 140 c 0,24,25
 352 77 352 77 291.5 2 c 128,-1,26
 231 -73 231 -73 167 -115 c 1,27,28
 132 -106 132 -106 95 -77.5 c 128,-1,29
 58 -49 58 -49 34 -16 c 2,30,-1
 14 11 l 1,31,32
 62 55 62 55 91 97 c 1,33,-1
 105 90 l 1,34,35
 97 69 97 69 97 45.5 c 128,-1,36
 97 22 97 22 128.5 -12 c 128,-1,37
 160 -46 160 -46 191 -57 c 1,38,39
 230 -32 230 -32 256 11.5 c 128,-1,40
 282 55 282 55 282 100 c 0,41,42
 282 212 282 212 151 212 c 0,43,44
 116 212 116 212 84 205 c 1,45,-1
 74 210 l 1,46,-1
 83 375 l 2,0,1
EndSplineSet
EndChar

StartChar: six
Encoding: 54 54 25
Width: 377
GlyphClass: 2
Flags: W
LayerCount: 2
Fore
SplineSet
103 193 m 0,0,1
 103 125 103 125 121 85 c 128,-1,2
 139 45 139 45 185.5 45 c 128,-1,3
 232 45 232 45 252 65 c 1,4,5
 267 99 267 99 267 160.5 c 128,-1,6
 267 222 267 222 247 261 c 128,-1,7
 227 300 227 300 167 300 c 0,8,9
 152 300 152 300 137 297 c 1,10,-1
 137 304 l 1,11,12
 164 323 164 323 194 350 c 1,13,14
 281 350 281 350 313 302.5 c 128,-1,15
 345 255 345 255 345 156 c 1,16,17
 325 97 325 97 276.5 49 c 128,-1,18
 228 1 228 1 169 -15 c 1,19,20
 93 -15 93 -15 62.5 35.5 c 128,-1,21
 32 86 32 86 32 176 c 0,22,23
 32 301 32 301 111.5 415.5 c 128,-1,24
 191 530 191 530 309 585 c 1,25,-1
 321 568 l 1,26,27
 223 501 223 501 163 401.5 c 128,-1,28
 103 302 103 302 103 193 c 0,0,1
EndSplineSet
EndChar

StartChar: seven
Encoding: 55 55 26
Width: 345
GlyphClass: 2
Flags: W
LayerCount: 2
Fore
SplineSet
252 387 m 1,0,1
 195 399 195 399 147.5 399 c 128,-1,2
 100 399 100 399 81 390 c 1,3,4
 61 345 61 345 46 325 c 1,5,-1
 32 332 l 1,6,7
 52 382 52 382 52 418 c 128,-1,8
 52 454 52 454 40 473 c 1,9,-1
 48 485 l 1,10,11
 141 460 141 460 265 460 c 0,12,13
 307 460 307 460 329 475 c 1,14,-1
 338 469 l 1,15,16
 241 314 241 314 196.5 187 c 128,-1,17
 152 60 152 60 149 -68 c 1,18,19
 193 -81 193 -81 226 -97 c 1,20,-1
 223 -112 l 1,21,22
 166 -100 166 -100 111 -100 c 128,-1,23
 56 -100 56 -100 12 -109 c 1,24,-1
 7 -93 l 1,25,26
 37 -82 37 -82 63 -60 c 1,27,28
 76 53 76 53 118 146.5 c 128,-1,29
 160 240 160 240 252 387 c 1,0,1
EndSplineSet
EndChar

StartChar: eight
Encoding: 56 56 27
Width: 382
GlyphClass: 2
Flags: W
LayerCount: 2
Fore
SplineSet
74.5 24 m 128,-1,1
 38 63 38 63 38 120.5 c 128,-1,2
 38 178 38 178 70 225.5 c 128,-1,3
 102 273 102 273 150 303 c 1,4,5
 108 335 108 335 84.5 370 c 128,-1,6
 61 405 61 405 61 457 c 1,7,8
 87 498 87 498 134.5 536 c 128,-1,9
 182 574 182 574 224 585 c 1,10,11
 277 585 277 585 303 562 c 128,-1,12
 329 539 329 539 329 492.5 c 128,-1,13
 329 446 329 446 298 404.5 c 128,-1,14
 267 363 267 363 225 335 c 1,15,16
 318 273 318 273 335 224 c 0,17,18
 344 198 344 198 344 166 c 1,19,20
 320 93 320 93 282 52 c 128,-1,21
 244 11 244 11 174 -15 c 1,22,0
 111 -15 111 -15 74.5 24 c 128,-1,1
258 65 m 1,23,24
 276 103 276 103 276 136.5 c 128,-1,25
 276 170 276 170 268.5 189.5 c 128,-1,26
 261 209 261 209 241 229.5 c 128,-1,27
 221 250 221 250 211 257.5 c 128,-1,28
 201 265 201 265 170 288 c 1,29,30
 140 265 140 265 121.5 228 c 128,-1,31
 103 191 103 191 103 148.5 c 128,-1,32
 103 106 103 106 128 75.5 c 128,-1,33
 153 45 153 45 195 45 c 128,-1,34
 237 45 237 45 258 65 c 1,23,24
137 505 m 1,35,36
 129 487 129 487 129 458 c 0,37,38
 129 400 129 400 205 349 c 1,39,40
 265 404 265 404 265 459 c 0,41,42
 265 523 265 523 201 523 c 0,43,44
 161 523 161 523 137 505 c 1,35,36
EndSplineSet
EndChar

StartChar: nine
Encoding: 57 57 28
Width: 377
GlyphClass: 2
Flags: W
LayerCount: 2
Fore
SplineSet
274 277 m 0,0,1
 274 345 274 345 256 385 c 128,-1,2
 238 425 238 425 191.5 425 c 128,-1,3
 145 425 145 425 125 405 c 1,4,5
 110 370 110 370 110 309 c 128,-1,6
 110 248 110 248 130 209 c 128,-1,7
 150 170 150 170 210 170 c 0,8,9
 225 170 225 170 240 173 c 1,10,-1
 240 166 l 1,11,12
 213 147 213 147 183 120 c 1,13,14
 96 120 96 120 64 167.5 c 128,-1,15
 32 215 32 215 32 314 c 1,16,17
 52 373 52 373 100.5 421 c 128,-1,18
 149 469 149 469 208 485 c 1,19,20
 284 485 284 485 314.5 434.5 c 128,-1,21
 345 384 345 384 345 294 c 0,22,23
 345 169 345 169 265.5 54.5 c 128,-1,24
 186 -60 186 -60 68 -115 c 1,25,-1
 56 -98 l 1,26,27
 154 -31 154 -31 214 68.5 c 128,-1,28
 274 168 274 168 274 277 c 0,0,1
EndSplineSet
EndChar

StartChar: colon
Encoding: 58 58 29
Width: 219
GlyphClass: 2
Flags: W
LayerCount: 2
Fore
SplineSet
154 53 m 1,0,1
 145 38 145 38 126.5 16 c 128,-1,2
 108 -6 108 -6 94 -15 c 1,3,4
 70 2 70 2 46 53 c 1,5,6
 53 66 53 66 72 83 c 128,-1,7
 91 100 91 100 105 108 c 1,8,9
 130 92 130 92 154 53 c 1,0,1
173 430 m 1,10,11
 164 415 164 415 145.5 393 c 128,-1,12
 127 371 127 371 113 362 c 1,13,14
 89 379 89 379 65 430 c 1,15,16
 72 443 72 443 91 460 c 128,-1,17
 110 477 110 477 124 485 c 1,18,19
 149 469 149 469 173 430 c 1,10,11
EndSplineSet
EndChar

StartChar: semicolon
Encoding: 59 59 30
Width: 215
GlyphClass: 2
Flags: W
LayerCount: 2
Fore
SplineSet
159 53 m 1,0,1
 150 0 150 0 110.5 -54 c 128,-1,2
 71 -108 71 -108 23 -139 c 1,3,-1
 15 -129 l 1,4,5
 76 -68 76 -68 87 0 c 1,6,7
 62 25 62 25 50 53 c 1,8,9
 59 67 59 67 78.5 84 c 128,-1,10
 98 101 98 101 111 108 c 1,11,12
 122 101 122 101 137 83.5 c 128,-1,13
 152 66 152 66 159 53 c 1,0,1
169 430 m 1,14,15
 160 415 160 415 141.5 393 c 128,-1,16
 123 371 123 371 109 362 c 1,17,18
 85 379 85 379 61 430 c 1,19,20
 68 443 68 443 87 460 c 128,-1,21
 106 477 106 477 120 485 c 1,22,23
 145 469 145 469 169 430 c 1,14,15
EndSplineSet
EndChar

StartChar: less
Encoding: 60 60 31
Width: 550
GlyphClass: 2
Flags: W
LayerCount: 2
Fore
SplineSet
472 55 m 1,0,1
 260 160 260 160 52 222 c 1,2,-1
 66 286 l 1,3,4
 122 303 122 303 249 351 c 128,-1,5
 376 399 376 399 474 449 c 1,6,-1
 498 403 l 1,7,-1
 493 393 l 1,8,-1
 134 254 l 1,9,-1
 134 250 l 1,10,-1
 493 112 l 1,11,-1
 498 102 l 1,12,-1
 472 55 l 1,0,1
EndSplineSet
EndChar

StartChar: equal
Encoding: 61 61 32
Width: 550
GlyphClass: 2
Flags: W
LayerCount: 2
Fore
SplineSet
62 203 m 1,0,1
 232 194 232 194 341.5 194 c 128,-1,2
 451 194 451 194 490 197 c 1,3,-1
 496 191 l 1,4,-1
 487 145 l 1,5,-1
 61 145 l 1,6,-1
 53 152 l 1,7,-1
 62 203 l 1,0,1
62 357 m 1,8,9
 232 348 232 348 341.5 348 c 128,-1,10
 451 348 451 348 490 351 c 1,11,-1
 496 345 l 1,12,-1
 487 299 l 1,13,-1
 61 299 l 1,14,-1
 53 306 l 1,15,-1
 62 357 l 1,8,9
EndSplineSet
EndChar

StartChar: greater
Encoding: 62 62 33
Width: 550
GlyphClass: 2
Flags: W
LayerCount: 2
Fore
SplineSet
498 222 m 1,0,1
 290 160 290 160 78 55 c 1,2,-1
 52 102 l 1,3,-1
 57 112 l 1,4,-1
 416 250 l 1,5,-1
 416 254 l 1,6,-1
 57 393 l 1,7,-1
 52 403 l 1,8,-1
 76 449 l 1,9,10
 174 399 174 399 301 351 c 128,-1,11
 428 303 428 303 484 286 c 1,12,-1
 498 222 l 1,0,1
EndSplineSet
EndChar

StartChar: question
Encoding: 63 63 34
Width: 253
GlyphClass: 2
Flags: W
LayerCount: 2
Fore
SplineSet
184 453 m 128,-1,1
 222 516 222 516 222 575 c 128,-1,2
 222 634 222 634 159 634 c 0,3,4
 128 634 128 634 105 623 c 1,5,6
 93 606 93 606 93 586.5 c 128,-1,7
 93 567 93 567 100 561 c 1,8,-1
 98 554 l 1,9,10
 70 536 70 536 52 514 c 1,11,12
 30 514 30 514 30 536 c 0,13,14
 30 592 30 592 77 633 c 128,-1,15
 124 674 124 674 190 696 c 1,16,17
 257 696 257 696 282 663 c 128,-1,18
 307 630 307 630 307 557 c 1,19,20
 280 502 280 502 228 441 c 0,21,22
 212 422 212 422 208 416 c 0,23,24
 176 378 176 378 160 362 c 1,25,26
 134 249 134 249 118 182 c 1,27,-1
 92 180 l 1,28,-1
 93 338 l 1,29,0
 146 390 146 390 184 453 c 128,-1,1
157 53 m 1,30,31
 148 38 148 38 129.5 16 c 128,-1,32
 111 -6 111 -6 97 -15 c 1,33,34
 73 2 73 2 49 53 c 1,35,36
 56 66 56 66 75 83 c 128,-1,37
 94 100 94 100 108 108 c 1,38,39
 133 92 133 92 157 53 c 1,30,31
EndSplineSet
EndChar

StartChar: at
Encoding: 64 64 35
Width: 832
GlyphClass: 2
Flags: W
LayerCount: 2
Fore
SplineSet
252 143 m 0,0,1
 252 251 252 251 299.5 349 c 128,-1,2
 347 447 347 447 434 485 c 1,3,4
 484 485 484 485 538 450 c 1,5,6
 554 489 554 489 574 517 c 1,7,-1
 588 513 l 1,8,9
 556 428 556 428 556 258 c 128,-1,10
 556 88 556 88 573 31 c 1,11,12
 649 73 649 73 688.5 169.5 c 128,-1,13
 728 266 728 266 728 363 c 0,14,15
 728 616 728 616 463 616 c 0,16,17
 358 616 358 616 285 570 c 1,18,19
 203 496 203 496 154.5 367 c 128,-1,20
 106 238 106 238 106 118.5 c 128,-1,21
 106 -1 106 -1 168.5 -70.5 c 128,-1,22
 231 -140 231 -140 344 -140 c 0,23,24
 406 -140 406 -140 464 -118 c 1,25,-1
 470 -131 l 1,26,27
 409 -173 409 -173 332 -190 c 1,28,29
 192 -190 192 -190 115 -116 c 128,-1,30
 38 -42 38 -42 38 99.5 c 128,-1,31
 38 241 38 241 85 360 c 128,-1,32
 132 479 132 479 229.5 561.5 c 128,-1,33
 327 644 327 644 465 666 c 1,34,35
 616 666 616 666 705 599.5 c 128,-1,36
 794 533 794 533 794 394 c 128,-1,37
 794 255 794 255 726.5 142 c 128,-1,38
 659 29 659 29 537 -15 c 1,39,40
 507 -4 507 -4 497 31.5 c 128,-1,41
 487 67 487 67 487 167 c 1,42,43
 492 208 492 208 501 241 c 1,44,-1
 491 242 l 1,45,46
 473 164 473 164 432.5 91.5 c 128,-1,47
 392 19 392 19 336 -15 c 1,48,49
 294 -8 294 -8 273 40 c 128,-1,50
 252 88 252 88 252 143 c 0,0,1
323 174 m 0,51,52
 323 141 323 141 331.5 107.5 c 128,-1,53
 340 74 340 74 360 67 c 1,54,55
 409 102 409 102 452 211 c 128,-1,56
 495 320 495 320 495 388 c 1,57,58
 460 423 460 423 409 423 c 0,59,60
 382 423 382 423 368 409 c 1,61,62
 323 315 323 315 323 174 c 0,51,52
EndSplineSet
EndChar

StartChar: A
Encoding: 65 65 36
Width: 524
GlyphClass: 2
Flags: W
LayerCount: 2
Fore
SplineSet
343 226 m 1,0,1
 307 232 307 232 270.5 232 c 128,-1,2
 234 232 234 232 202 232 c 128,-1,3
 170 232 170 232 142 226 c 1,4,5
 116 128 116 128 116 61 c 0,6,7
 116 34 116 34 123 -1 c 1,8,9
 54 -1 54 -1 6 -15 c 1,10,-1
 -1 -7 l 1,11,-1
 221 621 l 1,12,13
 170 629 170 629 128 648 c 1,14,-1
 130 660 l 1,15,16
 193 651 193 651 295.5 651 c 128,-1,17
 398 651 398 651 441 659 c 1,18,-1
 447 654 l 1,19,20
 433 595 433 595 423 458 c 128,-1,21
 413 321 413 321 413 189.5 c 128,-1,22
 413 58 413 58 424 0 c 1,23,24
 362 -4 362 -4 322 -15 c 1,25,-1
 316 -10 l 1,26,27
 332 64 332 64 343 226 c 1,0,1
156 276 m 1,28,29
 182 269 182 269 247.5 269 c 128,-1,30
 313 269 313 269 346 277 c 1,31,32
 351 385 351 385 351 463.5 c 128,-1,33
 351 542 351 542 345 612 c 1,34,35
 333 615 333 615 313 615 c 128,-1,36
 293 615 293 615 278 612 c 1,37,38
 255 582 255 582 230 503 c 2,39,-1
 156 276 l 1,28,29
EndSplineSet
EndChar

StartChar: B
Encoding: 66 66 37
Width: 502
GlyphClass: 2
Flags: W
LayerCount: 2
Fore
SplineSet
278 662 m 0,0,1
 344 662 344 662 385.5 632.5 c 128,-1,2
 427 603 427 603 427 544 c 0,3,4
 427 426 427 426 299 373 c 1,5,-1
 299 369 l 1,6,7
 374 369 374 369 417 337 c 128,-1,8
 460 305 460 305 460 237 c 0,9,10
 460 154 460 154 389.5 81.5 c 128,-1,11
 319 9 319 9 230 -15 c 1,12,-1
 205 -7 l 2,13,14
 148 11 148 11 120 11 c 128,-1,15
 92 11 92 11 72 7 c 1,16,-1
 66 20 l 1,17,18
 86 41 86 41 93 99 c 0,19,20
 111 267 111 267 111 416.5 c 128,-1,21
 111 566 111 566 103 620 c 1,22,23
 45 625 45 625 7 639 c 1,24,-1
 8 651 l 1,25,26
 68 651 68 651 158 656.5 c 128,-1,27
 248 662 248 662 278 662 c 0,0,1
261 625 m 0,28,29
 228 625 228 625 200 614 c 1,30,31
 173 443 173 443 173 192 c 0,32,33
 173 126 173 126 177 70 c 1,34,35
 220 52 220 52 265.5 52 c 128,-1,36
 311 52 311 52 350 85 c 1,37,38
 376 134 376 134 376 205.5 c 128,-1,39
 376 277 376 277 335.5 314.5 c 128,-1,40
 295 352 295 352 214 352 c 1,41,-1
 218 382 l 1,42,43
 280 386 280 386 308 407 c 1,44,45
 343 446 343 446 343 514 c 0,46,47
 343 625 343 625 261 625 c 0,28,29
EndSplineSet
EndChar

StartChar: C
Encoding: 67 67 38
Width: 425
GlyphClass: 2
Flags: W
LayerCount: 2
Fore
SplineSet
38 234 m 0,0,1
 38 515 38 515 252 666 c 1,2,3
 297 651 297 651 352 651 c 128,-1,4
 407 651 407 651 426 656 c 1,5,-1
 432 645 l 1,6,7
 375 591 375 591 375 471 c 1,8,-1
 363 471 l 1,9,10
 348 519 348 519 344 567 c 1,11,-1
 319 578 l 2,12,13
 271 599 271 599 214 599 c 1,14,15
 171 533 171 533 145.5 444 c 128,-1,16
 120 355 120 355 120 262 c 128,-1,17
 120 169 120 169 153.5 109.5 c 128,-1,18
 187 50 187 50 273 50 c 1,19,20
 306 72 306 72 325.5 115.5 c 128,-1,21
 345 159 345 159 345 203 c 0,22,23
 345 214 345 214 342 227 c 1,24,-1
 347 232 l 1,25,26
 394 234 394 234 424 243 c 1,27,28
 404 160 404 160 353.5 89 c 128,-1,29
 303 18 303 18 233 -15 c 1,30,31
 137 -15 137 -15 87.5 55.5 c 128,-1,32
 38 126 38 126 38 234 c 0,0,1
EndSplineSet
EndChar

StartChar: D
Encoding: 68 68 39
Width: 529
GlyphClass: 2
Flags: W
LayerCount: 2
Fore
SplineSet
278 662 m 0,0,1
 394 662 394 662 442.5 590.5 c 128,-1,2
 491 519 491 519 491 375.5 c 128,-1,3
 491 232 491 232 428 126.5 c 128,-1,4
 365 21 365 21 230 -15 c 1,5,-1
 205 -7 l 2,6,7
 148 11 148 11 120 11 c 128,-1,8
 92 11 92 11 72 7 c 1,9,-1
 66 20 l 1,10,11
 86 41 86 41 93 99 c 0,12,13
 111 267 111 267 111 416.5 c 128,-1,14
 111 566 111 566 103 620 c 1,15,16
 45 625 45 625 7 639 c 1,17,-1
 8 651 l 1,18,19
 68 651 68 651 158 656.5 c 128,-1,20
 248 662 248 662 278 662 c 0,0,1
257 52 m 0,21,22
 319 52 319 52 355 85 c 1,23,24
 382 132 382 132 397 202 c 128,-1,25
 412 272 412 272 412 334 c 0,26,27
 412 625 412 625 265 625 c 0,28,29
 231 625 231 625 200 614 c 1,30,31
 173 443 173 443 173 192 c 0,32,33
 173 126 173 126 177 70 c 1,34,35
 220 52 220 52 257 52 c 0,21,22
EndSplineSet
EndChar

StartChar: E
Encoding: 69 69 40
Width: 444
GlyphClass: 2
Flags: W
LayerCount: 2
Fore
SplineSet
371 560 m 1,0,1
 320 598 320 598 268 598 c 128,-1,2
 216 598 216 598 178 573 c 1,3,4
 167 554 167 554 167 524 c 0,5,6
 167 451 167 451 215 411 c 128,-1,7
 263 371 263 371 343 364 c 1,8,-1
 337 335 l 1,9,10
 242 335 242 335 183.5 298 c 128,-1,11
 125 261 125 261 125 180 c 0,12,13
 125 117 125 117 158 81.5 c 128,-1,14
 191 46 191 46 247 46 c 128,-1,15
 303 46 303 46 337 67 c 1,16,17
 349 91 349 91 349 117.5 c 128,-1,18
 349 144 349 144 339 155 c 1,19,-1
 340 162 l 1,20,21
 365 177 365 177 390 204 c 1,22,23
 402 203 402 203 409.5 194 c 128,-1,24
 417 185 417 185 417 173 c 0,25,26
 417 104 417 104 363 55 c 128,-1,27
 309 6 309 6 231 -15 c 1,28,29
 149 -15 149 -15 95.5 34 c 128,-1,30
 42 83 42 83 42 161 c 128,-1,31
 42 239 42 239 99.5 290 c 128,-1,32
 157 341 157 341 240 350 c 1,33,-1
 240 354 l 1,34,35
 174 364 174 364 128 405 c 128,-1,36
 82 446 82 446 82 506 c 1,37,38
 153 626 153 626 294 666 c 1,39,40
 373 666 373 666 426 643 c 1,41,42
 399 610 399 610 378 560 c 1,43,-1
 371 560 l 1,0,1
EndSplineSet
EndChar

StartChar: F
Encoding: 70 70 41
Width: 433
GlyphClass: 2
Flags: W
LayerCount: 2
Fore
SplineSet
175 374 m 1,0,1
 200 368 200 368 252 368 c 128,-1,2
 304 368 304 368 355 385 c 1,3,-1
 360 379 l 1,4,5
 349 349 349 349 345 317 c 1,6,7
 275 327 275 327 230.5 327 c 128,-1,8
 186 327 186 327 173 324 c 1,9,10
 170 254 170 254 170 152.5 c 128,-1,11
 170 51 170 51 181 0 c 1,12,13
 125 -3 125 -3 79 -15 c 1,14,-1
 73 -10 l 1,15,16
 87 49 87 49 97.5 190 c 128,-1,17
 108 331 108 331 108 449 c 128,-1,18
 108 567 108 567 100 621 c 1,19,20
 49 629 49 629 7 648 c 1,21,-1
 9 660 l 1,22,23
 72 651 72 651 226.5 651 c 128,-1,24
 381 651 381 651 434 663 c 1,25,-1
 440 652 l 1,26,27
 397 611 397 611 393 497 c 1,28,-1
 381 497 l 1,29,30
 366 545 366 545 362 593 c 1,31,32
 316 614 316 614 254 614 c 0,33,34
 225 614 225 614 197 609 c 1,35,36
 182 521 182 521 175 374 c 1,0,1
EndSplineSet
EndChar

StartChar: G
Encoding: 71 71 42
Width: 478
GlyphClass: 2
Flags: W
LayerCount: 2
Fore
SplineSet
321 61 m 2,0,-1
 321 71 l 1,1,2
 304 50 304 50 269 22 c 128,-1,3
 234 -6 234 -6 212 -15 c 1,4,5
 129 -5 129 -5 83.5 61.5 c 128,-1,6
 38 128 38 128 38 220 c 0,7,8
 38 355 38 355 93 475.5 c 128,-1,9
 148 596 148 596 252 666 c 1,10,11
 297 651 297 651 352 651 c 128,-1,12
 407 651 407 651 426 656 c 1,13,-1
 432 645 l 1,14,15
 375 591 375 591 375 471 c 1,16,-1
 363 471 l 1,17,18
 348 519 348 519 344 567 c 1,19,-1
 319 578 l 2,20,21
 271 599 271 599 214 599 c 1,22,23
 171 533 171 533 145.5 444 c 128,-1,24
 120 355 120 355 120 274 c 0,25,26
 120 91 120 91 237 59 c 1,27,28
 290 70 290 70 322 105 c 1,29,-1
 322 181 l 2,30,31
 322 220 322 220 317 248 c 1,32,33
 272 261 272 261 226 284 c 1,34,-1
 228 295 l 1,35,36
 264 289 264 289 295 289 c 0,37,38
 366 289 366 289 409 321 c 1,39,-1
 419 314 l 1,40,41
 407 288 407 288 404 256 c 0,42,43
 387 113 387 113 385 -49 c 1,44,45
 356 -102 356 -102 289.5 -151 c 128,-1,46
 223 -200 223 -200 168 -200 c 0,47,48
 153 -200 153 -200 143 -192 c 128,-1,49
 133 -184 133 -184 133 -170 c 1,50,51
 162 -148 162 -148 182 -119 c 1,52,-1
 189 -118 l 1,53,54
 211 -135 211 -135 240 -135 c 128,-1,55
 269 -135 269 -135 280 -129 c 1,56,57
 321 -74 321 -74 321 61 c 2,0,-1
EndSplineSet
EndChar

StartChar: H
Encoding: 72 72 43
Width: 617
GlyphClass: 2
Flags: W
LayerCount: 2
Fore
SplineSet
435 381 m 1,0,-1
 436 457 l 1,1,2
 436 598 436 598 425 649 c 1,3,4
 481 652 481 652 527 664 c 1,5,-1
 533 659 l 1,6,7
 517 587 517 587 507.5 447 c 128,-1,8
 498 307 498 307 498 179 c 128,-1,9
 498 51 498 51 509 0 c 1,10,11
 453 -3 453 -3 407 -15 c 1,12,-1
 401 -10 l 1,13,14
 426 105 426 105 433 328 c 1,15,16
 373 335 373 335 304.5 335 c 128,-1,17
 236 335 236 335 176 328 c 1,18,19
 173 269 173 269 173 160 c 128,-1,20
 173 51 173 51 184 0 c 1,21,22
 128 -3 128 -3 82 -15 c 1,23,-1
 76 -10 l 1,24,25
 90 49 90 49 100.5 190 c 128,-1,26
 111 331 111 331 111 448.5 c 128,-1,27
 111 566 111 566 103 620 c 1,28,29
 45 625 45 625 7 639 c 1,30,-1
 8 651 l 1,31,32
 128 651 128 651 202 664 c 1,33,-1
 208 659 l 1,34,35
 189 573 189 573 178 382 c 1,36,37
 239 372 239 372 309.5 372 c 128,-1,38
 380 372 380 372 435 381 c 1,0,-1
EndSplineSet
EndChar

StartChar: I
Encoding: 73 73 44
Width: 292
GlyphClass: 2
Flags: W
LayerCount: 2
Fore
SplineSet
182.5 447 m 128,-1,1
 173 307 173 307 173 179 c 128,-1,2
 173 51 173 51 184 0 c 1,3,4
 128 -3 128 -3 82 -15 c 1,5,-1
 76 -10 l 1,6,7
 90 49 90 49 100.5 190 c 128,-1,8
 111 331 111 331 111 448.5 c 128,-1,9
 111 566 111 566 103 620 c 1,10,11
 45 625 45 625 7 639 c 1,12,-1
 8 651 l 1,13,14
 128 651 128 651 202 664 c 1,15,-1
 208 659 l 1,16,0
 192 587 192 587 182.5 447 c 128,-1,1
EndSplineSet
EndChar

StartChar: J
Encoding: 74 74 45
Width: 292
GlyphClass: 2
Flags: W
LayerCount: 2
Fore
SplineSet
100 154 m 0,0,1
 111 361 111 361 111 463.5 c 128,-1,2
 111 566 111 566 103 620 c 1,3,4
 45 625 45 625 7 639 c 1,5,-1
 8 651 l 1,6,7
 128 651 128 651 202 664 c 1,8,-1
 208 659 l 1,9,10
 192 587 192 587 182.5 447 c 128,-1,11
 173 307 173 307 173 197.5 c 128,-1,12
 173 88 173 88 182 13 c 1,13,14
 157 -41 157 -41 98.5 -94.5 c 128,-1,15
 40 -148 40 -148 -21 -180 c 1,16,-1
 -32 -165 l 1,17,18
 41 -104 41 -104 67.5 -31.5 c 128,-1,19
 94 41 94 41 100 154 c 0,0,1
EndSplineSet
EndChar

StartChar: K
Encoding: 75 75 46
Width: 526
GlyphClass: 2
Flags: W
LayerCount: 2
Fore
SplineSet
173 192 m 2,0,1
 173 51 173 51 184 0 c 1,2,3
 128 -3 128 -3 82 -15 c 1,4,-1
 76 -10 l 1,5,6
 90 49 90 49 100.5 190 c 128,-1,7
 111 331 111 331 111 448.5 c 128,-1,8
 111 566 111 566 103 620 c 1,9,10
 45 625 45 625 7 639 c 1,11,-1
 8 651 l 1,12,13
 128 651 128 651 202 664 c 1,14,-1
 208 659 l 1,15,16
 183 549 183 549 175 306 c 1,17,-1
 282 447 l 2,18,19
 363 554 363 554 363 616 c 0,20,21
 363 622 363 622 361 646 c 1,22,-1
 365 651 l 1,23,24
 431 651 431 651 473 660 c 1,25,26
 432 540 432 540 294 395 c 1,27,28
 329 324 329 324 398 197 c 128,-1,29
 467 70 467 70 519 0 c 1,30,31
 452 -4 452 -4 410 -14 c 1,32,-1
 403 -11 l 1,33,34
 393 38 393 38 348 136.5 c 128,-1,35
 303 235 303 235 244 340 c 1,36,-1
 173 257 l 1,37,-1
 173 192 l 2,0,1
EndSplineSet
EndChar

StartChar: L
Encoding: 76 76 47
Width: 404
GlyphClass: 2
Flags: W
LayerCount: 2
Fore
SplineSet
182.5 447 m 128,-1,1
 173 307 173 307 173 205.5 c 128,-1,2
 173 104 173 104 178 47 c 1,3,4
 203 41 203 41 275 41 c 128,-1,5
 347 41 347 41 398 58 c 1,6,-1
 403 52 l 1,7,8
 392 22 392 22 388 -10 c 1,9,10
 318 0 318 0 234 0 c 128,-1,11
 150 0 150 0 82 -15 c 1,12,-1
 76 -10 l 1,13,14
 90 49 90 49 100.5 190 c 128,-1,15
 111 331 111 331 111 448.5 c 128,-1,16
 111 566 111 566 103 620 c 1,17,18
 45 625 45 625 7 639 c 1,19,-1
 8 651 l 1,20,21
 128 651 128 651 202 664 c 1,22,-1
 208 659 l 1,23,0
 192 587 192 587 182.5 447 c 128,-1,1
EndSplineSet
EndChar

StartChar: M
Encoding: 77 77 48
Width: 705
GlyphClass: 2
Flags: W
LayerCount: 2
Fore
SplineSet
253 614 m 0,0,1
 253 542 253 542 327 307 c 2,2,-1
 358 209 l 1,3,-1
 365 211 l 1,4,5
 365 236 365 236 382 292 c 2,6,-1
 477 596 l 2,7,8
 483 615 483 615 483 628 c 128,-1,9
 483 641 483 641 480 647 c 1,10,-1
 483 654 l 1,11,12
 502 651 502 651 531.5 651 c 128,-1,13
 561 651 561 651 608 665 c 1,14,-1
 615 660 l 1,15,16
 593 544 593 544 593 316 c 128,-1,17
 593 88 593 88 614 0 c 1,18,19
 564 -3 564 -3 512 -15 c 1,20,-1
 505 -10 l 1,21,22
 528 113 528 113 528 281.5 c 128,-1,23
 528 450 528 450 517 543 c 1,24,-1
 513 543 l 1,25,26
 417 275 417 275 396 182 c 0,27,28
 389 151 389 151 387 122 c 1,29,30
 349 110 349 110 300 79 c 1,31,-1
 288 87 l 1,32,33
 290 109 290 109 290 120 c 0,34,35
 290 217 290 217 190 516 c 1,36,-1
 186 515 l 1,37,38
 132 188 132 188 130 0 c 1,39,40
 81 -1 81 -1 27 -14 c 1,41,-1
 21 -9 l 1,42,43
 54 90 54 90 99.5 304.5 c 128,-1,44
 145 519 145 519 153 620 c 1,45,46
 95 625 95 625 57 639 c 1,47,-1
 58 651 l 1,48,49
 179 651 179 651 253 664 c 1,50,-1
 259 659 l 1,51,52
 253 638 253 638 253 614 c 0,0,1
EndSplineSet
EndChar

StartChar: N
Encoding: 78 78 49
Width: 612
GlyphClass: 2
Flags: W
LayerCount: 2
Fore
SplineSet
506 466.5 m 128,-1,1
 495 333 495 333 495 210.5 c 128,-1,2
 495 88 495 88 510 0 c 1,3,4
 466 -4 466 -4 435 -13 c 1,5,-1
 428 -10 l 1,6,7
 395 94 395 94 219 420 c 0,8,9
 192 471 192 471 163 515 c 1,10,-1
 159 513 l 1,11,12
 159 334 159 334 168 185 c 128,-1,13
 177 36 177 36 185 0 c 1,14,15
 133 -3 133 -3 86 -15 c 1,16,-1
 80 -10 l 1,17,18
 94 49 94 49 104 188.5 c 128,-1,19
 114 328 114 328 114 442 c 128,-1,20
 114 556 114 556 103 620 c 1,21,22
 45 625 45 625 7 639 c 1,23,-1
 8 651 l 1,24,25
 125 651 125 651 199 664 c 1,26,27
 224 556 224 556 405 229 c 1,28,-1
 449 149 l 1,29,-1
 452 150 l 1,30,31
 452 328 452 328 443 471 c 128,-1,32
 434 614 434 614 426 651 c 1,33,34
 480 654 480 654 525 666 c 1,35,-1
 531 661 l 1,36,0
 517 600 517 600 506 466.5 c 128,-1,1
EndSplineSet
EndChar

StartChar: O
Encoding: 79 79 50
Width: 514
GlyphClass: 2
Flags: W
LayerCount: 2
Fore
SplineSet
394 396 m 0,0,1
 394 596 394 596 265 596 c 0,2,3
 227 596 227 596 200 580 c 1,4,5
 162 512 162 512 141 424.5 c 128,-1,6
 120 337 120 337 120 271 c 128,-1,7
 120 205 120 205 132 161.5 c 128,-1,8
 144 118 144 118 174.5 86 c 128,-1,9
 205 54 205 54 245 54 c 128,-1,10
 285 54 285 54 312 71 c 1,11,12
 350 125 350 125 372 221 c 128,-1,13
 394 317 394 317 394 396 c 0,0,1
88 57.5 m 128,-1,15
 38 130 38 130 38 228.5 c 128,-1,16
 38 327 38 327 64.5 411 c 128,-1,17
 91 495 91 495 147.5 564.5 c 128,-1,18
 204 634 204 634 282 666 c 1,19,20
 476 666 476 666 476 413 c 0,21,22
 476 277 476 277 411.5 154.5 c 128,-1,23
 347 32 347 32 233 -15 c 1,24,14
 138 -15 138 -15 88 57.5 c 128,-1,15
EndSplineSet
EndChar

StartChar: P
Encoding: 80 80 51
Width: 471
GlyphClass: 2
Flags: W
LayerCount: 2
Fore
SplineSet
414 628.5 m 128,-1,1
 457 595 457 595 457 508.5 c 128,-1,2
 457 422 457 422 390.5 367 c 128,-1,3
 324 312 324 312 225 312 c 1,4,-1
 228 342 l 1,5,6
 373 342 373 342 373 483.5 c 128,-1,7
 373 625 373 625 271 625 c 0,8,9
 235 625 235 625 200 614 c 1,10,11
 173 443 173 443 173 192 c 0,12,13
 173 51 173 51 184 0 c 1,14,15
 128 -3 128 -3 82 -15 c 1,16,-1
 76 -10 l 1,17,18
 90 49 90 49 100.5 190 c 128,-1,19
 111 331 111 331 111 448.5 c 128,-1,20
 111 566 111 566 103 620 c 1,21,22
 45 625 45 625 7 639 c 1,23,-1
 8 651 l 1,24,25
 66 651 66 651 159 656.5 c 128,-1,26
 252 662 252 662 288 662 c 0,27,0
 371 662 371 662 414 628.5 c 128,-1,1
EndSplineSet
EndChar

StartChar: Q
Encoding: 81 81 52
Width: 514
GlyphClass: 2
Flags: W
LayerCount: 2
Fore
SplineSet
77.5 73 m 128,-1,1
 38 142 38 142 38 234.5 c 128,-1,2
 38 327 38 327 64.5 411 c 128,-1,3
 91 495 91 495 147.5 564.5 c 128,-1,4
 204 634 204 634 282 666 c 1,5,6
 476 666 476 666 476 413 c 0,7,8
 476 286 476 286 419.5 169.5 c 128,-1,9
 363 53 363 53 262 -1 c 1,10,11
 295 -6 295 -6 356.5 -43.5 c 128,-1,12
 418 -81 418 -81 478 -114.5 c 128,-1,13
 538 -148 538 -148 573 -148 c 0,14,15
 594 -148 594 -148 608.5 -123 c 128,-1,16
 623 -98 623 -98 623 -73 c 1,17,-1
 627 -66 l 1,18,19
 660 -66 660 -66 692 -56 c 1,20,21
 704 -65 704 -65 704 -78 c 0,22,23
 704 -109 704 -109 654.5 -139 c 128,-1,24
 605 -169 605 -169 547.5 -184.5 c 128,-1,25
 490 -200 490 -200 453 -200 c 1,26,27
 297 -56 297 -56 200 -56 c 0,28,29
 140 -56 140 -56 93 -90 c 1,30,-1
 76 -74 l 1,31,32
 98 -53 98 -53 133 -35.5 c 128,-1,33
 168 -18 168 -18 198 -12 c 1,34,0
 117 4 117 4 77.5 73 c 128,-1,1
394 396 m 0,35,36
 394 596 394 596 265 596 c 0,37,38
 227 596 227 596 200 580 c 1,39,40
 162 512 162 512 141 424.5 c 128,-1,41
 120 337 120 337 120 271 c 128,-1,42
 120 205 120 205 132 161.5 c 128,-1,43
 144 118 144 118 174.5 86 c 128,-1,44
 205 54 205 54 245 54 c 128,-1,45
 285 54 285 54 312 71 c 1,46,47
 350 125 350 125 372 221 c 128,-1,48
 394 317 394 317 394 396 c 0,35,36
EndSplineSet
EndChar

StartChar: R
Encoding: 82 82 53
Width: 526
GlyphClass: 2
Flags: W
LayerCount: 2
Fore
SplineSet
373 498 m 0,0,1
 373 625 373 625 271 625 c 0,2,3
 235 625 235 625 200 614 c 1,4,5
 173 443 173 443 173 192 c 0,6,7
 173 51 173 51 184 0 c 1,8,9
 128 -3 128 -3 82 -15 c 1,10,-1
 76 -10 l 1,11,12
 90 49 90 49 100.5 190 c 128,-1,13
 111 331 111 331 111 448.5 c 128,-1,14
 111 566 111 566 103 620 c 1,15,16
 45 625 45 625 7 639 c 1,17,-1
 8 651 l 1,18,19
 66 651 66 651 159 656.5 c 128,-1,20
 252 662 252 662 288 662 c 0,21,22
 371 662 371 662 414 631.5 c 128,-1,23
 457 601 457 601 457 530 c 128,-1,24
 457 459 457 459 419.5 411 c 128,-1,25
 382 363 382 363 320 341 c 1,26,27
 372 238 372 238 435.5 131 c 128,-1,28
 499 24 499 24 519 0 c 1,29,30
 452 -4 452 -4 410 -14 c 1,31,-1
 403 -11 l 1,32,33
 381 93 381 93 252 327 c 1,34,35
 243 326 243 326 225 326 c 1,36,-1
 228 356 l 1,37,38
 373 356 373 356 373 498 c 0,0,1
EndSplineSet
EndChar

StartChar: S
Encoding: 83 83 54
Width: 428
GlyphClass: 2
Flags: W
LayerCount: 2
Fore
SplineSet
218 430 m 0,0,1
 254 409 254 409 291 388.5 c 128,-1,2
 328 368 328 368 353.5 342 c 128,-1,3
 379 316 379 316 379 289 c 0,4,5
 379 219 379 219 321.5 128 c 128,-1,6
 264 37 264 37 198 -15 c 1,7,8
 156 -5 156 -5 110.5 28 c 128,-1,9
 65 61 65 61 38 98 c 2,10,-1
 11 135 l 1,11,12
 69 190 69 190 103 244 c 1,13,-1
 115 238 l 1,14,15
 103 212 103 212 103 178.5 c 128,-1,16
 103 145 103 145 141 109 c 128,-1,17
 179 73 179 73 224 57 c 1,18,19
 248 73 248 73 279.5 137 c 128,-1,20
 311 201 311 201 311 230 c 128,-1,21
 311 259 311 259 272.5 290 c 128,-1,22
 234 321 234 321 188.5 343.5 c 128,-1,23
 143 366 143 366 104.5 399 c 128,-1,24
 66 432 66 432 66 465 c 0,25,26
 66 518 66 518 119.5 578 c 128,-1,27
 173 638 173 638 231 666 c 1,28,29
 276 651 276 651 332.5 651 c 128,-1,30
 389 651 389 651 408 656 c 1,31,-1
 414 645 l 1,32,33
 357 591 357 591 357 471 c 1,34,-1
 345 471 l 1,35,36
 330 519 330 519 326 567 c 1,37,-1
 306 575 l 2,38,39
 258 594 258 594 200 594 c 1,40,41
 130 561 130 561 130 520 c 128,-1,42
 130 479 130 479 218 430 c 0,0,1
EndSplineSet
EndChar

StartChar: T
Encoding: 84 84 55
Width: 441
GlyphClass: 2
Flags: W
LayerCount: 2
Fore
SplineSet
252 656 m 128,-1,1
 341 647 341 647 375 647 c 128,-1,2
 409 647 409 647 421 651 c 1,3,4
 463 693 463 693 489 714 c 1,5,-1
 500 708 l 1,6,7
 454 649 454 649 443 571 c 1,8,-1
 420 578 l 1,9,10
 360 593 360 593 277 600 c 1,11,12
 252 431 252 431 252 241 c 128,-1,13
 252 51 252 51 263 0 c 1,14,15
 207 -3 207 -3 161 -15 c 1,16,-1
 155 -10 l 1,17,18
 171 62 171 62 180.5 202 c 128,-1,19
 190 342 190 342 190 439 c 128,-1,20
 190 536 190 536 184 605 c 1,21,22
 178 605 178 605 173 605 c 0,23,24
 83 605 83 605 51 573 c 1,25,26
 44 559 44 559 44 529 c 128,-1,27
 44 499 44 499 54 488 c 1,28,-1
 53 481 l 1,29,30
 28 466 28 466 3 439 c 1,31,32
 -9 440 -9 440 -16.5 449 c 128,-1,33
 -24 458 -24 458 -24 470 c 0,34,35
 -24 527 -24 527 29.5 585 c 128,-1,36
 83 643 83 643 145 666 c 1,37,0
 163 665 163 665 252 656 c 128,-1,1
EndSplineSet
EndChar

StartChar: U
Encoding: 85 85 56
Width: 594
GlyphClass: 2
Flags: W
LayerCount: 2
Fore
SplineSet
96 205 m 1,0,1
 96 205 96 205 107 457 c 1,2,3
 107 566 107 566 99 620 c 1,4,5
 46 625 46 625 7 639 c 1,6,-1
 8 651 l 1,7,8
 128 651 128 651 202 664 c 1,9,-1
 208 659 l 1,10,11
 193 594 193 594 182.5 481.5 c 128,-1,12
 172 369 172 369 172 304.5 c 128,-1,13
 172 240 172 240 172.5 222.5 c 128,-1,14
 173 205 173 205 175.5 178 c 128,-1,15
 178 151 178 151 184.5 135 c 128,-1,16
 191 119 191 119 201 101 c 0,17,18
 220 67 220 67 268 59 c 1,19,20
 343 109 343 109 404 208 c 1,21,22
 413 340 413 340 413 469 c 128,-1,23
 413 598 413 598 402 649 c 1,24,25
 458 652 458 652 504 664 c 1,26,-1
 510 659 l 1,27,28
 494 587 494 587 484.5 447 c 128,-1,29
 475 307 475 307 475 179 c 128,-1,30
 475 51 475 51 486 0 c 1,31,32
 430 -3 430 -3 384 -15 c 1,33,-1
 378 -10 l 1,34,35
 389 42 389 42 399 146 c 1,36,-1
 396 147 l 1,37,38
 333 36 333 36 243 -15 c 1,39,40
 160 -7 160 -7 128 49.5 c 128,-1,41
 96 106 96 106 96 205 c 1,0,1
EndSplineSet
EndChar

StartChar: V
Encoding: 86 86 57
Width: 506
GlyphClass: 2
Flags: W
LayerCount: 2
Fore
SplineSet
385 514 m 0,0,1
 385 600 385 600 354 628 c 1,2,-1
 354 635 l 1,3,4
 400 661 400 661 427 690 c 1,5,6
 468 655 468 655 468 554 c 0,7,8
 468 295 468 295 263 -13 c 1,9,-1
 258 -15 l 1,10,-1
 231 1 l 2,11,12
 136 57 136 57 88 57 c 0,13,14
 78 57 78 57 66 55 c 1,15,-1
 61 69 l 1,16,17
 88 91 88 91 93 144 c 0,18,19
 107 315 107 315 107 440.5 c 128,-1,20
 107 566 107 566 99 620 c 1,21,22
 46 625 46 625 7 639 c 1,23,-1
 8 651 l 1,24,25
 128 651 128 651 202 664 c 1,26,-1
 208 659 l 1,27,28
 173 504 173 504 169 192 c 0,29,30
 169 148 169 148 170 122 c 1,31,-1
 171 121 l 1,32,33
 202 84 202 84 270 63 c 1,34,35
 385 285 385 285 385 514 c 0,0,1
EndSplineSet
EndChar

StartChar: W
Encoding: 87 87 58
Width: 737
GlyphClass: 2
Flags: W
LayerCount: 2
Fore
SplineSet
699 559 m 0,0,1
 699 283 699 283 494 -13 c 1,2,-1
 489 -15 l 1,3,4
 391 26 391 26 332 103 c 1,5,6
 298 39 298 39 263 -13 c 1,7,-1
 258 -15 l 1,8,-1
 231 1 l 2,9,10
 136 57 136 57 88 57 c 0,11,12
 78 57 78 57 66 55 c 1,13,-1
 61 69 l 1,14,15
 88 91 88 91 93 144 c 0,16,17
 107 315 107 315 107 440.5 c 128,-1,18
 107 566 107 566 99 620 c 1,19,20
 46 625 46 625 7 639 c 1,21,-1
 8 651 l 1,22,23
 128 651 128 651 202 664 c 1,24,-1
 208 659 l 1,25,26
 173 504 173 504 169 192 c 0,27,28
 169 148 169 148 170 122 c 1,29,-1
 171 121 l 1,30,31
 202 84 202 84 270 63 c 1,32,33
 371 286 371 286 371 514 c 0,34,35
 371 626 371 626 320 644 c 1,36,-1
 321 656 l 1,37,38
 398 651 398 651 530 651 c 128,-1,39
 662 651 662 651 744 695 c 1,40,-1
 751 685 l 1,41,42
 737 668 737 668 689 637 c 1,43,44
 699 604 699 604 699 559 c 0,0,1
457 554 m 0,45,46
 457 396 457 396 368 176 c 1,47,48
 387 141 387 141 425 109 c 128,-1,49
 463 77 463 77 501 63 c 1,50,51
 616 282 616 282 616 514 c 0,52,53
 616 573 616 573 597.5 601 c 128,-1,54
 579 629 579 629 536 629 c 128,-1,55
 493 629 493 629 452 620 c 1,56,57
 457 588 457 588 457 554 c 0,45,46
EndSplineSet
EndChar

StartChar: X
Encoding: 88 88 59
Width: 508
GlyphClass: 2
Flags: W
LayerCount: 2
Fore
SplineSet
383 615 m 0,0,1
 383 635 383 635 378 649 c 1,2,-1
 382 654 l 1,3,4
 445 656 445 656 486 666 c 1,5,6
 474 612 474 612 439 549 c 128,-1,7
 404 486 404 486 379 453 c 128,-1,8
 354 420 354 420 299 351 c 1,9,10
 399 140 399 140 486 0 c 1,11,12
 427 -2 427 -2 373 -14 c 1,13,-1
 366 -11 l 1,14,15
 328 112 328 112 244 292 c 1,16,-1
 198 221 l 2,17,18
 132 118 132 118 132 36 c 0,19,20
 132 16 132 16 137 2 c 1,21,-1
 133 -3 l 1,22,23
 70 -5 70 -5 29 -15 c 1,24,25
 58 115 58 115 227 327 c 1,26,27
 220 342 220 342 181 420 c 1,28,29
 105 566 105 566 72 620 c 1,30,31
 14 625 14 625 -24 639 c 1,32,-1
 -23 651 l 1,33,34
 101 651 101 651 175 664 c 1,35,36
 197 567 197 567 282 388 c 1,37,-1
 313 437 l 1,38,39
 383 552 383 552 383 615 c 0,0,1
EndSplineSet
EndChar

StartChar: Y
Encoding: 89 89 60
Width: 489
GlyphClass: 2
Flags: W
LayerCount: 2
Fore
SplineSet
285 314 m 1,0,1
 283 269 283 269 283 160 c 128,-1,2
 283 51 283 51 294 0 c 1,3,4
 238 -3 238 -3 192 -15 c 1,5,-1
 186 -10 l 1,6,7
 207 80 207 80 217 294 c 1,8,9
 205 322 205 322 161 419 c 1,10,11
 84 582 84 582 59 622 c 1,12,13
 -2 628 -2 628 -37 642 c 1,14,-1
 -36 654 l 1,15,16
 -21 654 -21 654 -6 654 c 0,17,18
 95 654 95 654 162 666 c 1,19,20
 189 548 189 548 273 352 c 1,21,-1
 323 435 l 1,22,23
 387 544 387 544 387 614 c 0,24,25
 387 633 387 633 380 648 c 1,26,-1
 384 653 l 1,27,28
 445 655 445 655 488 667 c 1,29,30
 478 615 478 615 442 546.5 c 128,-1,31
 406 478 406 478 380 442 c 0,32,33
 317 353 317 353 285 314 c 1,0,1
EndSplineSet
EndChar

StartChar: Z
Encoding: 90 90 61
Width: 433
GlyphClass: 2
Flags: W
LayerCount: 2
Fore
SplineSet
349 91 m 0,0,1
 349 104 349 104 346 113 c 1,2,-1
 349 120 l 1,3,4
 379 128 379 128 414 149 c 1,5,6
 432 142 432 142 432 121 c 0,7,8
 432 73 432 73 356 19 c 128,-1,9
 280 -35 280 -35 221 -44 c 1,10,11
 117 17 117 17 63 17 c 128,-1,12
 9 17 9 17 -17 -14 c 1,13,-1
 -28 -4 l 1,14,15
 5 29 5 29 117 220 c 2,16,-1
 325 577 l 1,17,-1
 322 580 l 1,18,19
 315 576 315 576 299 572 c 1,20,21
 293 574 293 574 279 579.5 c 128,-1,22
 265 585 265 585 259.5 587 c 128,-1,23
 254 589 254 589 242.5 593 c 128,-1,24
 231 597 231 597 224 598.5 c 128,-1,25
 217 600 217 600 206 602 c 1,26,27
 192 606 192 606 167 606 c 128,-1,28
 142 606 142 606 125 600 c 1,29,30
 102 579 102 579 102 535 c 0,31,32
 102 522 102 522 105 512 c 1,33,-1
 102 505 l 1,34,35
 69 497 69 497 37 476 c 1,36,37
 19 483 19 483 19 504 c 0,38,39
 19 551 19 551 92.5 607 c 128,-1,40
 166 663 166 663 226 683 c 1,41,42
 303 649 303 649 353.5 649 c 128,-1,43
 404 649 404 649 428 679 c 1,44,-1
 440 670 l 1,45,46
 400 619 400 619 315 455 c 2,47,-1
 117 73 l 1,48,-1
 121 70 l 1,49,50
 139 78 139 78 144 79 c 1,51,52
 228 33 228 33 327 33 c 1,53,54
 349 47 349 47 349 91 c 0,0,1
EndSplineSet
EndChar

StartChar: bracketleft
Encoding: 91 91 62
Width: 319
GlyphClass: 2
Flags: W
LayerCount: 2
Fore
SplineSet
245 -193 m 0,0,1
 137 -193 137 -193 75 -208 c 1,2,-1
 68 -203 l 1,3,4
 84 -133 84 -133 108 220.5 c 128,-1,5
 132 574 132 574 132 631.5 c 128,-1,6
 132 689 132 689 131 699 c 1,7,-1
 139 704 l 1,8,9
 199 689 199 689 307 689 c 0,10,11
 320 689 320 689 333 689 c 1,12,-1
 331 668 l 1,13,14
 254 666 254 666 198 651 c 1,15,-1
 142 -155 l 1,16,17
 194 -170 194 -170 272 -172 c 1,18,-1
 271 -193 l 1,19,20
 258 -193 258 -193 245 -193 c 0,0,1
EndSplineSet
EndChar

StartChar: backslash
Encoding: 92 92 63
Width: 266
GlyphClass: 2
Flags: W
LayerCount: 2
Fore
SplineSet
216 -45 m 1,0,-1
 211 -45 l 1,1,-1
 70 478 l 2,2,3
 31 623 31 623 7 696 c 1,4,5
 38 706 38 706 57 717 c 1,6,-1
 61 717 l 1,7,8
 78 631 78 631 114 493 c 1,9,-1
 201 175 l 2,10,11
 230 71 230 71 259 -17 c 1,12,13
 243 -34 243 -34 216 -45 c 1,0,-1
EndSplineSet
EndChar

StartChar: bracketright
Encoding: 93 93 64
Width: 318
GlyphClass: 2
Flags: W
LayerCount: 2
Fore
SplineSet
74 689 m 0,0,1
 182 689 182 689 244 704 c 1,2,-1
 250 699 l 1,3,4
 235 625 235 625 210.5 270 c 128,-1,5
 186 -85 186 -85 186 -139.5 c 128,-1,6
 186 -194 186 -194 187 -203 c 1,7,-1
 180 -208 l 1,8,9
 120 -193 120 -193 12 -193 c 0,10,11
 -1 -193 -1 -193 -14 -193 c 1,12,-1
 -13 -172 l 1,13,14
 65 -170 65 -170 121 -155 c 1,15,-1
 177 651 l 1,16,17
 125 666 125 666 46 668 c 1,18,-1
 48 689 l 1,19,20
 61 689 61 689 74 689 c 0,0,1
EndSplineSet
EndChar

StartChar: asciicircum
Encoding: 94 94 65
Width: 518
GlyphClass: 2
Flags: W
LayerCount: 2
Fore
SplineSet
259 580 m 1,0,-1
 79 291 l 1,1,-1
 50 306 l 1,2,3
 142 464 142 464 231 686 c 1,4,-1
 284 696 l 1,5,6
 379 458 379 458 468 306 c 1,7,-1
 439 291 l 1,8,-1
 259 580 l 1,0,-1
EndSplineSet
EndChar

StartChar: underscore
Encoding: 95 95 66
Width: 645
GlyphClass: 2
Flags: W
LayerCount: 2
Fore
SplineSet
30 -134 m 1,0,1
 199 -143 199 -143 399 -143 c 128,-1,2
 599 -143 599 -143 638 -140 c 1,3,-1
 644 -146 l 1,4,-1
 615 -185 l 1,5,-1
 9 -185 l 1,6,-1
 1 -178 l 1,7,-1
 30 -134 l 1,0,1
EndSplineSet
EndChar

StartChar: grave
Encoding: 96 96 67
Width: 200
GlyphClass: 2
Flags: W
LayerCount: 2
Fore
SplineSet
23 695 m 1,0,1
 31 697 31 697 41 697 c 128,-1,2
 51 697 51 697 61 696 c 1,3,4
 98 629 98 629 200 560 c 1,5,-1
 190 543 l 1,6,-1
 0 642 l 1,7,8
 1 651 1 651 8.5 669.5 c 128,-1,9
 16 688 16 688 23 695 c 1,0,1
EndSplineSet
EndChar

StartChar: a
Encoding: 97 97 68
Width: 486
GlyphClass: 2
Flags: W
LayerCount: 2
Fore
SplineSet
48 143 m 0,0,1
 48 251 48 251 95.5 349 c 128,-1,2
 143 447 143 447 230 485 c 1,3,4
 280 485 280 485 334 450 c 1,5,6
 350 489 350 489 370 517 c 1,7,-1
 384 513 l 1,8,9
 352 428 352 428 352 234 c 0,10,11
 352 117 352 117 360 70 c 1,12,13
 390 96 390 96 419 148.5 c 128,-1,14
 448 201 448 201 463 247 c 1,15,-1
 477 244 l 1,16,17
 458 167 458 167 421 95 c 128,-1,18
 384 23 384 23 333 -15 c 1,19,20
 303 -4 303 -4 293 31.5 c 128,-1,21
 283 67 283 67 283 167 c 1,22,23
 288 208 288 208 297 241 c 1,24,-1
 287 242 l 1,25,26
 269 164 269 164 228.5 91.5 c 128,-1,27
 188 19 188 19 132 -15 c 1,28,29
 90 -8 90 -8 69 40 c 128,-1,30
 48 88 48 88 48 143 c 0,0,1
119 174 m 0,31,32
 119 141 119 141 127.5 107.5 c 128,-1,33
 136 74 136 74 156 67 c 1,34,35
 205 102 205 102 248 211 c 128,-1,36
 291 320 291 320 291 388 c 1,37,38
 256 423 256 423 205 423 c 0,39,40
 178 423 178 423 164 409 c 1,41,42
 119 315 119 315 119 174 c 0,31,32
EndSplineSet
EndChar

StartChar: b
Encoding: 98 98 69
Width: 433
GlyphClass: 2
Flags: W
LayerCount: 2
Fore
SplineSet
390 347 m 0,0,1
 390 238 390 238 345 138.5 c 128,-1,2
 300 39 300 39 216 -15 c 1,3,-1
 191 -7 l 2,4,5
 134 11 134 11 106 11 c 128,-1,6
 78 11 78 11 58 7 c 1,7,-1
 52 20 l 1,8,9
 73 42 73 42 80 103 c 128,-1,10
 87 164 87 164 88 303 c 2,11,-1
 89 442 l 2,12,13
 89 561 89 561 82 628 c 1,14,15
 44 631 44 631 4 642 c 1,16,-1
 4 656 l 1,17,18
 105 656 105 656 195 703 c 1,19,-1
 203 690 l 1,20,21
 180 669 180 669 169 634.5 c 128,-1,22
 158 600 158 600 156.5 572 c 128,-1,23
 155 544 155 544 155 489 c 2,24,-1
 155 303 l 1,25,26
 150 262 150 262 141 229 c 1,27,-1
 151 228 l 1,28,29
 169 305 169 305 210 378 c 128,-1,30
 251 451 251 451 308 485 c 1,31,32
 390 470 390 470 390 347 c 0,0,1
141 79 m 1,33,34
 206 52 206 52 233 52 c 128,-1,35
 260 52 260 52 265 56 c 1,36,37
 292 105 292 105 305.5 177.5 c 128,-1,38
 319 250 319 250 319 321.5 c 128,-1,39
 319 393 319 393 282 406 c 1,40,41
 234 370 234 370 194 271.5 c 128,-1,42
 154 173 154 173 141 93 c 1,43,-1
 141 79 l 1,33,34
EndSplineSet
EndChar

StartChar: c
Encoding: 99 99 70
Width: 362
GlyphClass: 2
Flags: W
LayerCount: 2
Fore
SplineSet
47 157 m 0,0,1
 47 258 47 258 88 347 c 128,-1,2
 129 436 129 436 208 485 c 1,3,4
 257 467 257 467 293 467 c 128,-1,5
 329 467 329 467 342 471 c 1,6,-1
 348 456 l 1,7,8
 307 422 307 422 307 313 c 1,9,-1
 293 313 l 1,10,11
 282 353 282 353 279 390 c 1,12,-1
 252 401 l 2,13,14
 205 420 205 420 169 425 c 1,15,16
 118 328 118 328 118 209 c 128,-1,17
 118 90 118 90 190 61 c 1,18,19
 265 115 265 115 302 214 c 1,20,-1
 325 205 l 1,21,22
 303 139 303 139 261 79 c 128,-1,23
 219 19 219 19 165 -15 c 1,24,25
 108 -4 108 -4 77.5 44.5 c 128,-1,26
 47 93 47 93 47 157 c 0,0,1
EndSplineSet
EndChar

StartChar: d
Encoding: 100 100 71
Width: 377
GlyphClass: 2
Flags: W
LayerCount: 2
Fore
SplineSet
364 418 m 0,0,1
 364 308 364 308 307.5 184 c 128,-1,2
 251 60 251 60 169 -15 c 1,3,4
 49 12 49 12 49 173 c 0,5,6
 49 260 49 260 90.5 346 c 128,-1,7
 132 432 132 432 201 484 c 1,8,9
 123 536 123 536 20 569 c 1,10,-1
 -6 578 l 1,11,12
 3 618 3 618 3 642 c 128,-1,13
 3 666 3 666 1 696 c 1,14,-1
 17 698 l 1,15,16
 21 684 21 684 32 665.5 c 128,-1,17
 43 647 43 647 114 607 c 2,18,-1
 355 471 l 1,19,20
 364 447 364 447 364 418 c 0,0,1
163 409 m 1,21,22
 120 313 120 313 120 206 c 128,-1,23
 120 99 120 99 194 63 c 1,24,25
 238 109 238 109 265 198.5 c 128,-1,26
 292 288 292 288 292 345.5 c 128,-1,27
 292 403 292 403 287 419 c 1,28,29
 235 461 235 461 215 474 c 1,30,-1
 163 409 l 1,21,22
EndSplineSet
EndChar

StartChar: e
Encoding: 101 101 72
Width: 373
GlyphClass: 2
Flags: W
LayerCount: 2
Fore
SplineSet
383 275 m 1,0,1
 260 275 260 275 118 236 c 1,2,3
 118 95 118 95 191 61 c 1,4,5
 266 115 266 115 303 214 c 1,6,-1
 326 205 l 1,7,8
 304 139 304 139 262 79 c 128,-1,9
 220 19 220 19 166 -15 c 1,10,11
 47 13 47 13 47 177 c 0,12,13
 47 297 47 297 110.5 385.5 c 128,-1,14
 174 474 174 474 283 480 c 1,15,-1
 294 473 l 1,16,17
 298 394 298 394 314 299 c 1,18,-1
 383 289 l 1,19,-1
 383 275 l 1,0,1
118 257 m 1,20,21
 173 278 173 278 237 291 c 1,22,23
 231 361 231 361 231 441 c 1,24,25
 179 427 179 427 148.5 372.5 c 128,-1,26
 118 318 118 318 118 257 c 1,20,21
EndSplineSet
EndChar

StartChar: f
Encoding: 102 102 73
Width: 263
GlyphClass: 2
Flags: W
LayerCount: 2
Fore
SplineSet
164 422 m 1,0,1
 150 368 150 368 150 200 c 128,-1,2
 150 32 150 32 158 0 c 1,3,4
 91 -78 91 -78 83 -202 c 1,5,-1
 65 -200 l 1,6,7
 63 -187 63 -187 63 -161.5 c 128,-1,8
 63 -136 63 -136 70 -51.5 c 128,-1,9
 77 33 77 33 78 79 c 2,10,-1
 82 235 l 2,11,12
 83 269 83 269 83 319.5 c 128,-1,13
 83 370 83 370 77 428 c 1,14,15
 47 431 47 431 44 431 c 1,16,-1
 42 447 l 1,17,18
 55 455 55 455 78 464 c 1,19,20
 78 545 78 545 121 614.5 c 128,-1,21
 164 684 164 684 237 713 c 1,22,-1
 250 706 l 2,23,24
 306 675 306 675 336 675 c 1,25,-1
 340 660 l 1,26,27
 284 627 284 627 284 546 c 1,28,-1
 270 546 l 1,29,30
 260 584 260 584 260 626 c 1,31,-1
 242 636 l 2,32,33
 205 656 205 656 188 661 c 1,34,35
 135 610 135 610 135 553 c 128,-1,36
 135 496 135 496 156 472 c 1,37,38
 205 476 205 476 245 486 c 1,39,-1
 250 480 l 1,40,41
 239 448 239 448 235 414 c 1,42,43
 199 420 199 420 164 422 c 1,0,1
EndSplineSet
EndChar

StartChar: g
Encoding: 103 103 74
Width: 442
GlyphClass: 2
Flags: W
LayerCount: 2
Fore
SplineSet
52 143 m 0,0,1
 52 251 52 251 100 349 c 128,-1,2
 148 447 148 447 234 485 c 1,3,4
 284 485 284 485 338 450 c 1,5,6
 362 501 362 501 374 517 c 1,7,-1
 388 513 l 1,8,9
 356 428 356 428 356 234 c 0,10,11
 356 116 356 116 365.5 42.5 c 128,-1,12
 375 -31 375 -31 406 -115 c 1,13,14
 374 -150 374 -150 341 -215 c 1,15,-1
 310 -200 l 2,16,17
 177 -136 177 -136 75 -136 c 0,18,19
 7 -136 7 -136 -44 -195 c 1,20,-1
 -55 -186 l 1,21,22
 -9 -115 -9 -115 134 -15 c 1,23,24
 93 -5 93 -5 72.5 42 c 128,-1,25
 52 89 52 89 52 143 c 0,0,1
123 175 m 0,26,27
 123 142 123 142 132 107 c 128,-1,28
 141 72 141 72 161 65 c 1,29,30
 210 100 210 100 252.5 209.5 c 128,-1,31
 295 319 295 319 295 388 c 1,32,33
 260 423 260 423 209 423 c 0,34,35
 182 423 182 423 168 409 c 1,36,37
 123 309 123 309 123 175 c 0,26,27
212.5 -99.5 m 128,-1,39
 304 -125 304 -125 332 -125 c 128,-1,40
 360 -125 360 -125 370 -117 c 1,41,42
 333 -63 333 -63 310 4.5 c 128,-1,43
 287 72 287 72 287 133 c 2,44,-1
 287 167 l 1,45,46
 292 208 292 208 301 241 c 1,47,-1
 291 242 l 1,48,49
 243 46 243 46 88 -74 c 1,50,38
 121 -74 121 -74 212.5 -99.5 c 128,-1,39
EndSplineSet
EndChar

StartChar: h
Encoding: 104 104 75
Width: 483
GlyphClass: 2
Flags: W
LayerCount: 2
Fore
SplineSet
62 -10 m 1,0,1
 82 59 82 59 82 278 c 128,-1,2
 82 497 82 497 77 576 c 128,-1,3
 72 655 72 655 54 702 c 1,4,-1
 68 706 l 1,5,6
 86 679 86 679 105 640 c 1,7,8
 168 717 168 717 261 750 c 1,9,-1
 266 736 l 1,10,11
 148 686 148 686 148 475 c 2,12,-1
 148 303 l 1,13,14
 143 262 143 262 134 229 c 1,15,-1
 144 228 l 1,16,17
 162 305 162 305 203 378 c 128,-1,18
 244 451 244 451 301 485 c 1,19,20
 383 470 383 470 383 347 c 0,21,22
 383 298 383 298 370.5 215.5 c 128,-1,23
 358 133 358 133 358 84 c 2,24,-1
 358 68 l 1,25,26
 388 94 388 94 417.5 147.5 c 128,-1,27
 447 201 447 201 462 247 c 1,28,-1
 476 244 l 1,29,30
 457 166 457 166 421 94.5 c 128,-1,31
 385 23 385 23 334 -15 c 1,32,33
 286 1 286 1 286 76 c 0,34,35
 286 107 286 107 299 197.5 c 128,-1,36
 312 288 312 288 312 319 c 0,37,38
 312 393 312 393 275 406 c 1,39,40
 226 371 226 371 183 260.5 c 128,-1,41
 140 150 140 150 140 81 c 0,42,43
 140 42 140 42 148 0 c 1,44,45
 123 -2 123 -2 68 -15 c 1,46,-1
 62 -10 l 1,0,1
EndSplineSet
EndChar

StartChar: i
Encoding: 105 105 76
Width: 299
GlyphClass: 2
Flags: W
LayerCount: 2
Fore
SplineSet
202 472 m 1,0,1
 168 382 168 382 168 86 c 2,2,-1
 168 70 l 1,3,4
 198 96 198 96 227 148.5 c 128,-1,5
 256 201 256 201 271 247 c 1,6,-1
 285 244 l 1,7,8
 266 166 266 166 230 94.5 c 128,-1,9
 194 23 194 23 143 -15 c 1,10,11
 95 1 95 1 95 76 c 0,12,13
 95 118 95 118 100 220 c 128,-1,14
 105 322 105 322 105 368 c 128,-1,15
 105 414 105 414 103 442 c 1,16,17
 65 445 65 445 25 456 c 1,18,-1
 25 470 l 1,19,20
 121 470 121 470 195 485 c 1,21,-1
 202 472 l 1,0,1
204 620 m 1,22,23
 195 605 195 605 176.5 583 c 128,-1,24
 158 561 158 561 144 552 c 1,25,26
 120 569 120 569 96 620 c 1,27,28
 103 633 103 633 122 650 c 128,-1,29
 141 667 141 667 155 675 c 1,30,31
 180 659 180 659 204 620 c 1,22,23
EndSplineSet
EndChar

StartChar: j
Encoding: 106 106 77
Width: 243
GlyphClass: 2
Flags: W
LayerCount: 2
Fore
SplineSet
195 472 m 1,0,1
 166 376 166 376 166 136 c 0,2,3
 166 34 166 34 174 0 c 1,4,5
 107 -78 107 -78 99 -202 c 1,6,-1
 81 -200 l 1,7,8
 79 -187 79 -187 79 -161.5 c 128,-1,9
 79 -136 79 -136 85.5 -56 c 128,-1,10
 92 24 92 24 94 79 c 2,11,-1
 98 235 l 2,12,13
 99 262 99 262 99 310 c 128,-1,14
 99 358 99 358 96 442 c 1,15,16
 58 445 58 445 18 456 c 1,17,-1
 18 470 l 1,18,19
 114 470 114 470 188 485 c 1,20,-1
 195 472 l 1,0,1
198 620 m 1,21,22
 189 605 189 605 170.5 583 c 128,-1,23
 152 561 152 561 138 552 c 1,24,25
 114 569 114 569 90 620 c 1,26,27
 97 633 97 633 116 650 c 128,-1,28
 135 667 135 667 149 675 c 1,29,30
 174 659 174 659 198 620 c 1,21,22
EndSplineSet
EndChar

StartChar: k
Encoding: 107 107 78
Width: 468
GlyphClass: 2
Flags: W
LayerCount: 2
Fore
SplineSet
150 489 m 2,0,-1
 150 303 l 1,1,2
 145 262 145 262 136 229 c 1,3,-1
 146 228 l 1,4,5
 164 305 164 305 205 378 c 128,-1,6
 246 451 246 451 303 485 c 1,7,8
 346 477 346 477 369 437.5 c 128,-1,9
 392 398 392 398 392 347 c 0,10,11
 392 262 392 262 289 215 c 1,12,13
 310 140 310 140 347 83 c 2,14,-1
 358 66 l 1,15,16
 388 93 388 93 418.5 147 c 128,-1,17
 449 201 449 201 464 247 c 1,18,-1
 478 244 l 1,19,20
 459 166 459 166 423 94.5 c 128,-1,21
 387 23 387 23 336 -15 c 1,22,23
 289 3 289 3 261 76.5 c 128,-1,24
 233 150 233 150 226 211 c 1,25,-1
 226 218 l 1,26,27
 273 229 273 229 297 252.5 c 128,-1,28
 321 276 321 276 321 312 c 0,29,30
 321 387 321 387 277 403 c 1,31,32
 227 368 227 368 184.5 259.5 c 128,-1,33
 142 151 142 151 142 81 c 0,34,35
 142 42 142 42 150 0 c 1,36,37
 125 -2 125 -2 70 -15 c 1,38,-1
 64 -10 l 1,39,40
 84 59 84 59 84 442 c 0,41,42
 84 561 84 561 77 628 c 1,43,44
 39 631 39 631 -1 642 c 1,45,-1
 -1 656 l 1,46,47
 100 656 100 656 190 703 c 1,48,-1
 198 690 l 1,49,50
 175 669 175 669 164 634.5 c 128,-1,51
 153 600 153 600 151.5 572 c 128,-1,52
 150 544 150 544 150 489 c 2,0,-1
EndSplineSet
EndChar

StartChar: l
Encoding: 108 108 79
Width: 282
GlyphClass: 2
Flags: W
LayerCount: 2
Fore
SplineSet
78 76 m 1,0,-1
 89 442 l 1,1,2
 89 590 89 590 85 628 c 1,3,4
 47 631 47 631 7 642 c 1,5,-1
 7 656 l 1,6,7
 114 656 114 656 204 703 c 1,8,-1
 212 690 l 1,9,10
 180 661 180 661 170 620 c 0,11,12
 151 534 151 534 151 86 c 2,13,-1
 151 70 l 1,14,15
 181 96 181 96 210 148.5 c 128,-1,16
 239 201 239 201 254 247 c 1,17,-1
 268 244 l 1,18,19
 249 166 249 166 213 94.5 c 128,-1,20
 177 23 177 23 126 -15 c 1,21,22
 78 1 78 1 78 76 c 1,0,-1
EndSplineSet
EndChar

StartChar: m
Encoding: 109 109 80
Width: 711
GlyphClass: 2
Flags: W
LayerCount: 2
Fore
SplineSet
612 347 m 0,0,1
 612 298 612 298 599.5 215.5 c 128,-1,2
 587 133 587 133 587 84 c 2,3,-1
 587 68 l 1,4,5
 617 94 617 94 646.5 147.5 c 128,-1,6
 676 201 676 201 691 247 c 1,7,-1
 705 244 l 1,8,9
 686 166 686 166 650 94.5 c 128,-1,10
 614 23 614 23 563 -15 c 1,11,12
 515 2 515 2 515 76 c 0,13,14
 515 107 515 107 528 197.5 c 128,-1,15
 541 288 541 288 541 319 c 0,16,17
 541 394 541 394 504 406 c 1,18,19
 456 372 456 372 416.5 264 c 128,-1,20
 377 156 377 156 377 81 c 0,21,22
 377 42 377 42 385 0 c 1,23,24
 348 -3 348 -3 303 -15 c 1,25,-1
 297 -10 l 1,26,27
 323 142 323 142 323 319 c 0,28,29
 323 394 323 394 286 406 c 1,30,31
 238 372 238 372 198 261.5 c 128,-1,32
 158 151 158 151 158 81 c 0,33,34
 158 42 158 42 166 0 c 1,35,36
 137 -2 137 -2 83 -15 c 1,37,-1
 77 -10 l 1,38,39
 97 59 97 59 97 214.5 c 128,-1,40
 97 370 97 370 91 442 c 1,41,42
 53 445 53 445 13 456 c 1,43,-1
 13 470 l 1,44,45
 102 470 102 470 176 485 c 1,46,-1
 183 472 l 1,47,48
 166 428 166 428 166 303 c 1,49,50
 161 262 161 262 152 229 c 1,51,-1
 162 228 l 1,52,53
 217 427 217 427 312 485 c 1,54,55
 355 477 355 477 376.5 438 c 128,-1,56
 398 399 398 399 398 347 c 1,57,58
 390 301 390 301 370 229 c 1,59,-1
 380 228 l 1,60,61
 435 427 435 427 530 485 c 1,62,63
 612 470 612 470 612 347 c 0,0,1
EndSplineSet
EndChar

StartChar: n
Encoding: 110 110 81
Width: 502
GlyphClass: 2
Flags: W
LayerCount: 2
Fore
SplineSet
402 347 m 0,0,1
 402 296 402 296 389.5 209 c 128,-1,2
 377 122 377 122 377 68 c 1,3,4
 407 94 407 94 436.5 147.5 c 128,-1,5
 466 201 466 201 481 247 c 1,6,-1
 495 244 l 1,7,8
 476 166 476 166 440 94.5 c 128,-1,9
 404 23 404 23 353 -15 c 1,10,11
 305 2 305 2 305 76 c 0,12,13
 305 107 305 107 318 197.5 c 128,-1,14
 331 288 331 288 331 319 c 0,15,16
 331 393 331 393 294 406 c 1,17,18
 245 371 245 371 202 260.5 c 128,-1,19
 159 150 159 150 159 81 c 0,20,21
 159 42 159 42 167 0 c 1,22,23
 138 -2 138 -2 84 -15 c 1,24,-1
 78 -10 l 1,25,26
 98 59 98 59 98 214.5 c 128,-1,27
 98 370 98 370 92 442 c 1,28,29
 54 445 54 445 14 456 c 1,30,-1
 14 470 l 1,31,32
 103 470 103 470 177 485 c 1,33,-1
 184 472 l 1,34,35
 167 428 167 428 167 303 c 1,36,37
 162 262 162 262 153 229 c 1,38,-1
 163 228 l 1,39,40
 181 305 181 305 222 378 c 128,-1,41
 263 451 263 451 320 485 c 1,42,43
 402 470 402 470 402 347 c 0,0,1
EndSplineSet
EndChar

StartChar: o
Encoding: 111 111 82
Width: 407
GlyphClass: 2
Flags: W
LayerCount: 2
Fore
SplineSet
243 57 m 1,0,1
 288 155 288 155 288 290 c 128,-1,2
 288 425 288 425 207 425 c 0,3,4
 180 425 180 425 161 413 c 1,5,6
 118 319 118 319 118 184 c 0,7,8
 118 128 118 128 136.5 86.5 c 128,-1,9
 155 45 155 45 197 45 c 0,10,11
 224 45 224 45 243 57 c 1,0,1
81.5 37.5 m 128,-1,13
 47 90 47 90 47 181 c 128,-1,14
 47 272 47 272 92.5 360.5 c 128,-1,15
 138 449 138 449 221 485 c 1,16,17
 360 485 360 485 360 300 c 0,18,19
 360 199 360 199 314 109 c 128,-1,20
 268 19 268 19 185 -15 c 1,21,12
 116 -15 116 -15 81.5 37.5 c 128,-1,13
EndSplineSet
EndChar

StartChar: p
Encoding: 112 112 83
Width: 452
GlyphClass: 2
Flags: W
LayerCount: 2
Fore
SplineSet
409 347 m 0,0,1
 409 238 409 238 364 138.5 c 128,-1,2
 319 39 319 39 235 -15 c 1,3,-1
 212 -7 l 2,4,5
 177 5 177 5 160 7 c 1,6,-1
 160 -15 l 2,7,8
 160 -93 160 -93 167 -143 c 2,9,-1
 171 -170 l 1,10,11
 114 -186 114 -186 71 -215 c 1,12,-1
 61 -202 l 1,13,14
 97 -169 97 -169 99 -98 c 2,15,-1
 102 18 l 1,16,17
 78 18 78 18 59 6 c 1,18,-1
 50 17 l 1,19,20
 67 41 67 41 103 79 c 1,21,-1
 105 236 l 2,22,23
 105 247 105 247 105 293 c 128,-1,24
 105 339 105 339 99 442 c 1,25,26
 61 445 61 445 21 456 c 1,27,-1
 21 470 l 1,28,29
 110 470 110 470 184 485 c 1,30,-1
 191 472 l 1,31,32
 174 428 174 428 174 303 c 1,33,34
 169 262 169 262 160 229 c 1,35,-1
 170 228 l 1,36,37
 188 305 188 305 229 378 c 128,-1,38
 270 451 270 451 327 485 c 1,39,40
 409 470 409 470 409 347 c 0,0,1
160 79 m 1,41,42
 225 52 225 52 252 52 c 128,-1,43
 279 52 279 52 284 56 c 1,44,45
 311 105 311 105 324.5 177.5 c 128,-1,46
 338 250 338 250 338 321.5 c 128,-1,47
 338 393 338 393 301 406 c 1,48,49
 253 370 253 370 213 271.5 c 128,-1,50
 173 173 173 173 160 93 c 1,51,-1
 160 79 l 1,41,42
EndSplineSet
EndChar

StartChar: q
Encoding: 113 113 84
Width: 436
GlyphClass: 2
Flags: W
LayerCount: 2
Fore
SplineSet
48 143 m 0,0,1
 48 251 48 251 95.5 349 c 128,-1,2
 143 447 143 447 230 485 c 1,3,4
 246 479 246 479 285.5 472.5 c 128,-1,5
 325 466 325 466 347.5 466 c 128,-1,6
 370 466 370 466 391 481 c 1,7,-1
 401 468 l 1,8,9
 386 452 386 452 360 431 c 1,10,11
 345 335 345 335 345 143 c 128,-1,12
 345 -49 345 -49 351 -101 c 1,13,14
 384 -95 384 -95 416 -93 c 1,15,-1
 420 -106 l 1,16,17
 323 -139 323 -139 248 -215 c 1,18,-1
 236 -206 l 1,19,20
 265 -161 265 -161 271.5 -121.5 c 128,-1,21
 278 -82 278 -82 280 18 c 2,22,-1
 283 167 l 1,23,24
 288 208 288 208 297 241 c 1,25,-1
 287 242 l 1,26,27
 269 164 269 164 228.5 91.5 c 128,-1,28
 188 19 188 19 132 -15 c 1,29,30
 90 -8 90 -8 69 40 c 128,-1,31
 48 88 48 88 48 143 c 0,0,1
291 400 m 1,32,33
 245 423 245 423 211.5 423 c 128,-1,34
 178 423 178 423 164 409 c 1,35,36
 119 315 119 315 119 174 c 0,37,38
 119 141 119 141 127.5 107.5 c 128,-1,39
 136 74 136 74 156 67 c 1,40,41
 210 110 210 110 250.5 216.5 c 128,-1,42
 291 323 291 323 291 400 c 1,32,33
EndSplineSet
EndChar

StartChar: r
Encoding: 114 114 85
Width: 375
GlyphClass: 2
Flags: W
LayerCount: 2
Fore
SplineSet
311 381 m 1,0,1
 286 396 286 396 272 400 c 1,2,3
 230 335 230 335 196.5 239 c 128,-1,4
 163 143 163 143 163 74 c 0,5,6
 163 42 163 42 171 0 c 1,7,8
 142 -2 142 -2 88 -15 c 1,9,-1
 82 -10 l 1,10,11
 98 45 98 45 98 207.5 c 128,-1,12
 98 370 98 370 92 442 c 1,13,14
 54 445 54 445 14 456 c 1,15,-1
 14 470 l 1,16,17
 103 470 103 470 177 485 c 1,18,-1
 184 472 l 1,19,20
 167 428 167 428 167 296 c 1,21,22
 165 267 165 267 155 222 c 1,23,-1
 165 221 l 1,24,25
 179 295 179 295 210.5 368 c 128,-1,26
 242 441 242 441 286 485 c 1,27,-1
 299 478 l 2,28,29
 355 447 355 447 385 447 c 1,30,-1
 389 432 l 1,31,32
 338 390 338 390 335 300 c 1,33,-1
 321 300 l 1,34,35
 311 338 311 338 311 381 c 1,0,1
EndSplineSet
EndChar

StartChar: s
Encoding: 115 115 86
Width: 355
GlyphClass: 2
Flags: W
LayerCount: 2
Fore
SplineSet
101 190 m 1,0,1
 93 169 93 169 93 145.5 c 128,-1,2
 93 122 93 122 124.5 88 c 128,-1,3
 156 54 156 54 187 43 c 1,4,5
 206 55 206 55 231.5 97.5 c 128,-1,6
 257 140 257 140 257 161 c 128,-1,7
 257 182 257 182 226 204 c 128,-1,8
 195 226 195 226 158 241.5 c 128,-1,9
 121 257 121 257 90 281 c 128,-1,10
 59 305 59 305 59 329 c 0,11,12
 59 377 59 377 106 420.5 c 128,-1,13
 153 464 153 464 210 485 c 1,14,15
 262 466 262 466 295.5 466 c 128,-1,16
 329 466 329 466 349 481 c 1,17,-1
 359 468 l 1,18,19
 303 417 303 417 281 387 c 1,20,-1
 250 400 l 1,21,22
 201 419 201 419 164 425 c 1,23,24
 147 420 147 420 131 405 c 128,-1,25
 115 390 115 390 115 372 c 128,-1,26
 115 354 115 354 147 332.5 c 128,-1,27
 179 311 179 311 217 295 c 128,-1,28
 255 279 255 279 287 255.5 c 128,-1,29
 319 232 319 232 319 208 c 0,30,31
 319 158 319 158 269 92.5 c 128,-1,32
 219 27 219 27 165 -15 c 1,33,34
 129 -6 129 -6 91.5 22.5 c 128,-1,35
 54 51 54 51 30 84 c 2,36,-1
 10 111 l 1,37,38
 58 155 58 155 87 197 c 1,39,-1
 101 190 l 1,0,1
EndSplineSet
EndChar

StartChar: t
Encoding: 116 116 87
Width: 286
GlyphClass: 2
Flags: W
LayerCount: 2
Fore
SplineSet
163 422 m 1,0,1
 146 280 146 280 146 78 c 2,2,-1
 146 62 l 1,3,4
 221 116 221 116 258 215 c 1,5,-1
 272 211 l 1,6,7
 218 46 218 46 121 -14 c 1,8,9
 73 2 73 2 73 77 c 0,10,11
 73 131 73 131 78 223 c 128,-1,12
 83 315 83 315 83 361 c 128,-1,13
 83 407 83 407 80 428 c 1,14,15
 62 431 62 431 46 431 c 1,16,-1
 44 447 l 1,17,18
 100 499 100 499 129 564 c 1,19,20
 155 574 155 574 170 585 c 1,21,-1
 176 580 l 1,22,23
 165 531 165 531 165 505 c 128,-1,24
 165 479 165 479 165 472 c 1,25,26
 207 475 207 475 246 486 c 1,27,-1
 251 480 l 1,28,29
 240 448 240 448 236 414 c 1,30,31
 197 421 197 421 163 422 c 1,0,1
EndSplineSet
EndChar

StartChar: u
Encoding: 117 117 88
Width: 524
GlyphClass: 2
Flags: W
LayerCount: 2
Fore
SplineSet
174 312 m 128,-1,1
 159 211 159 211 159 144 c 128,-1,2
 159 77 159 77 196 64 c 1,3,4
 245 99 245 99 288 209.5 c 128,-1,5
 331 320 331 320 331 389 c 0,6,7
 331 428 331 428 323 470 c 1,8,9
 352 472 352 472 406 485 c 1,10,-1
 412 480 l 1,11,12
 392 411 392 411 392 264 c 128,-1,13
 392 117 392 117 400 70 c 1,14,15
 430 96 430 96 459 148.5 c 128,-1,16
 488 201 488 201 503 247 c 1,17,-1
 517 244 l 1,18,19
 498 167 498 167 461 95 c 128,-1,20
 424 23 424 23 373 -15 c 1,21,22
 343 -4 343 -4 333 31.5 c 128,-1,23
 323 67 323 67 323 167 c 1,24,25
 328 208 328 208 337 241 c 1,26,-1
 327 242 l 1,27,28
 309 165 309 165 268 92 c 128,-1,29
 227 19 227 19 170 -15 c 1,30,31
 88 0 88 0 88 123 c 0,32,33
 88 170 88 170 101.5 263 c 128,-1,34
 115 356 115 356 115 389 c 128,-1,35
 115 422 115 422 112 442 c 1,36,37
 74 445 74 445 34 456 c 1,38,-1
 34 470 l 1,39,40
 123 470 123 470 197 485 c 1,41,-1
 204 472 l 1,42,0
 189 413 189 413 174 312 c 128,-1,1
EndSplineSet
EndChar

StartChar: v
Encoding: 118 118 89
Width: 444
GlyphClass: 2
Flags: W
LayerCount: 2
Fore
SplineSet
197 472 m 1,0,1
 181 431 181 431 176 313 c 128,-1,2
 171 195 171 195 171 157.5 c 128,-1,3
 171 120 171 120 172 107 c 1,4,5
 199 80 199 80 242 63 c 1,6,7
 331 192 331 192 331 362 c 0,8,9
 331 445 331 445 265 455 c 1,10,-1
 266 470 l 1,11,12
 374 470 374 470 448 514 c 1,13,-1
 454 501 l 1,14,15
 434 484 434 484 403 462 c 1,16,17
 409 441 409 441 409 418 c 0,18,19
 409 323 409 323 360.5 206 c 128,-1,20
 312 89 312 89 216 -15 c 1,21,-1
 204 -7 l 2,22,23
 163 20 163 20 144 28 c 128,-1,24
 125 36 125 36 106 36 c 128,-1,25
 87 36 87 36 75 34 c 1,26,-1
 71 47 l 1,27,28
 91 66 91 66 100 107 c 128,-1,29
 109 148 109 148 109 259 c 128,-1,30
 109 370 109 370 103 442 c 1,31,32
 65 445 65 445 25 456 c 1,33,-1
 25 470 l 1,34,35
 116 470 116 470 190 485 c 1,36,-1
 197 472 l 1,0,1
EndSplineSet
EndChar

StartChar: w
Encoding: 119 119 90
Width: 648
GlyphClass: 2
Flags: W
LayerCount: 2
Fore
SplineSet
194 472 m 1,0,1
 178 431 178 431 173 313 c 128,-1,2
 168 195 168 195 168 157.5 c 128,-1,3
 168 120 168 120 169 107 c 1,4,5
 193 83 193 83 244 63 c 1,6,7
 324 176 324 176 324 362 c 0,8,9
 324 447 324 447 259 459 c 1,10,-1
 260 475 l 1,11,12
 337 470 337 470 454 470 c 128,-1,13
 571 470 571 470 645 514 c 1,14,-1
 651 501 l 1,15,16
 631 484 631 484 600 462 c 1,17,18
 606 441 606 441 606 418 c 0,19,20
 606 318 606 318 547.5 188 c 128,-1,21
 489 58 489 58 414 -15 c 1,22,23
 352 2 352 2 290 79 c 1,24,25
 260 33 260 33 218 -15 c 1,26,-1
 206 -7 l 2,27,28
 166 19 166 19 144.5 27.5 c 128,-1,29
 123 36 123 36 103.5 36 c 128,-1,30
 84 36 84 36 72 34 c 1,31,-1
 68 47 l 1,32,33
 88 66 88 66 97 107 c 128,-1,34
 106 148 106 148 106 259 c 128,-1,35
 106 370 106 370 100 442 c 1,36,37
 62 445 62 445 22 456 c 1,38,-1
 22 470 l 1,39,40
 113 470 113 470 187 485 c 1,41,-1
 194 472 l 1,0,1
403 418 m 0,42,43
 403 298 403 298 333 156 c 1,44,45
 340 129 340 129 369.5 97 c 128,-1,46
 399 65 399 65 430 50 c 1,47,48
 478 110 478 110 503 195.5 c 128,-1,49
 528 281 528 281 528 362 c 0,50,51
 528 455 528 455 462 455 c 0,52,53
 425 455 425 455 401 444 c 1,54,55
 403 426 403 426 403 418 c 0,42,43
EndSplineSet
EndChar

StartChar: x
Encoding: 120 120 91
Width: 452
GlyphClass: 2
Flags: W
LayerCount: 2
Fore
SplineSet
322 410 m 1,0,1
 248 295 248 295 248 205 c 0,2,3
 248 193 248 193 252 181 c 0,4,5
 282 73 282 73 318 57 c 1,6,7
 392 110 392 110 431 214 c 1,8,-1
 445 210 l 1,9,10
 391 45 391 45 294 -15 c 1,11,12
 260 -7 260 -7 239.5 21 c 128,-1,13
 219 49 219 49 203 114 c 2,14,-1
 182 198 l 1,15,-1
 179 199 l 1,16,17
 175 58 175 58 119 -14 c 1,18,-1
 104 -9 l 2,19,20
 76 1 76 1 44 1 c 128,-1,21
 12 1 12 1 -1 -3 c 1,22,-1
 -7 12 l 1,23,24
 34 46 34 46 34 155 c 1,25,-1
 48 155 l 1,26,27
 55 134 55 134 62 78 c 1,28,29
 96 63 96 63 114 59 c 1,30,31
 136 86 136 86 147.5 145.5 c 128,-1,32
 159 205 159 205 159 237 c 128,-1,33
 159 269 159 269 156 281 c 0,34,35
 122 418 122 418 105 442 c 1,36,37
 75 444 75 444 33 456 c 1,38,-1
 33 470 l 1,39,40
 122 470 122 470 196 485 c 1,41,-1
 203 472 l 1,42,43
 198 459 198 459 198 425.5 c 128,-1,44
 198 392 198 392 218 310 c 2,45,-1
 230 261 l 1,46,-1
 233 262 l 1,47,48
 253 404 253 404 319 482 c 1,49,-1
 334 477 l 2,50,51
 362 467 362 467 393 467 c 128,-1,52
 424 467 424 467 439 471 c 1,53,-1
 445 456 l 1,54,55
 404 422 404 422 404 313 c 1,56,-1
 390 313 l 1,57,58
 383 334 383 334 376 390 c 1,59,60
 336 408 336 408 322 410 c 1,0,1
EndSplineSet
EndChar

StartChar: y
Encoding: 121 121 92
Width: 459
GlyphClass: 2
Flags: W
LayerCount: 2
Fore
SplineSet
69 123 m 0,0,1
 69 170 69 170 82.5 263 c 128,-1,2
 96 356 96 356 96 389 c 128,-1,3
 96 422 96 422 93 442 c 1,4,5
 55 445 55 445 15 456 c 1,6,-1
 15 470 l 1,7,8
 104 470 104 470 178 485 c 1,9,-1
 185 472 l 1,10,11
 170 413 170 413 155 312 c 128,-1,12
 140 211 140 211 140 144 c 128,-1,13
 140 77 140 77 177 64 c 1,14,15
 226 99 226 99 269 209.5 c 128,-1,16
 312 320 312 320 312 389 c 0,17,18
 312 428 312 428 304 470 c 1,19,20
 333 472 333 472 387 485 c 1,21,-1
 393 480 l 1,22,23
 373 398 373 398 373 257 c 128,-1,24
 373 116 373 116 382.5 42.5 c 128,-1,25
 392 -31 392 -31 423 -115 c 1,26,27
 391 -150 391 -150 358 -215 c 1,28,-1
 327 -200 l 2,29,30
 194 -136 194 -136 92 -136 c 0,31,32
 24 -136 24 -136 -27 -195 c 1,33,-1
 -38 -186 l 1,34,35
 8 -115 8 -115 151 -15 c 1,36,37
 69 0 69 0 69 123 c 0,0,1
229.5 -99.5 m 128,-1,39
 321 -125 321 -125 349 -125 c 128,-1,40
 377 -125 377 -125 387 -117 c 1,41,42
 350 -63 350 -63 327 4.5 c 128,-1,43
 304 72 304 72 304 133 c 2,44,-1
 304 167 l 1,45,46
 309 208 309 208 318 241 c 1,47,-1
 308 242 l 1,48,49
 260 46 260 46 105 -74 c 1,50,38
 138 -74 138 -74 229.5 -99.5 c 128,-1,39
EndSplineSet
EndChar

StartChar: z
Encoding: 122 122 93
Width: 364
GlyphClass: 2
Flags: W
LayerCount: 2
Fore
SplineSet
103 235 m 0,0,1
 98 235 98 235 90 232 c 1,2,-1
 83 248 l 1,3,4
 186 293 186 293 253 390 c 1,5,6
 185 405 185 405 141 405 c 128,-1,7
 97 405 97 405 87 400 c 1,8,9
 66 354 66 354 51 333 c 1,10,-1
 37 340 l 1,11,12
 57 390 57 390 57 428.5 c 128,-1,13
 57 467 57 467 45 486 c 1,14,-1
 56 498 l 1,15,16
 104 466 104 466 237 466 c 0,17,18
 292 466 292 466 328 470 c 1,19,-1
 333 454 l 1,20,21
 305 407 305 407 266 361.5 c 128,-1,22
 227 316 227 316 187 287 c 1,23,-1
 187 283 l 1,24,25
 233 275 233 275 262 258 c 1,26,27
 282 268 282 268 316 280 c 1,28,-1
 321 266 l 1,29,30
 297 255 297 255 280 244 c 1,31,32
 321 207 321 207 321 137 c 128,-1,33
 321 67 321 67 271.5 -1.5 c 128,-1,34
 222 -70 222 -70 158 -115 c 1,35,36
 120 -106 120 -106 75.5 -70.5 c 128,-1,37
 31 -35 31 -35 16 0 c 1,38,39
 39 131 39 131 181 215 c 1,40,41
 149 235 149 235 103 235 c 0,0,1
251 80 m 0,42,43
 251 160 251 160 196 204 c 1,44,45
 152 173 152 173 119 131.5 c 128,-1,46
 86 90 86 90 86 56 c 128,-1,47
 86 22 86 22 117.5 -12 c 128,-1,48
 149 -46 149 -46 180 -57 c 1,49,50
 209 -36 209 -36 230 4 c 128,-1,51
 251 44 251 44 251 80 c 0,42,43
EndSplineSet
EndChar

StartChar: braceleft
Encoding: 123 123 94
Width: 300
GlyphClass: 2
Flags: W
LayerCount: 2
Fore
SplineSet
176 604 m 1,0,1
 175 594 175 594 175 565.5 c 128,-1,2
 175 537 175 537 188.5 457.5 c 128,-1,3
 202 378 202 378 202 355.5 c 128,-1,4
 202 333 202 333 202 329 c 1,5,6
 184 295 184 295 105 250 c 1,7,-1
 105 246 l 1,8,9
 178 202 178 202 190 167 c 1,10,11
 187 128 187 128 158 34 c 128,-1,12
 129 -60 129 -60 126 -108 c 1,13,14
 133 -135 133 -135 155 -161 c 128,-1,15
 177 -187 177 -187 203 -201 c 1,16,-1
 198 -215 l 1,17,18
 151 -201 151 -201 112 -160.5 c 128,-1,19
 73 -120 73 -120 73 -79 c 0,20,21
 73 -44 73 -44 96 54 c 128,-1,22
 119 152 119 152 119 189 c 0,23,24
 119 208 119 208 100 220 c 128,-1,25
 81 232 81 232 54 236 c 1,26,-1
 51 255 l 1,27,28
 125 271 125 271 127 309 c 0,29,30
 128 325 128 325 128 354.5 c 128,-1,31
 128 384 128 384 122.5 442 c 128,-1,32
 117 500 117 500 117 528 c 128,-1,33
 117 556 117 556 118 569 c 0,34,35
 122 613 122 613 168 655 c 128,-1,36
 214 697 214 697 263 711 c 1,37,-1
 266 697 l 1,38,39
 238 683 238 683 212 657 c 128,-1,40
 186 631 186 631 176 604 c 1,0,1
EndSplineSet
EndChar

StartChar: bar
Encoding: 124 124 95
Width: 238
GlyphClass: 2
Flags: W
LayerCount: 2
Fore
SplineSet
144 -199 m 1,0,1
 126 -209 126 -209 103 -216 c 1,2,-1
 96 -213 l 1,3,4
 96 476 96 476 89 723 c 1,5,6
 123 737 123 737 141 750 c 1,7,-1
 146 749 l 1,8,9
 144 607 144 607 144 -199 c 1,0,1
EndSplineSet
EndChar

StartChar: braceright
Encoding: 125 125 96
Width: 301
GlyphClass: 2
Flags: W
LayerCount: 2
Fore
SplineSet
227 569 m 0,0,1
 224 521 224 521 203 432 c 128,-1,2
 182 343 182 343 182 307.5 c 128,-1,3
 182 272 182 272 250 255 c 1,4,-1
 245 236 l 1,5,6
 177 225 177 225 174 187 c 0,7,8
 173 174 173 174 173 145 c 128,-1,9
 173 116 173 116 178 59.5 c 128,-1,10
 183 3 183 3 183 -27 c 128,-1,11
 183 -57 183 -57 182 -73 c 0,12,13
 179 -117 179 -117 133 -159 c 128,-1,14
 87 -201 87 -201 37 -215 c 1,15,-1
 34 -201 l 1,16,17
 62 -187 62 -187 88 -161 c 128,-1,18
 114 -135 114 -135 125 -108 c 1,19,20
 125 -101 125 -101 125 -73.5 c 128,-1,21
 125 -46 125 -46 112 33 c 128,-1,22
 99 112 99 112 99 136.5 c 128,-1,23
 99 161 99 161 99 167 c 1,24,25
 115 200 115 200 196 246 c 1,26,-1
 196 250 l 1,27,28
 122 295 122 295 111 329 c 1,29,30
 113 369 113 369 142 463 c 128,-1,31
 171 557 171 557 175 604 c 1,32,33
 168 631 168 631 145.5 657 c 128,-1,34
 123 683 123 683 97 697 c 1,35,-1
 102 711 l 1,36,37
 149 697 149 697 188 657 c 128,-1,38
 227 617 227 617 227 577 c 0,39,40
 227 573 227 573 227 569 c 0,0,1
EndSplineSet
EndChar

StartChar: asciitilde
Encoding: 126 126 97
Width: 570
GlyphClass: 2
Flags: W
LayerCount: 2
Fore
SplineSet
387 258 m 0,0,1
 445 258 445 258 506 317 c 1,2,-1
 522 304 l 1,3,4
 499 268 499 268 453.5 236.5 c 128,-1,5
 408 205 408 205 365 193 c 1,6,7
 334 193 334 193 265.5 223.5 c 128,-1,8
 197 254 197 254 166 254 c 0,9,10
 107 254 107 254 64 199 c 1,11,-1
 48 212 l 1,12,13
 74 251 74 251 122.5 284.5 c 128,-1,14
 171 318 171 318 215 323 c 1,15,16
 311 258 311 258 387 258 c 0,0,1
EndSplineSet
EndChar

StartChar: exclamdown
Encoding: 161 161 99
Width: 207
GlyphClass: 2
Flags: W
LayerCount: 2
Fore
SplineSet
19 -200 m 0,0,1
 16 -200 16 -200 13 -200 c 1,2,3
 1 -188 1 -188 -14 -160 c 1,4,5
 40 1 40 1 85 301 c 1,6,-1
 111 303 l 1,7,-1
 82 -183 l 1,8,9
 46 -200 46 -200 19 -200 c 0,0,1
161 430 m 1,10,11
 152 415 152 415 133.5 393 c 128,-1,12
 115 371 115 371 101 362 c 1,13,14
 77 379 77 379 53 430 c 1,15,16
 60 443 60 443 79 460 c 128,-1,17
 98 477 98 477 112 485 c 1,18,19
 137 469 137 469 161 430 c 1,10,11
EndSplineSet
EndChar

StartChar: cent
Encoding: 162 162 100
Width: 362
GlyphClass: 2
Flags: W
LayerCount: 2
Fore
SplineSet
252 416 m 1,0,-1
 220 427 l 1,1,-1
 196 81 l 1,2,3
 267 135 267 135 302 229 c 1,4,-1
 325 220 l 1,5,6
 283 92 283 92 192 19 c 1,7,-1
 187 -91 l 1,8,-1
 182 -92 l 1,9,10
 166 -87 166 -87 155 -77 c 1,11,-1
 165 0 l 1,12,13
 108 11 108 11 77.5 59.5 c 128,-1,14
 47 108 47 108 47 172 c 0,15,16
 47 269 47 269 85.5 356 c 128,-1,17
 124 443 124 443 197 493 c 1,18,-1
 202 588 l 1,19,20
 217 590 217 590 230 594 c 1,21,-1
 234 591 l 1,22,23
 230 562 230 562 225 494 c 1,24,25
 271 482 271 482 300 482 c 128,-1,26
 329 482 329 482 342 486 c 1,27,-1
 348 471 l 1,28,29
 307 437 307 437 307 328 c 1,30,-1
 293 328 l 1,31,32
 282 368 282 368 279 405 c 1,33,-1
 252 416 l 1,0,-1
118 218 m 0,34,35
 118 123 118 123 170 87 c 1,36,-1
 193 435 l 1,37,-1
 169 440 l 1,38,39
 118 343 118 343 118 218 c 0,34,35
EndSplineSet
EndChar

StartChar: sterling
Encoding: 163 163 101
Width: 376
GlyphClass: 2
Flags: W
LayerCount: 2
Fore
SplineSet
82 134 m 1,0,-1
 77 249 l 1,1,-1
 28 246 l 1,2,-1
 21 251 l 1,3,-1
 35 291 l 1,4,-1
 81 291 l 1,5,6
 108 448 108 448 235 538 c 1,7,8
 284 518 284 518 320 518 c 128,-1,9
 356 518 356 518 369 523 c 1,10,-1
 375 506 l 1,11,12
 334 468 334 468 334 365 c 1,13,-1
 320 365 l 1,14,15
 308 413 308 413 306 440 c 1,16,-1
 279 452 l 2,17,18
 239 470 239 470 199 477 c 1,19,20
 153 398 153 398 153 293 c 1,21,22
 210 295 210 295 297 305 c 1,23,-1
 304 300 l 1,24,-1
 289 265 l 1,25,-1
 151 254 l 1,26,27
 151 146 151 146 107 81 c 1,28,29
 164 69 164 69 211.5 69 c 128,-1,30
 259 69 259 69 278 78 c 1,31,32
 298 123 298 123 313 143 c 1,33,-1
 327 136 l 1,34,35
 307 86 307 86 307 50 c 128,-1,36
 307 14 307 14 319 -5 c 1,37,-1
 311 -17 l 1,38,39
 218 8 218 8 94 8 c 0,40,41
 52 8 52 8 30 -7 c 1,42,-1
 21 -1 l 1,43,44
 53 33 53 33 67.5 63 c 128,-1,45
 82 93 82 93 82 134 c 1,0,-1
EndSplineSet
EndChar

StartChar: currency
Encoding: 164 164 102
Width: 567
GlyphClass: 2
Flags: W
LayerCount: 2
Fore
SplineSet
74 279 m 0,0,1
 74 362 74 362 136 431 c 1,2,3
 98 469 98 469 42 521 c 1,4,5
 49 548 49 548 69 568 c 1,6,-1
 74 568 l 1,7,-1
 172 463 l 1,8,9
 234 509 234 509 311 523 c 1,10,11
 391 523 391 523 438 488 c 1,12,-1
 520 568 l 1,13,14
 563 553 563 553 572 552 c 1,15,-1
 574 548 l 1,16,-1
 468 455 l 1,17,18
 494 415 494 415 494 357 c 0,19,20
 494 267 494 267 426 199 c 1,21,22
 526 97 526 97 541 83 c 1,23,-1
 539 79 l 1,24,25
 526 77 526 77 485 63 c 1,26,-1
 390 168 l 1,27,28
 338 130 338 130 271 116 c 1,29,30
 187 116 187 116 136 151 c 1,31,-1
 39 63 l 1,32,-1
 34 63 l 1,33,34
 16 85 16 85 13 110 c 1,35,36
 53 142 53 142 102 185 c 1,37,38
 74 222 74 222 74 279 c 0,0,1
279 469 m 0,39,40
 222 469 222 469 187 443 c 1,41,42
 151 394 151 394 151 322 c 128,-1,43
 151 250 151 250 185.5 210 c 128,-1,44
 220 170 220 170 283 170 c 128,-1,45
 346 170 346 170 381 196 c 1,46,47
 418 244 418 244 418 317 c 0,48,49
 418 469 418 469 279 469 c 0,39,40
EndSplineSet
EndChar

StartChar: yen
Encoding: 165 165 103
Width: 445
GlyphClass: 2
Flags: W
LayerCount: 2
Fore
SplineSet
252 177 m 1,0,1
 309 177 309 177 359 183 c 1,2,-1
 362 179 l 1,3,4
 352 164 352 164 347 147 c 1,5,-1
 252 144 l 1,6,7
 252 39 252 39 261 -3 c 1,8,9
 209 -7 209 -7 175 -15 c 1,10,-1
 170 -11 l 1,11,12
 181 38 181 38 189 142 c 1,13,14
 115 138 115 138 85 134 c 1,15,-1
 82 138 l 1,16,17
 101 157 101 157 110 170 c 1,18,-1
 192 174 l 1,19,20
 194 200 194 200 194 216 c 1,21,22
 130 213 130 213 85 207 c 1,23,-1
 82 211 l 1,24,25
 101 230 101 230 110 243 c 1,26,-1
 189 247 l 1,27,28
 182 262 182 262 169 291 c 0,29,30
 102 440 102 440 68 495 c 1,31,32
 27 500 27 500 1 509 c 1,33,-1
 2 523 l 1,34,35
 17 523 17 523 63 523 c 128,-1,36
 109 523 109 523 162 532 c 1,37,38
 183 416 183 416 244 276 c 1,39,-1
 277 335 l 2,40,41
 329 427 329 427 329 490 c 0,42,43
 329 507 329 507 324 518 c 1,44,-1
 327 522 l 1,45,46
 382 524 382 524 417 533 c 1,47,48
 408 479 408 479 372 421 c 0,49,50
 359 399 359 399 351.5 385.5 c 128,-1,51
 344 372 344 372 326.5 348 c 128,-1,52
 309 324 309 324 302 315 c 0,53,54
 268 267 268 267 255 251 c 1,55,56
 317 251 317 251 359 256 c 1,57,-1
 362 252 l 1,58,59
 352 237 352 237 347 220 c 1,60,-1
 252 217 l 1,61,-1
 252 177 l 1,0,1
EndSplineSet
EndChar

StartChar: brokenbar
Encoding: 166 166 104
Width: 245
GlyphClass: 2
Flags: W
LayerCount: 2
Fore
SplineSet
149 340 m 1,0,1
 131 330 131 330 108 323 c 1,2,-1
 101 326 l 1,3,4
 100 508 100 508 94 725 c 1,5,6
 128 739 128 739 146 752 c 1,7,-1
 151 751 l 1,8,9
 149 609 149 609 149 340 c 1,0,1
149 -198 m 1,10,11
 131 -208 131 -208 108 -215 c 1,12,-1
 101 -212 l 1,13,14
 100 -30 100 -30 94 187 c 1,15,16
 128 201 128 201 146 214 c 1,17,-1
 151 213 l 1,18,19
 149 71 149 71 149 -198 c 1,10,11
EndSplineSet
EndChar

StartChar: section
Encoding: 167 167 105
Width: 389
GlyphClass: 2
Flags: W
LayerCount: 2
Fore
SplineSet
5 263 m 0,0,1
 5 339 5 339 113 412 c 1,2,3
 70 448 70 448 70 485 c 0,4,5
 70 537 70 537 120.5 586.5 c 128,-1,6
 171 636 171 636 233 666 c 1,7,8
 285 647 285 647 318.5 647 c 128,-1,9
 352 647 352 647 372 662 c 1,10,-1
 382 649 l 1,11,12
 326 598 326 598 304 568 c 1,13,-1
 273 581 l 2,14,15
 224 601 224 601 188 606 c 1,16,17
 134 576 134 576 134 542 c 0,18,19
 134 518 134 518 159.5 491.5 c 128,-1,20
 185 465 185 465 221.5 442 c 128,-1,21
 258 419 258 419 294 395 c 0,22,23
 381 337 381 337 381 288 c 0,24,25
 381 212 381 212 273 139 c 1,26,27
 316 99 316 99 316 66 c 0,28,29
 316 14 316 14 265.5 -35.5 c 128,-1,30
 215 -85 215 -85 153 -115 c 1,31,32
 101 -96 101 -96 67.5 -96 c 128,-1,33
 34 -96 34 -96 14 -111 c 1,34,-1
 4 -98 l 1,35,36
 60 -47 60 -47 82 -17 c 1,37,-1
 113 -30 l 2,38,39
 162 -50 162 -50 198 -55 c 1,40,41
 252 -24 252 -24 252 9 c 0,42,43
 252 53 252 53 165 109 c 0,44,45
 129 132 129 132 92 156 c 0,46,47
 5 214 5 214 5 263 c 0,0,1
317 231 m 0,48,49
 317 257 317 257 293 281 c 128,-1,50
 269 305 269 305 210.5 343 c 128,-1,51
 152 381 152 381 138 391 c 1,52,53
 69 359 69 359 69 320 c 0,54,55
 69 294 69 294 93.5 269.5 c 128,-1,56
 118 245 118 245 175 208 c 128,-1,57
 232 171 232 171 248 159 c 1,58,59
 317 191 317 191 317 231 c 0,48,49
EndSplineSet
EndChar

StartChar: dieresis
Encoding: 168 168 106
Width: 273
GlyphClass: 2
Flags: W
LayerCount: 2
Fore
SplineSet
273 620 m 1,0,1
 264 605 264 605 245.5 583 c 128,-1,2
 227 561 227 561 213 552 c 1,3,4
 189 569 189 569 165 620 c 1,5,6
 172 633 172 633 191 650 c 128,-1,7
 210 667 210 667 224 675 c 1,8,9
 249 659 249 659 273 620 c 1,0,1
108 620 m 1,10,11
 99 605 99 605 80.5 583 c 128,-1,12
 62 561 62 561 48 552 c 1,13,14
 24 569 24 569 0 620 c 1,15,16
 7 633 7 633 26 650 c 128,-1,17
 45 667 45 667 59 675 c 1,18,19
 84 659 84 659 108 620 c 1,10,11
EndSplineSet
EndChar

StartChar: copyright
Encoding: 169 169 107
Width: 765
GlyphClass: 2
Flags: W
LayerCount: 2
Fore
SplineSet
313.5 219 m 128,-1,1
 333 177 333 177 384.5 177 c 128,-1,2
 436 177 436 177 484 221 c 1,3,-1
 496 208 l 1,4,5
 452 153 452 153 374 119 c 1,6,7
 299 119 299 119 261 164 c 128,-1,8
 223 209 223 209 223 287.5 c 128,-1,9
 223 366 223 366 271.5 436 c 128,-1,10
 320 506 320 506 392 531 c 1,11,12
 455 531 455 531 512 518 c 1,13,-1
 511 501 l 1,14,15
 494 499 494 499 487 494 c 1,16,17
 471 459 471 459 466 411 c 1,18,-1
 448 411 l 1,19,20
 441 441 441 441 441 464 c 1,21,22
 413 479 413 479 379 479 c 128,-1,23
 345 479 345 479 322 463 c 1,24,25
 294 409 294 409 294 335 c 128,-1,0
 294 261 294 261 313.5 219 c 128,-1,1
42 325 m 128,-1,27
 42 466 42 466 141.5 566 c 128,-1,28
 241 666 241 666 382 666 c 128,-1,29
 523 666 523 666 623 566 c 128,-1,30
 723 466 723 466 723 325 c 128,-1,31
 723 184 723 184 623 84.5 c 128,-1,32
 523 -15 523 -15 382 -15 c 128,-1,33
 241 -15 241 -15 141.5 84.5 c 128,-1,26
 42 184 42 184 42 325 c 128,-1,27
86 325 m 128,-1,35
 86 202 86 202 172.5 114.5 c 128,-1,36
 259 27 259 27 382 27 c 128,-1,37
 505 27 505 27 592 114.5 c 128,-1,38
 679 202 679 202 679 325 c 128,-1,39
 679 448 679 448 592 536 c 128,-1,40
 505 624 505 624 382 624 c 128,-1,41
 259 624 259 624 172.5 536 c 128,-1,34
 86 448 86 448 86 325 c 128,-1,35
EndSplineSet
EndChar

StartChar: ordfeminine
Encoding: 170 170 108
Width: 439
GlyphClass: 2
Flags: W
LayerCount: 2
Fore
SplineSet
63 389 m 0,0,1
 63 477 63 477 104 559 c 128,-1,2
 145 641 145 641 217 672 c 1,3,4
 260 672 260 672 307 643 c 1,5,6
 319 671 319 671 337 698 c 1,7,-1
 348 695 l 1,8,9
 322 626 322 626 322 464 c 0,10,11
 322 376 322 376 328 333 c 1,12,13
 353 355 353 355 377.5 396.5 c 128,-1,14
 402 438 402 438 413 475 c 1,15,-1
 425 473 l 1,16,17
 410 410 410 410 378 350 c 128,-1,18
 346 290 346 290 304 259 c 1,19,20
 279 268 279 268 270 297.5 c 128,-1,21
 261 327 261 327 261 409 c 1,22,23
 263 426 263 426 272 470 c 1,24,-1
 264 471 l 1,25,26
 250 407 250 407 216.5 347 c 128,-1,27
 183 287 183 287 136 259 c 1,28,29
 101 265 101 265 82 305 c 128,-1,30
 63 345 63 345 63 389 c 0,0,1
129 415 m 0,31,32
 129 341 129 341 156 330 c 1,33,34
 195 359 195 359 230 447 c 128,-1,35
 265 535 265 535 265 589 c 1,36,37
 235 617 235 617 197 617 c 0,38,39
 177 617 177 617 166 606 c 1,40,41
 129 531 129 531 129 415 c 0,31,32
EndSplineSet
EndChar

StartChar: guillemotleft
Encoding: 171 171 109
Width: 447
GlyphClass: 2
Flags: W
LayerCount: 2
Fore
SplineSet
137 283 m 1,0,-1
 226 125 l 1,1,-1
 204 111 l 1,2,3
 126 216 126 216 46 269 c 1,4,-1
 48 289 l 1,5,6
 150 341 150 341 244 439 c 1,7,-1
 262 426 l 1,8,-1
 137 283 l 1,0,-1
313 285 m 1,9,-1
 394 142 l 1,10,-1
 372 128 l 1,11,12
 293 224 293 224 222 271 c 1,13,-1
 224 291 l 1,14,15
 331 345 331 345 409 426 c 1,16,-1
 426 413 l 1,17,-1
 313 285 l 1,9,-1
EndSplineSet
EndChar

StartChar: logicalnot
Encoding: 172 172 110
Width: 550
GlyphClass: 2
Flags: W
LayerCount: 2
Fore
SplineSet
447 238 m 1,0,-1
 59 238 l 1,1,-1
 51 245 l 1,2,-1
 60 296 l 1,3,4
 229 287 229 287 339 287 c 128,-1,5
 449 287 449 287 488 290 c 1,6,-1
 494 284 l 1,7,8
 494 220 494 220 499 88 c 1,9,-1
 494 82 l 1,10,-1
 447 91 l 1,11,-1
 447 238 l 1,0,-1
EndSplineSet
EndChar

StartChar: registered
Encoding: 174 174 111
Width: 434
GlyphClass: 2
Flags: W
LayerCount: 2
Fore
SplineSet
21 500 m 128,-1,1
 21 582 21 582 78 639 c 128,-1,2
 135 696 135 696 217 696 c 128,-1,3
 299 696 299 696 356 639 c 128,-1,4
 413 582 413 582 413 500 c 128,-1,5
 413 418 413 418 356 361 c 128,-1,6
 299 304 299 304 217 304 c 128,-1,7
 135 304 135 304 78 361 c 128,-1,0
 21 418 21 418 21 500 c 128,-1,1
57 500 m 128,-1,9
 57 432 57 432 103.5 385 c 128,-1,10
 150 338 150 338 217 338 c 128,-1,11
 284 338 284 338 329.5 385 c 128,-1,12
 375 432 375 432 375 500 c 128,-1,13
 375 568 375 568 329.5 614 c 128,-1,14
 284 660 284 660 217 660 c 128,-1,15
 150 660 150 660 103.5 614 c 128,-1,8
 57 568 57 568 57 500 c 128,-1,9
129 605 m 1,16,-1
 219 608 l 1,17,18
 255 608 255 608 274 598.5 c 128,-1,19
 293 589 293 589 293 556 c 128,-1,20
 293 523 293 523 256 508 c 1,21,-1
 299 420 l 1,22,-1
 319 415 l 1,23,-1
 319 404 l 1,24,25
 298 407 298 407 277 407 c 128,-1,26
 256 407 256 407 240 405 c 1,27,-1
 238 412 l 1,28,29
 244 417 244 417 244 434 c 128,-1,30
 244 451 244 451 218 503 c 1,31,32
 210 506 210 506 203 506 c 1,33,-1
 204 517 l 1,34,-1
 208 517 l 2,35,36
 247 517 247 517 247 556 c 0,37,38
 247 590 247 590 214 590 c 0,39,40
 205 590 205 590 197 587 c 1,41,42
 196 568 196 568 196 501 c 128,-1,43
 196 434 196 434 199 420 c 1,44,-1
 221 415 l 1,45,-1
 220 404 l 1,46,47
 197 407 197 407 173 407 c 128,-1,48
 149 407 149 407 125 404 c 1,49,-1
 125 415 l 1,50,51
 137 418 137 418 150 420 c 1,52,53
 154 460 154 460 154 514 c 128,-1,54
 154 568 154 568 151 589 c 1,55,56
 139 593 139 593 129 593 c 1,57,-1
 129 605 l 1,16,-1
EndSplineSet
EndChar

StartChar: macron
Encoding: 175 175 112
Width: 257
GlyphClass: 2
Flags: W
LayerCount: 2
Fore
SplineSet
59 638 m 1,0,1
 119 636 119 636 161.5 636 c 128,-1,2
 204 636 204 636 250 639 c 1,3,-1
 257 635 l 1,4,-1
 238 587 l 1,5,-1
 8 585 l 1,6,-1
 0 590 l 1,7,-1
 19 641 l 1,8,-1
 59 638 l 1,0,1
EndSplineSet
EndChar

StartChar: degree
Encoding: 176 176 113
Width: 364
GlyphClass: 2
Flags: W
LayerCount: 2
Fore
SplineSet
77 425.5 m 128,-1,1
 42 455 42 455 42 512.5 c 128,-1,2
 42 570 42 570 88 613 c 128,-1,3
 134 656 134 656 200 667 c 1,4,5
 322 667 322 667 322 562 c 0,6,7
 322 500 322 500 279.5 453.5 c 128,-1,8
 237 407 237 407 173 396 c 1,9,0
 112 396 112 396 77 425.5 c 128,-1,1
179 628 m 0,10,11
 140 628 140 628 120 611 c 1,12,13
 101 582 101 582 101 538 c 0,14,15
 101 435 101 435 185 435 c 0,16,17
 224 435 224 435 244 452 c 1,18,19
 263 480 263 480 263 525 c 0,20,21
 263 628 263 628 179 628 c 0,10,11
EndSplineSet
EndChar

StartChar: plusminus
Encoding: 177 177 114
Width: 550
GlyphClass: 2
Flags: W
LayerCount: 2
Fore
SplineSet
299 267 m 1,0,1
 299 185 299 185 308 90 c 1,2,-1
 262 81 l 1,3,-1
 252 88 l 1,4,-1
 252 267 l 1,5,-1
 66 267 l 1,6,-1
 58 274 l 1,7,-1
 67 325 l 1,8,9
 189 319 189 319 252 318 c 1,10,-1
 252 476 l 1,11,-1
 299 485 l 1,12,-1
 304 479 l 1,13,14
 299 391 299 391 299 318 c 2,15,-1
 299 317 l 1,16,17
 336 316 336 316 396 316 c 128,-1,18
 456 316 456 316 495 319 c 1,19,-1
 501 313 l 1,20,-1
 492 267 l 1,21,-1
 299 267 l 1,0,1
59 58 m 1,22,23
 229 49 229 49 338.5 49 c 128,-1,24
 448 49 448 49 487 52 c 1,25,-1
 493 46 l 1,26,-1
 484 0 l 1,27,-1
 58 0 l 1,28,-1
 50 7 l 1,29,-1
 59 58 l 1,22,23
EndSplineSet
EndChar

StartChar: twosuperior
Encoding: 178 178 115
Width: 330
GlyphClass: 2
Flags: W
LayerCount: 2
Fore
SplineSet
155 689 m 0,0,1
 133 689 133 689 115 680 c 1,2,3
 110 660 110 660 110 649.5 c 128,-1,4
 110 639 110 639 118 631 c 1,5,-1
 117 626 l 1,6,7
 96 609 96 609 84 594 c 1,8,9
 75 594 75 594 68.5 600.5 c 128,-1,10
 62 607 62 607 62 616 c 0,11,12
 62 656 62 656 99 694 c 128,-1,13
 136 732 136 732 180 746 c 1,14,15
 229 746 229 746 252 712.5 c 128,-1,16
 275 679 275 679 275 629 c 0,17,18
 275 625 275 625 275 621 c 1,19,20
 252 580 252 580 188 514.5 c 128,-1,21
 124 449 124 449 104 420 c 1,22,23
 147 410 147 410 184 410 c 128,-1,24
 221 410 221 410 236 417 c 1,25,26
 254 455 254 455 265 470 c 1,27,-1
 276 464 l 1,28,29
 260 424 260 424 260 393.5 c 128,-1,30
 260 363 260 363 270 349 c 1,31,-1
 263 339 l 1,32,33
 189 360 189 360 87 360 c 0,34,35
 54 360 54 360 35 347 c 1,36,-1
 28 352 l 1,37,38
 53 417 53 417 134 501 c 0,39,40
 204 574 204 574 204 631.5 c 128,-1,41
 204 689 204 689 155 689 c 0,0,1
EndSplineSet
EndChar

StartChar: threesuperior
Encoding: 179 179 116
Width: 360
GlyphClass: 2
Flags: W
LayerCount: 2
Fore
SplineSet
233 488 m 0,0,1
 233 564 233 564 154 564 c 0,2,3
 144 564 144 564 128 562 c 1,4,-1
 123 572 l 1,5,6
 153 586 153 586 180.5 612.5 c 128,-1,7
 208 639 208 639 224 668 c 1,8,9
 188 677 188 677 161.5 677 c 128,-1,10
 135 677 135 677 126 674 c 1,11,12
 107 641 107 641 98 630 c 1,13,-1
 87 634 l 1,14,15
 103 671 103 671 103 700 c 128,-1,16
 103 729 103 729 93 742 c 1,17,-1
 102 752 l 1,18,19
 140 727 140 727 228 727 c 0,20,21
 268 727 268 727 300 730 c 1,22,-1
 304 717 l 1,23,24
 259 644 259 644 196 596 c 1,25,-1
 196 593 l 1,26,27
 298 593 298 593 298 516 c 0,28,29
 298 473 298 473 253.5 417.5 c 128,-1,30
 209 362 209 362 165 340 c 1,31,32
 114 351 114 351 61 406 c 2,33,-1
 45 423 l 1,34,35
 86 453 86 453 106 492 c 1,36,-1
 118 487 l 1,37,38
 110 472 110 472 110 457 c 128,-1,39
 110 442 110 442 136 419 c 128,-1,40
 162 396 162 396 186 390 c 1,41,42
 206 404 206 404 219.5 433 c 128,-1,43
 233 462 233 462 233 488 c 0,0,1
EndSplineSet
EndChar

StartChar: acute
Encoding: 180 180 117
Width: 200
GlyphClass: 2
Flags: W
LayerCount: 2
Fore
SplineSet
139 696 m 1,0,1
 149 697 149 697 159 697 c 128,-1,2
 169 697 169 697 177 695 c 1,3,4
 184 688 184 688 191.5 669.5 c 128,-1,5
 199 651 199 651 200 642 c 1,6,-1
 10 543 l 1,7,-1
 0 560 l 1,8,9
 102 629 102 629 139 696 c 1,0,1
EndSplineSet
EndChar

StartChar: mu
Encoding: 181 181 118
AltUni2: 0003bc.ffffffff.0
Width: 510
GlyphClass: 2
Flags: W
LayerCount: 2
Fore
SplineSet
145 151 m 0,0,1
 145 77 145 77 182 64 c 1,2,3
 231 99 231 99 274 209.5 c 128,-1,4
 317 320 317 320 317 389 c 0,5,6
 317 428 317 428 309 470 c 1,7,8
 338 472 338 472 392 485 c 1,9,-1
 398 480 l 1,10,11
 378 411 378 411 378 264 c 128,-1,12
 378 117 378 117 386 70 c 1,13,14
 416 96 416 96 445 148.5 c 128,-1,15
 474 201 474 201 489 247 c 1,16,-1
 503 244 l 1,17,18
 484 167 484 167 447 95 c 128,-1,19
 410 23 410 23 359 -15 c 1,20,21
 329 -4 329 -4 319 31.5 c 128,-1,22
 309 67 309 67 309 167 c 1,23,24
 314 208 314 208 323 241 c 1,25,-1
 313 242 l 1,26,27
 295 165 295 165 254 92 c 128,-1,28
 213 19 213 19 156 -15 c 1,29,30
 142 -12 142 -12 129 -1 c 1,31,32
 129 -106 129 -106 150 -196 c 1,33,-1
 147 -199 l 1,34,35
 103 -207 103 -207 71 -219 c 1,36,-1
 62 -212 l 1,37,38
 76 -116 76 -116 81 143 c 2,39,-1
 85 331 l 2,40,41
 85 342 85 342 85 383.5 c 128,-1,42
 85 425 85 425 79 467 c 1,43,-1
 83 470 l 1,44,45
 140 476 140 476 175 485 c 1,46,-1
 181 480 l 1,47,48
 145 344 145 344 145 151 c 0,0,1
EndSplineSet
EndChar

StartChar: paragraph
Encoding: 182 182 119
Width: 574
GlyphClass: 2
Flags: W
LayerCount: 2
Fore
SplineSet
242 658 m 1,0,-1
 367 651 l 1,1,-1
 371 646 l 1,2,3
 347 536 347 536 332 325 c 2,4,-1
 322 181 l 2,5,6
 311 34 311 34 284 -19 c 0,7,8
 250 -85 250 -85 199 -104 c 0,9,10
 168 -115 168 -115 127 -115 c 0,11,12
 115 -115 115 -115 106.5 -107.5 c 128,-1,13
 98 -100 98 -100 98 -88 c 1,14,15
 130 -63 130 -63 144 -38 c 1,16,-1
 151 -37 l 1,17,18
 164 -47 164 -47 191.5 -47 c 128,-1,19
 219 -47 219 -47 237 -39 c 1,20,21
 268 22 268 22 276 131 c 2,22,-1
 287 298 l 1,23,24
 269 295 269 295 253 295 c 0,25,26
 158 295 158 295 94 351 c 128,-1,27
 30 407 30 407 30 497 c 0,28,29
 30 658 30 658 242 658 c 1,0,-1
458 499 m 128,-1,31
 432 364 432 364 432 210 c 128,-1,32
 432 56 432 56 447 0 c 1,33,34
 391 -3 391 -3 345 -15 c 1,35,-1
 341 -11 l 1,36,37
 365 54 365 54 383.5 310 c 128,-1,38
 402 566 402 566 419 651 c 1,39,40
 469 654 469 654 518 677 c 1,41,-1
 525 664 l 1,42,30
 484 634 484 634 458 499 c 128,-1,31
EndSplineSet
EndChar

StartChar: periodcentered
Encoding: 183 183 120
Width: 200
GlyphClass: 2
Flags: W
LayerCount: 2
Fore
SplineSet
154 285 m 1,0,1
 145 270 145 270 126.5 248 c 128,-1,2
 108 226 108 226 94 217 c 1,3,4
 70 234 70 234 46 285 c 1,5,6
 53 298 53 298 72 315 c 128,-1,7
 91 332 91 332 105 340 c 1,8,9
 130 324 130 324 154 285 c 1,0,1
EndSplineSet
EndChar

StartChar: cedilla
Encoding: 184 184 121
Width: 186
GlyphClass: 2
Flags: W
LayerCount: 2
Fore
SplineSet
186 -119 m 0,0,1
 186 -126 186 -126 185 -133 c 1,2,3
 145 -195 145 -195 84 -215 c 1,4,5
 40 -215 40 -215 0 -194 c 1,6,7
 14 -170 14 -170 20 -155 c 1,8,-1
 24 -153 l 1,9,10
 53 -178 53 -178 89 -178 c 0,11,12
 107 -178 107 -178 115 -173 c 1,13,14
 128 -158 128 -158 128 -135 c 128,-1,15
 128 -112 128 -112 107.5 -104.5 c 128,-1,16
 87 -97 87 -97 51 -97 c 1,17,-1
 45 -93 l 1,18,-1
 106 14 l 1,19,-1
 135 16 l 1,20,-1
 101 -46 l 1,21,-1
 104 -49 l 1,22,23
 145 -49 145 -49 165.5 -69.5 c 128,-1,24
 186 -90 186 -90 186 -119 c 0,0,1
EndSplineSet
EndChar

StartChar: onesuperior
Encoding: 185 185 122
Width: 310
GlyphClass: 2
Flags: W
LayerCount: 2
Fore
SplineSet
205 744 m 1,0,1
 190 629 190 629 190 526.5 c 128,-1,2
 190 424 190 424 193 390 c 1,3,4
 209 372 209 372 238 358 c 1,5,-1
 233 342 l 1,6,7
 200 351 200 351 151 351 c 128,-1,8
 102 351 102 351 63 343 c 1,9,-1
 60 358 l 1,10,11
 88 372 88 372 116 380 c 1,12,13
 128 464 128 464 128 599 c 0,14,15
 128 619 128 619 126 665 c 1,16,-1
 66 665 l 1,17,-1
 64 667 l 1,18,19
 64 678 64 678 66 684 c 1,20,21
 138 704 138 704 177 744 c 1,22,23
 191 746 191 746 203 746 c 1,24,-1
 205 744 l 1,0,1
EndSplineSet
EndChar

StartChar: ordmasculine
Encoding: 186 186 123
Width: 392
GlyphClass: 2
Flags: W
LayerCount: 2
Fore
SplineSet
224 321 m 1,0,1
 260 399 260 399 260 506.5 c 128,-1,2
 260 614 260 614 197 614 c 0,3,4
 179 614 179 614 163 604 c 1,5,6
 128 527 128 527 128 421 c 0,7,8
 128 376 128 376 142.5 343.5 c 128,-1,9
 157 311 157 311 190 311 c 0,10,11
 208 311 208 311 224 321 c 1,0,1
93 302.5 m 128,-1,13
 63 346 63 346 63 419 c 128,-1,14
 63 492 63 492 101.5 564.5 c 128,-1,15
 140 637 140 637 208 666 c 1,16,17
 329 666 329 666 329 515 c 0,18,19
 329 434 329 434 288.5 360.5 c 128,-1,20
 248 287 248 287 180 259 c 1,21,12
 123 259 123 259 93 302.5 c 128,-1,13
EndSplineSet
EndChar

StartChar: guillemotright
Encoding: 187 187 124
Width: 449
GlyphClass: 2
Flags: W
LayerCount: 2
Fore
SplineSet
185 125 m 1,0,-1
 312 283 l 1,1,-1
 225 426 l 1,2,-1
 243 439 l 1,3,4
 314 340 314 340 403 289 c 1,5,-1
 401 269 l 1,6,7
 312 220 312 220 203 111 c 1,8,-1
 185 125 l 1,0,-1
21 142 m 1,9,-1
 136 285 l 1,10,-1
 57 413 l 1,11,-1
 76 426 l 1,12,13
 134 346 134 346 227 291 c 1,14,-1
 225 271 l 1,15,16
 141 223 141 223 39 128 c 1,17,-1
 21 142 l 1,9,-1
EndSplineSet
EndChar

StartChar: onequarter
Encoding: 188 188 125
Width: 800
GlyphClass: 2
Flags: W
LayerCount: 2
Fore
SplineSet
99 -42 m 1,0,-1
 94 -41 l 1,1,2
 78 -27 78 -27 67 -1 c 1,3,4
 150 94 150 94 204 160 c 1,5,-1
 482 511 l 2,6,7
 547 593 547 593 628 704 c 1,8,9
 649 699 649 699 680 697 c 1,10,-1
 684 694 l 1,11,12
 649 654 649 654 535 510 c 2,13,-1
 99 -42 l 1,0,-1
670 119 m 1,14,15
 670 73 670 73 673 53 c 1,16,17
 689 34 689 34 719 20 c 1,18,-1
 714 4 l 1,19,20
 681 13 681 13 632 13 c 128,-1,21
 583 13 583 13 544 5 c 1,22,-1
 541 20 l 1,23,24
 569 34 569 34 597 42 c 1,25,26
 605 79 605 79 606 119 c 1,27,-1
 440 119 l 1,28,-1
 437 129 l 1,29,30
 542 250 542 250 615 399 c 1,31,32
 666 402 666 402 692 416 c 1,33,-1
 698 413 l 1,34,35
 674 355 674 355 671 159 c 1,36,37
 705 159 705 159 738 172 c 1,38,-1
 741 168 l 1,39,40
 733 148 733 148 729 115 c 1,41,42
 704 119 704 119 670 119 c 1,14,15
608 333 m 1,43,44
 567 232 567 232 518 166 c 1,45,46
 552 160 552 160 607 160 c 1,47,-1
 613 333 l 1,48,-1
 608 333 l 1,43,44
211 665 m 1,49,50
 196 550 196 550 196 448 c 128,-1,51
 196 346 196 346 199 311 c 1,52,53
 215 293 215 293 244 279 c 1,54,-1
 239 263 l 1,55,56
 206 272 206 272 157 272 c 128,-1,57
 108 272 108 272 69 264 c 1,58,-1
 66 279 l 1,59,60
 94 293 94 293 122 301 c 1,61,62
 134 385 134 385 134 520 c 0,63,64
 134 540 134 540 132 586 c 1,65,-1
 72 586 l 1,66,-1
 70 588 l 1,67,68
 70 599 70 599 72 605 c 1,69,70
 144 625 144 625 183 665 c 1,71,72
 197 667 197 667 209 667 c 1,73,-1
 211 665 l 1,49,50
EndSplineSet
EndChar

StartChar: onehalf
Encoding: 189 189 126
Width: 800
GlyphClass: 2
Flags: W
LayerCount: 2
Fore
SplineSet
592 350 m 0,0,1
 570 350 570 350 552 341 c 1,2,3
 547 321 547 321 547 310.5 c 128,-1,4
 547 300 547 300 555 292 c 1,5,-1
 554 287 l 1,6,7
 533 270 533 270 521 255 c 1,8,9
 512 255 512 255 505.5 261.5 c 128,-1,10
 499 268 499 268 499 277 c 0,11,12
 499 317 499 317 536 355 c 128,-1,13
 573 393 573 393 617 407 c 1,14,15
 666 407 666 407 689 373.5 c 128,-1,16
 712 340 712 340 712 290 c 0,17,18
 712 286 712 286 712 282 c 1,19,20
 689 241 689 241 625 175.5 c 128,-1,21
 561 110 561 110 541 81 c 1,22,23
 584 71 584 71 621 71 c 128,-1,24
 658 71 658 71 673 78 c 1,25,26
 691 116 691 116 702 131 c 1,27,-1
 713 125 l 1,28,29
 697 85 697 85 697 54.5 c 128,-1,30
 697 24 697 24 707 10 c 1,31,-1
 700 0 l 1,32,33
 626 21 626 21 524 21 c 0,34,35
 491 21 491 21 472 8 c 1,36,-1
 465 13 l 1,37,38
 490 78 490 78 571 162 c 0,39,40
 641 235 641 235 641 292.5 c 128,-1,41
 641 350 641 350 592 350 c 0,0,1
119 -42 m 1,42,-1
 114 -41 l 1,43,44
 98 -27 98 -27 87 -1 c 1,45,46
 170 94 170 94 224 160 c 1,47,-1
 502 511 l 2,48,49
 567 593 567 593 648 704 c 1,50,51
 669 699 669 699 700 697 c 1,52,-1
 704 694 l 1,53,54
 669 654 669 654 555 510 c 2,55,-1
 119 -42 l 1,42,-1
231 665 m 1,56,57
 216 550 216 550 216 448 c 128,-1,58
 216 346 216 346 219 311 c 1,59,60
 235 293 235 293 264 279 c 1,61,-1
 259 263 l 1,62,63
 226 272 226 272 177 272 c 128,-1,64
 128 272 128 272 89 264 c 1,65,-1
 86 279 l 1,66,67
 114 293 114 293 142 301 c 1,68,69
 154 385 154 385 154 520 c 0,70,71
 154 540 154 540 152 586 c 1,72,-1
 92 586 l 1,73,-1
 90 588 l 1,74,75
 90 599 90 599 92 605 c 1,76,77
 164 625 164 625 203 665 c 1,78,79
 217 667 217 667 229 667 c 1,80,-1
 231 665 l 1,56,57
EndSplineSet
EndChar

StartChar: threequarters
Encoding: 190 190 127
Width: 800
GlyphClass: 2
Flags: W
LayerCount: 2
Fore
SplineSet
109 -42 m 1,0,-1
 104 -41 l 1,1,2
 88 -27 88 -27 77 -1 c 1,3,4
 160 94 160 94 214 160 c 1,5,-1
 492 511 l 2,6,7
 557 593 557 593 638 704 c 1,8,9
 659 699 659 699 690 697 c 1,10,-1
 694 694 l 1,11,12
 659 654 659 654 545 510 c 2,13,-1
 109 -42 l 1,0,-1
680 119 m 1,14,15
 680 73 680 73 683 53 c 1,16,17
 699 34 699 34 729 20 c 1,18,-1
 724 4 l 1,19,20
 691 13 691 13 642 13 c 128,-1,21
 593 13 593 13 554 5 c 1,22,-1
 551 20 l 1,23,24
 579 34 579 34 607 42 c 1,25,26
 615 79 615 79 616 119 c 1,27,-1
 450 119 l 1,28,-1
 447 129 l 1,29,30
 552 250 552 250 625 399 c 1,31,32
 676 402 676 402 702 416 c 1,33,-1
 708 413 l 1,34,35
 684 355 684 355 681 159 c 1,36,37
 715 159 715 159 748 172 c 1,38,-1
 751 168 l 1,39,40
 743 148 743 148 739 115 c 1,41,42
 714 119 714 119 680 119 c 1,14,15
618 333 m 1,43,44
 577 232 577 232 528 166 c 1,45,46
 562 160 562 160 617 160 c 1,47,-1
 623 333 l 1,48,-1
 618 333 l 1,43,44
232 409 m 0,49,50
 232 485 232 485 153 485 c 0,51,52
 143 485 143 485 127 483 c 1,53,-1
 122 493 l 1,54,55
 152 507 152 507 179.5 533.5 c 128,-1,56
 207 560 207 560 223 589 c 1,57,58
 187 598 187 598 160.5 598 c 128,-1,59
 134 598 134 598 125 595 c 1,60,61
 106 562 106 562 97 551 c 1,62,-1
 86 555 l 1,63,64
 102 592 102 592 102 621 c 128,-1,65
 102 650 102 650 92 663 c 1,66,-1
 101 673 l 1,67,68
 139 648 139 648 227 648 c 0,69,70
 268 648 268 648 299 651 c 1,71,-1
 303 638 l 1,72,73
 258 565 258 565 195 517 c 1,74,-1
 195 514 l 1,75,76
 297 514 297 514 297 437 c 0,77,78
 297 394 297 394 252.5 338.5 c 128,-1,79
 208 283 208 283 164 261 c 1,80,81
 113 272 113 272 60 327 c 2,82,-1
 44 344 l 1,83,84
 85 374 85 374 105 413 c 1,85,-1
 117 408 l 1,86,87
 109 393 109 393 109 378 c 128,-1,88
 109 363 109 363 135 340 c 128,-1,89
 161 317 161 317 185 311 c 1,90,91
 205 325 205 325 218.5 354 c 128,-1,92
 232 383 232 383 232 409 c 0,49,50
EndSplineSet
EndChar

StartChar: questiondown
Encoding: 191 191 128
Width: 253
GlyphClass: 2
Flags: W
LayerCount: 2
Fore
SplineSet
69 38 m 128,-1,1
 31 -25 31 -25 31 -84 c 128,-1,2
 31 -143 31 -143 94 -143 c 0,3,4
 125 -143 125 -143 148 -132 c 1,5,6
 160 -115 160 -115 160 -95.5 c 128,-1,7
 160 -76 160 -76 153 -70 c 1,8,-1
 155 -63 l 1,9,10
 183 -45 183 -45 201 -23 c 1,11,12
 223 -23 223 -23 223 -45 c 0,13,14
 223 -101 223 -101 176 -142 c 128,-1,15
 129 -183 129 -183 63 -205 c 1,16,17
 -4 -205 -4 -205 -29 -172 c 128,-1,18
 -54 -139 -54 -139 -54 -66 c 1,19,20
 -27 -11 -27 -11 25 50 c 0,21,22
 41 69 41 69 46 74 c 0,23,24
 77 113 77 113 93 129 c 1,25,26
 97 143 97 143 111.5 199.5 c 128,-1,27
 126 256 126 256 135 288 c 1,28,-1
 161 290 l 1,29,-1
 160 153 l 1,30,0
 107 101 107 101 69 38 c 128,-1,1
207 430 m 1,31,32
 198 415 198 415 179.5 393 c 128,-1,33
 161 371 161 371 147 362 c 1,34,35
 123 379 123 379 99 430 c 1,36,37
 106 443 106 443 125 460 c 128,-1,38
 144 477 144 477 158 485 c 1,39,40
 183 469 183 469 207 430 c 1,31,32
EndSplineSet
EndChar

StartChar: Agrave
Encoding: 192 192 129
Width: 524
GlyphClass: 2
Flags: W
LayerCount: 2
Fore
SplineSet
343 226 m 1,0,1
 307 232 307 232 270.5 232 c 128,-1,2
 234 232 234 232 202 232 c 128,-1,3
 170 232 170 232 142 226 c 1,4,5
 116 128 116 128 116 61 c 0,6,7
 116 34 116 34 123 -1 c 1,8,9
 54 -1 54 -1 6 -15 c 1,10,-1
 -1 -7 l 1,11,-1
 221 621 l 1,12,13
 170 629 170 629 128 648 c 1,14,-1
 130 660 l 1,15,16
 193 651 193 651 295.5 651 c 128,-1,17
 398 651 398 651 441 659 c 1,18,-1
 447 654 l 1,19,20
 433 595 433 595 423 458 c 128,-1,21
 413 321 413 321 413 189.5 c 128,-1,22
 413 58 413 58 424 0 c 1,23,24
 362 -4 362 -4 322 -15 c 1,25,-1
 316 -10 l 1,26,27
 332 64 332 64 343 226 c 1,0,1
156 276 m 1,28,29
 182 269 182 269 247.5 269 c 128,-1,30
 313 269 313 269 346 277 c 1,31,32
 351 385 351 385 351 463.5 c 128,-1,33
 351 542 351 542 345 612 c 1,34,35
 333 615 333 615 313 615 c 128,-1,36
 293 615 293 615 278 612 c 1,37,38
 255 582 255 582 230 503 c 2,39,-1
 156 276 l 1,28,29
335 733 m 1,40,-1
 137 808 l 1,41,42
 137 817 137 817 143 835.5 c 128,-1,43
 149 854 149 854 155 862 c 1,44,45
 170 867 170 867 194 867 c 1,46,47
 216 836 216 836 259.5 803.5 c 128,-1,48
 303 771 303 771 344 751 c 1,49,-1
 335 733 l 1,40,-1
EndSplineSet
EndChar

StartChar: Aacute
Encoding: 193 193 130
Width: 524
GlyphClass: 2
Flags: W
LayerCount: 2
Fore
SplineSet
343 226 m 1,0,1
 307 232 307 232 270.5 232 c 128,-1,2
 234 232 234 232 202 232 c 128,-1,3
 170 232 170 232 142 226 c 1,4,5
 116 128 116 128 116 61 c 0,6,7
 116 34 116 34 123 -1 c 1,8,9
 54 -1 54 -1 6 -15 c 1,10,-1
 -1 -7 l 1,11,-1
 221 621 l 1,12,13
 170 629 170 629 128 648 c 1,14,-1
 130 660 l 1,15,16
 193 651 193 651 295.5 651 c 128,-1,17
 398 651 398 651 441 659 c 1,18,-1
 447 654 l 1,19,20
 433 595 433 595 423 458 c 128,-1,21
 413 321 413 321 413 189.5 c 128,-1,22
 413 58 413 58 424 0 c 1,23,24
 362 -4 362 -4 322 -15 c 1,25,-1
 316 -10 l 1,26,27
 332 64 332 64 343 226 c 1,0,1
156 276 m 1,28,29
 182 269 182 269 247.5 269 c 128,-1,30
 313 269 313 269 346 277 c 1,31,32
 351 385 351 385 351 463.5 c 128,-1,33
 351 542 351 542 345 612 c 1,34,35
 333 615 333 615 313 615 c 128,-1,36
 293 615 293 615 278 612 c 1,37,38
 255 582 255 582 230 503 c 2,39,-1
 156 276 l 1,28,29
500 808 m 1,40,-1
 302 733 l 1,41,-1
 293 751 l 1,42,43
 334 771 334 771 377.5 803.5 c 128,-1,44
 421 836 421 836 443 867 c 1,45,46
 467 867 467 867 482 862 c 1,47,48
 488 854 488 854 494 835.5 c 128,-1,49
 500 817 500 817 500 808 c 1,40,-1
EndSplineSet
EndChar

StartChar: Acircumflex
Encoding: 194 194 131
Width: 524
GlyphClass: 2
Flags: W
LayerCount: 2
Fore
SplineSet
343 226 m 1,0,1
 307 232 307 232 270.5 232 c 128,-1,2
 234 232 234 232 202 232 c 128,-1,3
 170 232 170 232 142 226 c 1,4,5
 116 128 116 128 116 61 c 0,6,7
 116 34 116 34 123 -1 c 1,8,9
 54 -1 54 -1 6 -15 c 1,10,-1
 -1 -7 l 1,11,-1
 221 621 l 1,12,13
 170 629 170 629 128 648 c 1,14,-1
 130 660 l 1,15,16
 193 651 193 651 295.5 651 c 128,-1,17
 398 651 398 651 441 659 c 1,18,-1
 447 654 l 1,19,20
 433 595 433 595 423 458 c 128,-1,21
 413 321 413 321 413 189.5 c 128,-1,22
 413 58 413 58 424 0 c 1,23,24
 362 -4 362 -4 322 -15 c 1,25,-1
 316 -10 l 1,26,27
 332 64 332 64 343 226 c 1,0,1
156 276 m 1,28,29
 182 269 182 269 247.5 269 c 128,-1,30
 313 269 313 269 346 277 c 1,31,32
 351 385 351 385 351 463.5 c 128,-1,33
 351 542 351 542 345 612 c 1,34,35
 333 615 333 615 313 615 c 128,-1,36
 293 615 293 615 278 612 c 1,37,38
 255 582 255 582 230 503 c 2,39,-1
 156 276 l 1,28,29
325 797 m 1,40,-1
 202 718 l 1,41,-1
 191 734 l 1,42,43
 287 806 287 806 333 885 c 1,44,-1
 355 885 l 1,45,46
 388 796 388 796 465 732 c 1,47,-1
 450 720 l 1,48,-1
 325 797 l 1,40,-1
EndSplineSet
EndChar

StartChar: Atilde
Encoding: 195 195 132
Width: 524
GlyphClass: 2
Flags: W
LayerCount: 2
Fore
SplineSet
343 226 m 1,0,1
 307 232 307 232 270.5 232 c 128,-1,2
 234 232 234 232 202 232 c 128,-1,3
 170 232 170 232 142 226 c 1,4,5
 116 128 116 128 116 61 c 0,6,7
 116 34 116 34 123 -1 c 1,8,9
 54 -1 54 -1 6 -15 c 1,10,-1
 -1 -7 l 1,11,-1
 221 621 l 1,12,13
 170 629 170 629 128 648 c 1,14,-1
 130 660 l 1,15,16
 193 651 193 651 295.5 651 c 128,-1,17
 398 651 398 651 441 659 c 1,18,-1
 447 654 l 1,19,20
 433 595 433 595 423 458 c 128,-1,21
 413 321 413 321 413 189.5 c 128,-1,22
 413 58 413 58 424 0 c 1,23,24
 362 -4 362 -4 322 -15 c 1,25,-1
 316 -10 l 1,26,27
 332 64 332 64 343 226 c 1,0,1
156 276 m 1,28,29
 182 269 182 269 247.5 269 c 128,-1,30
 313 269 313 269 346 277 c 1,31,32
 351 385 351 385 351 463.5 c 128,-1,33
 351 542 351 542 345 612 c 1,34,35
 333 615 333 615 313 615 c 128,-1,36
 293 615 293 615 278 612 c 1,37,38
 255 582 255 582 230 503 c 2,39,-1
 156 276 l 1,28,29
306 845 m 1,40,41
 357 812 357 812 401 812 c 128,-1,42
 445 812 445 812 468 836 c 1,43,-1
 484 824 l 1,44,45
 446 771 446 771 388 747 c 1,46,47
 370 747 370 747 324 763.5 c 128,-1,48
 278 780 278 780 260 780 c 0,49,50
 226 780 226 780 204 756 c 1,51,-1
 187 768 l 1,52,53
 225 820 225 820 306 845 c 1,40,41
EndSplineSet
EndChar

StartChar: Adieresis
Encoding: 196 196 133
Width: 524
GlyphClass: 2
Flags: W
LayerCount: 2
Fore
SplineSet
343 226 m 1,0,1
 307 232 307 232 270.5 232 c 128,-1,2
 234 232 234 232 202 232 c 128,-1,3
 170 232 170 232 142 226 c 1,4,5
 116 128 116 128 116 61 c 0,6,7
 116 34 116 34 123 -1 c 1,8,9
 54 -1 54 -1 6 -15 c 1,10,-1
 -1 -7 l 1,11,-1
 221 621 l 1,12,13
 170 629 170 629 128 648 c 1,14,-1
 130 660 l 1,15,16
 193 651 193 651 295.5 651 c 128,-1,17
 398 651 398 651 441 659 c 1,18,-1
 447 654 l 1,19,20
 433 595 433 595 423 458 c 128,-1,21
 413 321 413 321 413 189.5 c 128,-1,22
 413 58 413 58 424 0 c 1,23,24
 362 -4 362 -4 322 -15 c 1,25,-1
 316 -10 l 1,26,27
 332 64 332 64 343 226 c 1,0,1
156 276 m 1,28,29
 182 269 182 269 247.5 269 c 128,-1,30
 313 269 313 269 346 277 c 1,31,32
 351 385 351 385 351 463.5 c 128,-1,33
 351 542 351 542 345 612 c 1,34,35
 333 615 333 615 313 615 c 128,-1,36
 293 615 293 615 278 612 c 1,37,38
 255 582 255 582 230 503 c 2,39,-1
 156 276 l 1,28,29
465 803 m 1,40,41
 456 788 456 788 437.5 766 c 128,-1,42
 419 744 419 744 405 735 c 1,43,44
 381 752 381 752 357 803 c 1,45,46
 364 816 364 816 383 833 c 128,-1,47
 402 850 402 850 416 858 c 1,48,49
 441 842 441 842 465 803 c 1,40,41
300 803 m 1,50,51
 291 788 291 788 272.5 766 c 128,-1,52
 254 744 254 744 240 735 c 1,53,54
 216 752 216 752 192 803 c 1,55,56
 199 816 199 816 218 833 c 128,-1,57
 237 850 237 850 251 858 c 1,58,59
 276 842 276 842 300 803 c 1,50,51
EndSplineSet
EndChar

StartChar: Aring
Encoding: 197 197 134
Width: 524
GlyphClass: 2
Flags: W
LayerCount: 2
Fore
SplineSet
364 836.5 m 128,-1,1
 350 850 350 850 329 850 c 128,-1,2
 308 850 308 850 296 841 c 1,3,4
 279 821 279 821 279 788 c 0,5,6
 279 739 279 739 330 739 c 0,7,8
 350 739 350 739 361 748 c 1,9,10
 378 768 378 768 378 795.5 c 128,-1,0
 378 823 378 823 364 836.5 c 128,-1,1
254.5 720.5 m 128,-1,12
 229 737 229 737 229 773.5 c 128,-1,13
 229 810 229 810 262.5 840.5 c 128,-1,14
 296 871 296 871 345 885 c 1,15,16
 428 885 428 885 428 824 c 0,17,18
 428 780 428 780 396.5 749 c 128,-1,19
 365 718 365 718 318 704 c 1,20,11
 280 704 280 704 254.5 720.5 c 128,-1,12
343 226 m 1,21,22
 307 232 307 232 270.5 232 c 128,-1,23
 234 232 234 232 202 232 c 128,-1,24
 170 232 170 232 142 226 c 1,25,26
 116 128 116 128 116 61 c 0,27,28
 116 34 116 34 123 -1 c 1,29,30
 54 -1 54 -1 6 -15 c 1,31,-1
 -1 -7 l 1,32,-1
 221 621 l 1,33,34
 170 629 170 629 128 648 c 1,35,-1
 130 660 l 1,36,37
 193 651 193 651 295.5 651 c 128,-1,38
 398 651 398 651 441 659 c 1,39,-1
 447 654 l 1,40,41
 433 595 433 595 423 458 c 128,-1,42
 413 321 413 321 413 189.5 c 128,-1,43
 413 58 413 58 424 0 c 1,44,45
 362 -4 362 -4 322 -15 c 1,46,-1
 316 -10 l 1,47,48
 332 64 332 64 343 226 c 1,21,22
156 276 m 1,49,50
 182 269 182 269 247.5 269 c 128,-1,51
 313 269 313 269 346 277 c 1,52,53
 351 385 351 385 351 463.5 c 128,-1,54
 351 542 351 542 345 612 c 1,55,56
 333 615 333 615 313 615 c 128,-1,57
 293 615 293 615 278 612 c 1,58,59
 255 582 255 582 230 503 c 2,60,-1
 156 276 l 1,49,50
EndSplineSet
EndChar

StartChar: AE
Encoding: 198 198 135
Width: 656
GlyphClass: 2
Flags: W
LayerCount: 2
Fore
SplineSet
577 183 m 0,0,1
 577 194 577 194 574 207 c 1,2,-1
 579 212 l 1,3,4
 626 214 626 214 656 223 c 1,5,6
 643 157 643 157 584.5 85 c 128,-1,7
 526 13 526 13 465 -15 c 1,8,9
 371 -15 371 -15 342 70 c 0,10,11
 322 129 322 129 322 206 c 0,12,13
 322 228 322 228 323 252 c 2,14,-1
 326 323 l 1,15,16
 296 328 296 328 251.5 328 c 128,-1,17
 207 328 207 328 169 323 c 1,18,-1
 142 226 l 2,19,20
 116 133 116 133 116 61 c 0,21,22
 116 34 116 34 123 -1 c 1,23,24
 54 -1 54 -1 6 -15 c 1,25,-1
 -1 -7 l 1,26,-1
 221 621 l 1,27,28
 170 629 170 629 128 648 c 1,29,-1
 130 660 l 1,30,31
 193 651 193 651 383.5 651 c 128,-1,32
 574 651 574 651 657 663 c 1,33,-1
 663 652 l 1,34,35
 620 611 620 611 616 497 c 1,36,-1
 604 497 l 1,37,38
 589 545 589 545 585 593 c 1,39,40
 539 614 539 614 477 614 c 0,41,42
 448 614 448 614 420 609 c 1,43,44
 405 521 405 521 398 374 c 1,45,46
 423 368 423 368 475 368 c 128,-1,47
 527 368 527 368 578 385 c 1,48,-1
 583 379 l 1,49,50
 572 349 572 349 568 317 c 1,51,52
 498 327 498 327 453 327 c 128,-1,53
 408 327 408 327 395 324 c 1,54,-1
 394 273 l 1,55,56
 394 141 394 141 408 111 c 0,57,58
 429 66 429 66 458 56 c 0,59,60
 478 50 478 50 505 50 c 1,61,62
 534 68 534 68 555.5 108.5 c 128,-1,63
 577 149 577 149 577 183 c 0,0,1
333 477 m 2,64,65
 335 515 335 515 335 552.5 c 128,-1,66
 335 590 335 590 330 612 c 1,67,68
 318 615 318 615 302 615 c 128,-1,69
 286 615 286 615 271 612 c 1,70,71
 258 593 258 593 231 514.5 c 128,-1,72
 204 436 204 436 185 372 c 1,73,74
 213 365 213 365 256 365 c 128,-1,75
 299 365 299 365 328 372 c 1,76,-1
 333 477 l 2,64,65
EndSplineSet
EndChar

StartChar: Ccedilla
Encoding: 199 199 136
Width: 422
GlyphClass: 2
Flags: W
LayerCount: 2
Fore
SplineSet
38 234 m 0,0,1
 38 515 38 515 252 666 c 1,2,3
 297 651 297 651 352 651 c 128,-1,4
 407 651 407 651 426 656 c 1,5,-1
 432 645 l 1,6,7
 375 591 375 591 375 471 c 1,8,-1
 363 471 l 1,9,10
 348 519 348 519 344 567 c 1,11,-1
 319 578 l 2,12,13
 271 599 271 599 214 599 c 1,14,15
 171 533 171 533 145.5 444 c 128,-1,16
 120 355 120 355 120 262 c 128,-1,17
 120 169 120 169 153.5 109.5 c 128,-1,18
 187 50 187 50 273 50 c 1,19,20
 306 72 306 72 325.5 115.5 c 128,-1,21
 345 159 345 159 345 203 c 0,22,23
 345 214 345 214 342 227 c 1,24,-1
 347 232 l 1,25,26
 394 234 394 234 424 243 c 1,27,28
 404 160 404 160 353.5 89 c 128,-1,29
 303 18 303 18 233 -15 c 1,30,31
 137 -15 137 -15 87.5 55.5 c 128,-1,32
 38 126 38 126 38 234 c 0,0,1
308 -119 m 0,33,34
 308 -126 308 -126 307 -133 c 1,35,36
 267 -195 267 -195 206 -215 c 1,37,38
 162 -215 162 -215 122 -194 c 1,39,40
 136 -170 136 -170 142 -155 c 1,41,-1
 146 -153 l 1,42,43
 175 -178 175 -178 211 -178 c 0,44,45
 229 -178 229 -178 237 -173 c 1,46,47
 250 -158 250 -158 250 -135 c 128,-1,48
 250 -112 250 -112 229.5 -104.5 c 128,-1,49
 209 -97 209 -97 173 -97 c 1,50,-1
 167 -93 l 1,51,-1
 228 14 l 1,52,-1
 257 16 l 1,53,-1
 223 -46 l 1,54,-1
 226 -49 l 1,55,56
 267 -49 267 -49 287.5 -69.5 c 128,-1,57
 308 -90 308 -90 308 -119 c 0,33,34
EndSplineSet
EndChar

StartChar: Egrave
Encoding: 200 200 137
Width: 444
GlyphClass: 2
Flags: W
LayerCount: 2
Fore
SplineSet
371 560 m 1,0,1
 320 598 320 598 268 598 c 128,-1,2
 216 598 216 598 178 573 c 1,3,4
 167 554 167 554 167 524 c 0,5,6
 167 451 167 451 215 411 c 128,-1,7
 263 371 263 371 343 364 c 1,8,-1
 337 335 l 1,9,10
 242 335 242 335 183.5 298 c 128,-1,11
 125 261 125 261 125 180 c 0,12,13
 125 117 125 117 158 81.5 c 128,-1,14
 191 46 191 46 247 46 c 128,-1,15
 303 46 303 46 337 67 c 1,16,17
 349 91 349 91 349 117.5 c 128,-1,18
 349 144 349 144 339 155 c 1,19,-1
 340 162 l 1,20,21
 365 177 365 177 390 204 c 1,22,23
 402 203 402 203 409.5 194 c 128,-1,24
 417 185 417 185 417 173 c 0,25,26
 417 104 417 104 363 55 c 128,-1,27
 309 6 309 6 231 -15 c 1,28,29
 149 -15 149 -15 95.5 34 c 128,-1,30
 42 83 42 83 42 161 c 128,-1,31
 42 239 42 239 99.5 290 c 128,-1,32
 157 341 157 341 240 350 c 1,33,-1
 240 354 l 1,34,35
 174 364 174 364 128 405 c 128,-1,36
 82 446 82 446 82 506 c 1,37,38
 153 626 153 626 294 666 c 1,39,40
 373 666 373 666 426 643 c 1,41,42
 399 610 399 610 378 560 c 1,43,-1
 371 560 l 1,0,1
334 733 m 1,44,-1
 136 808 l 1,45,46
 136 817 136 817 142 835.5 c 128,-1,47
 148 854 148 854 154 862 c 1,48,49
 169 867 169 867 193 867 c 1,50,51
 215 836 215 836 258.5 803.5 c 128,-1,52
 302 771 302 771 343 751 c 1,53,-1
 334 733 l 1,44,-1
EndSplineSet
EndChar

StartChar: Eacute
Encoding: 201 201 138
Width: 444
GlyphClass: 2
Flags: W
LayerCount: 2
Fore
SplineSet
371 560 m 1,0,1
 320 598 320 598 268 598 c 128,-1,2
 216 598 216 598 178 573 c 1,3,4
 167 554 167 554 167 524 c 0,5,6
 167 451 167 451 215 411 c 128,-1,7
 263 371 263 371 343 364 c 1,8,-1
 337 335 l 1,9,10
 242 335 242 335 183.5 298 c 128,-1,11
 125 261 125 261 125 180 c 0,12,13
 125 117 125 117 158 81.5 c 128,-1,14
 191 46 191 46 247 46 c 128,-1,15
 303 46 303 46 337 67 c 1,16,17
 349 91 349 91 349 117.5 c 128,-1,18
 349 144 349 144 339 155 c 1,19,-1
 340 162 l 1,20,21
 365 177 365 177 390 204 c 1,22,23
 402 203 402 203 409.5 194 c 128,-1,24
 417 185 417 185 417 173 c 0,25,26
 417 104 417 104 363 55 c 128,-1,27
 309 6 309 6 231 -15 c 1,28,29
 149 -15 149 -15 95.5 34 c 128,-1,30
 42 83 42 83 42 161 c 128,-1,31
 42 239 42 239 99.5 290 c 128,-1,32
 157 341 157 341 240 350 c 1,33,-1
 240 354 l 1,34,35
 174 364 174 364 128 405 c 128,-1,36
 82 446 82 446 82 506 c 1,37,38
 153 626 153 626 294 666 c 1,39,40
 373 666 373 666 426 643 c 1,41,42
 399 610 399 610 378 560 c 1,43,-1
 371 560 l 1,0,1
461 808 m 1,44,-1
 263 733 l 1,45,-1
 254 751 l 1,46,47
 295 771 295 771 338.5 803.5 c 128,-1,48
 382 836 382 836 404 867 c 1,49,50
 428 867 428 867 443 862 c 1,51,52
 449 854 449 854 455 835.5 c 128,-1,53
 461 817 461 817 461 808 c 1,44,-1
EndSplineSet
EndChar

StartChar: Ecircumflex
Encoding: 202 202 139
Width: 444
GlyphClass: 2
Flags: W
LayerCount: 2
Fore
SplineSet
371 560 m 1,0,1
 320 598 320 598 268 598 c 128,-1,2
 216 598 216 598 178 573 c 1,3,4
 167 554 167 554 167 524 c 0,5,6
 167 451 167 451 215 411 c 128,-1,7
 263 371 263 371 343 364 c 1,8,-1
 337 335 l 1,9,10
 242 335 242 335 183.5 298 c 128,-1,11
 125 261 125 261 125 180 c 0,12,13
 125 117 125 117 158 81.5 c 128,-1,14
 191 46 191 46 247 46 c 128,-1,15
 303 46 303 46 337 67 c 1,16,17
 349 91 349 91 349 117.5 c 128,-1,18
 349 144 349 144 339 155 c 1,19,-1
 340 162 l 1,20,21
 365 177 365 177 390 204 c 1,22,23
 402 203 402 203 409.5 194 c 128,-1,24
 417 185 417 185 417 173 c 0,25,26
 417 104 417 104 363 55 c 128,-1,27
 309 6 309 6 231 -15 c 1,28,29
 149 -15 149 -15 95.5 34 c 128,-1,30
 42 83 42 83 42 161 c 128,-1,31
 42 239 42 239 99.5 290 c 128,-1,32
 157 341 157 341 240 350 c 1,33,-1
 240 354 l 1,34,35
 174 364 174 364 128 405 c 128,-1,36
 82 446 82 446 82 506 c 1,37,38
 153 626 153 626 294 666 c 1,39,40
 373 666 373 666 426 643 c 1,41,42
 399 610 399 610 378 560 c 1,43,-1
 371 560 l 1,0,1
301 797 m 1,44,-1
 178 718 l 1,45,-1
 167 734 l 1,46,47
 263 806 263 806 309 885 c 1,48,-1
 331 885 l 1,49,50
 364 796 364 796 441 732 c 1,51,-1
 426 720 l 1,52,-1
 301 797 l 1,44,-1
EndSplineSet
EndChar

StartChar: Edieresis
Encoding: 203 203 140
Width: 444
GlyphClass: 2
Flags: W
LayerCount: 2
Fore
SplineSet
371 560 m 1,0,1
 320 598 320 598 268 598 c 128,-1,2
 216 598 216 598 178 573 c 1,3,4
 167 554 167 554 167 524 c 0,5,6
 167 451 167 451 215 411 c 128,-1,7
 263 371 263 371 343 364 c 1,8,-1
 337 335 l 1,9,10
 242 335 242 335 183.5 298 c 128,-1,11
 125 261 125 261 125 180 c 0,12,13
 125 117 125 117 158 81.5 c 128,-1,14
 191 46 191 46 247 46 c 128,-1,15
 303 46 303 46 337 67 c 1,16,17
 349 91 349 91 349 117.5 c 128,-1,18
 349 144 349 144 339 155 c 1,19,-1
 340 162 l 1,20,21
 365 177 365 177 390 204 c 1,22,23
 402 203 402 203 409.5 194 c 128,-1,24
 417 185 417 185 417 173 c 0,25,26
 417 104 417 104 363 55 c 128,-1,27
 309 6 309 6 231 -15 c 1,28,29
 149 -15 149 -15 95.5 34 c 128,-1,30
 42 83 42 83 42 161 c 128,-1,31
 42 239 42 239 99.5 290 c 128,-1,32
 157 341 157 341 240 350 c 1,33,-1
 240 354 l 1,34,35
 174 364 174 364 128 405 c 128,-1,36
 82 446 82 446 82 506 c 1,37,38
 153 626 153 626 294 666 c 1,39,40
 373 666 373 666 426 643 c 1,41,42
 399 610 399 610 378 560 c 1,43,-1
 371 560 l 1,0,1
441 803 m 1,44,45
 432 788 432 788 413.5 766 c 128,-1,46
 395 744 395 744 381 735 c 1,47,48
 357 752 357 752 333 803 c 1,49,50
 340 816 340 816 359 833 c 128,-1,51
 378 850 378 850 392 858 c 1,52,53
 417 842 417 842 441 803 c 1,44,45
276 803 m 1,54,55
 267 788 267 788 248.5 766 c 128,-1,56
 230 744 230 744 216 735 c 1,57,58
 192 752 192 752 168 803 c 1,59,60
 175 816 175 816 194 833 c 128,-1,61
 213 850 213 850 227 858 c 1,62,63
 252 842 252 842 276 803 c 1,54,55
EndSplineSet
EndChar

StartChar: Igrave
Encoding: 204 204 141
Width: 292
GlyphClass: 2
Flags: W
LayerCount: 2
Fore
SplineSet
182.5 447 m 128,-1,1
 173 307 173 307 173 179 c 128,-1,2
 173 51 173 51 184 0 c 1,3,4
 128 -3 128 -3 82 -15 c 1,5,-1
 76 -10 l 1,6,7
 90 49 90 49 100.5 190 c 128,-1,8
 111 331 111 331 111 448.5 c 128,-1,9
 111 566 111 566 103 620 c 1,10,11
 45 625 45 625 7 639 c 1,12,-1
 8 651 l 1,13,14
 128 651 128 651 202 664 c 1,15,-1
 208 659 l 1,16,0
 192 587 192 587 182.5 447 c 128,-1,1
206 733 m 1,17,-1
 8 808 l 1,18,19
 8 817 8 817 14 835.5 c 128,-1,20
 20 854 20 854 26 862 c 1,21,22
 41 867 41 867 65 867 c 1,23,24
 87 836 87 836 130.5 803.5 c 128,-1,25
 174 771 174 771 215 751 c 1,26,-1
 206 733 l 1,17,-1
EndSplineSet
EndChar

StartChar: Iacute
Encoding: 205 205 142
Width: 292
GlyphClass: 2
Flags: W
LayerCount: 2
Fore
SplineSet
182.5 447 m 128,-1,1
 173 307 173 307 173 179 c 128,-1,2
 173 51 173 51 184 0 c 1,3,4
 128 -3 128 -3 82 -15 c 1,5,-1
 76 -10 l 1,6,7
 90 49 90 49 100.5 190 c 128,-1,8
 111 331 111 331 111 448.5 c 128,-1,9
 111 566 111 566 103 620 c 1,10,11
 45 625 45 625 7 639 c 1,12,-1
 8 651 l 1,13,14
 128 651 128 651 202 664 c 1,15,-1
 208 659 l 1,16,0
 192 587 192 587 182.5 447 c 128,-1,1
277 808 m 1,17,-1
 79 733 l 1,18,-1
 70 751 l 1,19,20
 111 771 111 771 154.5 803.5 c 128,-1,21
 198 836 198 836 220 867 c 1,22,23
 244 867 244 867 259 862 c 1,24,25
 265 854 265 854 271 835.5 c 128,-1,26
 277 817 277 817 277 808 c 1,17,-1
EndSplineSet
EndChar

StartChar: Icircumflex
Encoding: 206 206 143
Width: 292
GlyphClass: 2
Flags: W
LayerCount: 2
Fore
SplineSet
182.5 447 m 128,-1,1
 173 307 173 307 173 179 c 128,-1,2
 173 51 173 51 184 0 c 1,3,4
 128 -3 128 -3 82 -15 c 1,5,-1
 76 -10 l 1,6,7
 90 49 90 49 100.5 190 c 128,-1,8
 111 331 111 331 111 448.5 c 128,-1,9
 111 566 111 566 103 620 c 1,10,11
 45 625 45 625 7 639 c 1,12,-1
 8 651 l 1,13,14
 128 651 128 651 202 664 c 1,15,-1
 208 659 l 1,16,0
 192 587 192 587 182.5 447 c 128,-1,1
127 797 m 1,17,-1
 4 718 l 1,18,-1
 -7 734 l 1,19,20
 89 806 89 806 135 885 c 1,21,-1
 157 885 l 1,22,23
 190 796 190 796 267 732 c 1,24,-1
 252 720 l 1,25,-1
 127 797 l 1,17,-1
EndSplineSet
EndChar

StartChar: Idieresis
Encoding: 207 207 144
Width: 292
GlyphClass: 2
Flags: W
LayerCount: 2
Fore
SplineSet
274 803 m 1,0,1
 265 788 265 788 246.5 766 c 128,-1,2
 228 744 228 744 214 735 c 1,3,4
 190 752 190 752 166 803 c 1,5,6
 173 816 173 816 192 833 c 128,-1,7
 211 850 211 850 225 858 c 1,8,9
 250 842 250 842 274 803 c 1,0,1
109 803 m 1,10,11
 100 788 100 788 81.5 766 c 128,-1,12
 63 744 63 744 49 735 c 1,13,14
 25 752 25 752 1 803 c 1,15,16
 8 816 8 816 27 833 c 128,-1,17
 46 850 46 850 60 858 c 1,18,19
 85 842 85 842 109 803 c 1,10,11
182.5 447 m 128,-1,21
 173 307 173 307 173 179 c 128,-1,22
 173 51 173 51 184 0 c 1,23,24
 128 -3 128 -3 82 -15 c 1,25,-1
 76 -10 l 1,26,27
 90 49 90 49 100.5 190 c 128,-1,28
 111 331 111 331 111 448.5 c 128,-1,29
 111 566 111 566 103 620 c 1,30,31
 45 625 45 625 7 639 c 1,32,-1
 8 651 l 1,33,34
 128 651 128 651 202 664 c 1,35,-1
 208 659 l 1,36,20
 192 587 192 587 182.5 447 c 128,-1,21
EndSplineSet
EndChar

StartChar: Eth
Encoding: 208 208 145
Width: 529
GlyphClass: 2
Flags: W
LayerCount: 2
Fore
SplineSet
278 662 m 0,0,1
 394 662 394 662 442.5 590.5 c 128,-1,2
 491 519 491 519 491 375.5 c 128,-1,3
 491 232 491 232 428 126.5 c 128,-1,4
 365 21 365 21 230 -15 c 1,5,-1
 205 -7 l 2,6,7
 148 11 148 11 120 11 c 128,-1,8
 92 11 92 11 72 7 c 1,9,-1
 66 20 l 1,10,11
 86 41 86 41 93 99 c 0,12,13
 103 195 103 195 108 324 c 1,14,15
 52 321 52 321 9 315 c 1,16,-1
 6 319 l 1,17,18
 25 338 25 338 34 351 c 1,19,-1
 109 353 l 1,20,21
 111 427 111 427 111 496.5 c 128,-1,22
 111 566 111 566 103 620 c 1,23,24
 45 625 45 625 7 639 c 1,25,-1
 8 651 l 1,26,27
 68 651 68 651 158 656.5 c 128,-1,28
 248 662 248 662 278 662 c 0,0,1
257 52 m 0,29,30
 319 52 319 52 355 85 c 1,31,32
 382 132 382 132 397 202 c 128,-1,33
 412 272 412 272 412 334 c 0,34,35
 412 625 412 625 265 625 c 0,36,37
 231 625 231 625 200 614 c 1,38,39
 186 527 186 527 177 356 c 1,40,-1
 218 358 l 2,41,42
 281 361 281 361 302 363 c 1,43,-1
 305 359 l 1,44,45
 295 344 295 344 290 327 c 1,46,-1
 176 325 l 1,47,48
 173 253 173 253 173 189.5 c 128,-1,49
 173 126 173 126 177 70 c 1,50,51
 220 52 220 52 257 52 c 0,29,30
EndSplineSet
EndChar

StartChar: Ntilde
Encoding: 209 209 146
Width: 612
GlyphClass: 2
Flags: W
LayerCount: 2
Fore
SplineSet
506 466.5 m 128,-1,1
 495 333 495 333 495 210.5 c 128,-1,2
 495 88 495 88 510 0 c 1,3,4
 466 -4 466 -4 435 -13 c 1,5,-1
 428 -10 l 1,6,7
 395 94 395 94 219 420 c 0,8,9
 192 471 192 471 163 515 c 1,10,-1
 159 513 l 1,11,12
 159 334 159 334 168 185 c 128,-1,13
 177 36 177 36 185 0 c 1,14,15
 133 -3 133 -3 86 -15 c 1,16,-1
 80 -10 l 1,17,18
 94 49 94 49 104 188.5 c 128,-1,19
 114 328 114 328 114 442 c 128,-1,20
 114 556 114 556 103 620 c 1,21,22
 45 625 45 625 7 639 c 1,23,-1
 8 651 l 1,24,25
 125 651 125 651 199 664 c 1,26,27
 224 556 224 556 405 229 c 1,28,-1
 449 149 l 1,29,-1
 452 150 l 1,30,31
 452 328 452 328 443 471 c 128,-1,32
 434 614 434 614 426 651 c 1,33,34
 480 654 480 654 525 666 c 1,35,-1
 531 661 l 1,36,0
 517 600 517 600 506 466.5 c 128,-1,1
315 845 m 1,37,38
 366 812 366 812 410 812 c 128,-1,39
 454 812 454 812 477 836 c 1,40,-1
 493 824 l 1,41,42
 455 771 455 771 397 747 c 1,43,44
 380 747 380 747 333 763.5 c 128,-1,45
 286 780 286 780 269 780 c 0,46,47
 236 780 236 780 213 756 c 1,48,-1
 196 768 l 1,49,50
 234 820 234 820 315 845 c 1,37,38
EndSplineSet
EndChar

StartChar: Ograve
Encoding: 210 210 147
Width: 514
GlyphClass: 2
Flags: W
LayerCount: 2
Fore
SplineSet
394 396 m 0,0,1
 394 596 394 596 265 596 c 0,2,3
 227 596 227 596 200 580 c 1,4,5
 162 512 162 512 141 424.5 c 128,-1,6
 120 337 120 337 120 271 c 128,-1,7
 120 205 120 205 132 161.5 c 128,-1,8
 144 118 144 118 174.5 86 c 128,-1,9
 205 54 205 54 245 54 c 128,-1,10
 285 54 285 54 312 71 c 1,11,12
 350 125 350 125 372 221 c 128,-1,13
 394 317 394 317 394 396 c 0,0,1
88 57.5 m 128,-1,15
 38 130 38 130 38 228.5 c 128,-1,16
 38 327 38 327 64.5 411 c 128,-1,17
 91 495 91 495 147.5 564.5 c 128,-1,18
 204 634 204 634 282 666 c 1,19,20
 476 666 476 666 476 413 c 0,21,22
 476 277 476 277 411.5 154.5 c 128,-1,23
 347 32 347 32 233 -15 c 1,24,14
 138 -15 138 -15 88 57.5 c 128,-1,15
326 733 m 1,25,-1
 128 808 l 1,26,27
 128 817 128 817 134 835.5 c 128,-1,28
 140 854 140 854 146 862 c 1,29,30
 161 867 161 867 185 867 c 1,31,32
 207 836 207 836 250.5 803.5 c 128,-1,33
 294 771 294 771 335 751 c 1,34,-1
 326 733 l 1,25,-1
EndSplineSet
EndChar

StartChar: Oacute
Encoding: 211 211 148
Width: 514
GlyphClass: 2
Flags: W
LayerCount: 2
Fore
SplineSet
394 396 m 0,0,1
 394 596 394 596 265 596 c 0,2,3
 227 596 227 596 200 580 c 1,4,5
 162 512 162 512 141 424.5 c 128,-1,6
 120 337 120 337 120 271 c 128,-1,7
 120 205 120 205 132 161.5 c 128,-1,8
 144 118 144 118 174.5 86 c 128,-1,9
 205 54 205 54 245 54 c 128,-1,10
 285 54 285 54 312 71 c 1,11,12
 350 125 350 125 372 221 c 128,-1,13
 394 317 394 317 394 396 c 0,0,1
88 57.5 m 128,-1,15
 38 130 38 130 38 228.5 c 128,-1,16
 38 327 38 327 64.5 411 c 128,-1,17
 91 495 91 495 147.5 564.5 c 128,-1,18
 204 634 204 634 282 666 c 1,19,20
 476 666 476 666 476 413 c 0,21,22
 476 277 476 277 411.5 154.5 c 128,-1,23
 347 32 347 32 233 -15 c 1,24,14
 138 -15 138 -15 88 57.5 c 128,-1,15
454 808 m 1,25,-1
 256 733 l 1,26,-1
 247 751 l 1,27,28
 288 771 288 771 331.5 803.5 c 128,-1,29
 375 836 375 836 397 867 c 1,30,31
 421 867 421 867 436 862 c 1,32,33
 442 854 442 854 448 835.5 c 128,-1,34
 454 817 454 817 454 808 c 1,25,-1
EndSplineSet
EndChar

StartChar: Ocircumflex
Encoding: 212 212 149
Width: 514
GlyphClass: 2
Flags: W
LayerCount: 2
Fore
SplineSet
394 396 m 0,0,1
 394 596 394 596 265 596 c 0,2,3
 227 596 227 596 200 580 c 1,4,5
 162 512 162 512 141 424.5 c 128,-1,6
 120 337 120 337 120 271 c 128,-1,7
 120 205 120 205 132 161.5 c 128,-1,8
 144 118 144 118 174.5 86 c 128,-1,9
 205 54 205 54 245 54 c 128,-1,10
 285 54 285 54 312 71 c 1,11,12
 350 125 350 125 372 221 c 128,-1,13
 394 317 394 317 394 396 c 0,0,1
88 57.5 m 128,-1,15
 38 130 38 130 38 228.5 c 128,-1,16
 38 327 38 327 64.5 411 c 128,-1,17
 91 495 91 495 147.5 564.5 c 128,-1,18
 204 634 204 634 282 666 c 1,19,20
 476 666 476 666 476 413 c 0,21,22
 476 277 476 277 411.5 154.5 c 128,-1,23
 347 32 347 32 233 -15 c 1,24,14
 138 -15 138 -15 88 57.5 c 128,-1,15
291 797 m 1,25,-1
 168 718 l 1,26,-1
 157 734 l 1,27,28
 253 806 253 806 299 885 c 1,29,-1
 321 885 l 1,30,31
 354 796 354 796 431 732 c 1,32,-1
 416 720 l 1,33,-1
 291 797 l 1,25,-1
EndSplineSet
EndChar

StartChar: Otilde
Encoding: 213 213 150
Width: 514
GlyphClass: 2
Flags: W
LayerCount: 2
Fore
SplineSet
394 396 m 0,0,1
 394 596 394 596 265 596 c 0,2,3
 227 596 227 596 200 580 c 1,4,5
 162 512 162 512 141 424.5 c 128,-1,6
 120 337 120 337 120 271 c 128,-1,7
 120 205 120 205 132 161.5 c 128,-1,8
 144 118 144 118 174.5 86 c 128,-1,9
 205 54 205 54 245 54 c 128,-1,10
 285 54 285 54 312 71 c 1,11,12
 350 125 350 125 372 221 c 128,-1,13
 394 317 394 317 394 396 c 0,0,1
88 57.5 m 128,-1,15
 38 130 38 130 38 228.5 c 128,-1,16
 38 327 38 327 64.5 411 c 128,-1,17
 91 495 91 495 147.5 564.5 c 128,-1,18
 204 634 204 634 282 666 c 1,19,20
 476 666 476 666 476 413 c 0,21,22
 476 277 476 277 411.5 154.5 c 128,-1,23
 347 32 347 32 233 -15 c 1,24,14
 138 -15 138 -15 88 57.5 c 128,-1,15
286 845 m 1,25,26
 337 812 337 812 381 812 c 128,-1,27
 425 812 425 812 448 836 c 1,28,-1
 464 824 l 1,29,30
 426 771 426 771 368 747 c 1,31,32
 350 747 350 747 304 763.5 c 128,-1,33
 258 780 258 780 240 780 c 0,34,35
 206 780 206 780 184 756 c 1,36,-1
 167 768 l 1,37,38
 205 820 205 820 286 845 c 1,25,26
EndSplineSet
EndChar

StartChar: Odieresis
Encoding: 214 214 151
Width: 514
GlyphClass: 2
Flags: W
LayerCount: 2
Fore
SplineSet
394 396 m 0,0,1
 394 596 394 596 265 596 c 0,2,3
 227 596 227 596 200 580 c 1,4,5
 162 512 162 512 141 424.5 c 128,-1,6
 120 337 120 337 120 271 c 128,-1,7
 120 205 120 205 132 161.5 c 128,-1,8
 144 118 144 118 174.5 86 c 128,-1,9
 205 54 205 54 245 54 c 128,-1,10
 285 54 285 54 312 71 c 1,11,12
 350 125 350 125 372 221 c 128,-1,13
 394 317 394 317 394 396 c 0,0,1
88 57.5 m 128,-1,15
 38 130 38 130 38 228.5 c 128,-1,16
 38 327 38 327 64.5 411 c 128,-1,17
 91 495 91 495 147.5 564.5 c 128,-1,18
 204 634 204 634 282 666 c 1,19,20
 476 666 476 666 476 413 c 0,21,22
 476 277 476 277 411.5 154.5 c 128,-1,23
 347 32 347 32 233 -15 c 1,24,14
 138 -15 138 -15 88 57.5 c 128,-1,15
452 803 m 1,25,26
 443 788 443 788 424.5 766 c 128,-1,27
 406 744 406 744 392 735 c 1,28,29
 368 752 368 752 344 803 c 1,30,31
 351 816 351 816 370 833 c 128,-1,32
 389 850 389 850 403 858 c 1,33,34
 428 842 428 842 452 803 c 1,25,26
287 803 m 1,35,36
 278 788 278 788 259.5 766 c 128,-1,37
 241 744 241 744 227 735 c 1,38,39
 203 752 203 752 179 803 c 1,40,41
 186 816 186 816 205 833 c 128,-1,42
 224 850 224 850 238 858 c 1,43,44
 263 842 263 842 287 803 c 1,35,36
EndSplineSet
EndChar

StartChar: multiply
Encoding: 215 215 152
Width: 550
GlyphClass: 2
Flags: W
LayerCount: 2
Fore
SplineSet
427 425 m 1,0,-1
 465 390 l 1,1,-1
 311 239 l 1,2,3
 348 201 348 201 405.5 150 c 128,-1,4
 463 99 463 99 475 89 c 1,5,-1
 447 50 l 1,6,-1
 436 50 l 1,7,-1
 278 205 l 1,8,-1
 120 50 l 1,9,-1
 109 50 l 1,10,-1
 81 89 l 1,11,12
 211 205 211 205 244 239 c 1,13,-1
 91 390 l 1,14,-1
 129 425 l 1,15,-1
 137 424 l 1,16,17
 180 376 180 376 278 273 c 1,18,-1
 419 424 l 1,19,-1
 427 425 l 1,0,-1
EndSplineSet
EndChar

StartChar: Oslash
Encoding: 216 216 153
Width: 514
GlyphClass: 2
Flags: W
LayerCount: 2
Fore
SplineSet
38 238 m 0,0,1
 38 430 38 430 148 564 c 1,2,3
 204 634 204 634 282 666 c 1,4,5
 320 666 320 666 353 655 c 1,6,-1
 378 732 l 1,7,8
 401 734 401 734 416 739 c 1,9,-1
 420 736 l 1,10,11
 417 729 417 729 382 642 c 1,12,13
 476 589 476 589 476 413 c 0,14,15
 476 277 476 277 411.5 154.5 c 128,-1,16
 347 32 347 32 233 -15 c 1,17,18
 182 -15 182 -15 140 9 c 1,19,-1
 105 -87 l 1,20,-1
 100 -87 l 1,21,22
 84 -78 84 -78 74 -63 c 1,23,-1
 114 28 l 1,24,25
 38 97 38 97 38 238 c 0,0,1
394 396 m 0,26,27
 394 510 394 510 350 559 c 1,28,-1
 170 89 l 1,29,30
 202 54 202 54 243.5 54 c 128,-1,31
 285 54 285 54 312 71 c 1,32,33
 350 125 350 125 372 221 c 128,-1,34
 394 317 394 317 394 396 c 0,26,27
141 424.5 m 128,-1,36
 120 337 120 337 120 255.5 c 128,-1,37
 120 174 120 174 150 118 c 1,38,-1
 327 579 l 1,39,40
 301 596 301 596 264 596 c 128,-1,41
 227 596 227 596 200 580 c 1,42,35
 162 512 162 512 141 424.5 c 128,-1,36
EndSplineSet
EndChar

StartChar: Ugrave
Encoding: 217 217 154
Width: 594
GlyphClass: 2
Flags: W
LayerCount: 2
Fore
SplineSet
96 205 m 1,0,1
 96 205 96 205 107 457 c 1,2,3
 107 566 107 566 99 620 c 1,4,5
 46 625 46 625 7 639 c 1,6,-1
 8 651 l 1,7,8
 128 651 128 651 202 664 c 1,9,-1
 208 659 l 1,10,11
 193 594 193 594 182.5 481.5 c 128,-1,12
 172 369 172 369 172 304.5 c 128,-1,13
 172 240 172 240 172.5 222.5 c 128,-1,14
 173 205 173 205 175.5 178 c 128,-1,15
 178 151 178 151 184.5 135 c 128,-1,16
 191 119 191 119 201 101 c 0,17,18
 220 67 220 67 268 59 c 1,19,20
 343 109 343 109 404 208 c 1,21,22
 413 340 413 340 413 469 c 128,-1,23
 413 598 413 598 402 649 c 1,24,25
 458 652 458 652 504 664 c 1,26,-1
 510 659 l 1,27,28
 494 587 494 587 484.5 447 c 128,-1,29
 475 307 475 307 475 179 c 128,-1,30
 475 51 475 51 486 0 c 1,31,32
 430 -3 430 -3 384 -15 c 1,33,-1
 378 -10 l 1,34,35
 389 42 389 42 399 146 c 1,36,-1
 396 147 l 1,37,38
 333 36 333 36 243 -15 c 1,39,40
 160 -7 160 -7 128 49.5 c 128,-1,41
 96 106 96 106 96 205 c 1,0,1
322 733 m 1,42,-1
 124 808 l 1,43,44
 124 817 124 817 130 835.5 c 128,-1,45
 136 854 136 854 142 862 c 1,46,47
 157 867 157 867 181 867 c 1,48,49
 203 836 203 836 246.5 803.5 c 128,-1,50
 290 771 290 771 331 751 c 1,51,-1
 322 733 l 1,42,-1
EndSplineSet
EndChar

StartChar: Uacute
Encoding: 218 218 155
Width: 594
GlyphClass: 2
Flags: W
LayerCount: 2
Fore
SplineSet
96 205 m 1,0,1
 96 205 96 205 107 457 c 1,2,3
 107 566 107 566 99 620 c 1,4,5
 46 625 46 625 7 639 c 1,6,-1
 8 651 l 1,7,8
 128 651 128 651 202 664 c 1,9,-1
 208 659 l 1,10,11
 193 594 193 594 182.5 481.5 c 128,-1,12
 172 369 172 369 172 304.5 c 128,-1,13
 172 240 172 240 172.5 222.5 c 128,-1,14
 173 205 173 205 175.5 178 c 128,-1,15
 178 151 178 151 184.5 135 c 128,-1,16
 191 119 191 119 201 101 c 0,17,18
 220 67 220 67 268 59 c 1,19,20
 343 109 343 109 404 208 c 1,21,22
 413 340 413 340 413 469 c 128,-1,23
 413 598 413 598 402 649 c 1,24,25
 458 652 458 652 504 664 c 1,26,-1
 510 659 l 1,27,28
 494 587 494 587 484.5 447 c 128,-1,29
 475 307 475 307 475 179 c 128,-1,30
 475 51 475 51 486 0 c 1,31,32
 430 -3 430 -3 384 -15 c 1,33,-1
 378 -10 l 1,34,35
 389 42 389 42 399 146 c 1,36,-1
 396 147 l 1,37,38
 333 36 333 36 243 -15 c 1,39,40
 160 -7 160 -7 128 49.5 c 128,-1,41
 96 106 96 106 96 205 c 1,0,1
491 808 m 1,42,-1
 293 733 l 1,43,-1
 284 751 l 1,44,45
 325 771 325 771 368.5 803.5 c 128,-1,46
 412 836 412 836 434 867 c 1,47,48
 458 867 458 867 473 862 c 1,49,50
 479 854 479 854 485 835.5 c 128,-1,51
 491 817 491 817 491 808 c 1,42,-1
EndSplineSet
EndChar

StartChar: Ucircumflex
Encoding: 219 219 156
Width: 594
GlyphClass: 2
Flags: W
LayerCount: 2
Fore
SplineSet
96 205 m 1,0,1
 96 205 96 205 107 457 c 1,2,3
 107 566 107 566 99 620 c 1,4,5
 46 625 46 625 7 639 c 1,6,-1
 8 651 l 1,7,8
 128 651 128 651 202 664 c 1,9,-1
 208 659 l 1,10,11
 193 594 193 594 182.5 481.5 c 128,-1,12
 172 369 172 369 172 304.5 c 128,-1,13
 172 240 172 240 172.5 222.5 c 128,-1,14
 173 205 173 205 175.5 178 c 128,-1,15
 178 151 178 151 184.5 135 c 128,-1,16
 191 119 191 119 201 101 c 0,17,18
 220 67 220 67 268 59 c 1,19,20
 343 109 343 109 404 208 c 1,21,22
 413 340 413 340 413 469 c 128,-1,23
 413 598 413 598 402 649 c 1,24,25
 458 652 458 652 504 664 c 1,26,-1
 510 659 l 1,27,28
 494 587 494 587 484.5 447 c 128,-1,29
 475 307 475 307 475 179 c 128,-1,30
 475 51 475 51 486 0 c 1,31,32
 430 -3 430 -3 384 -15 c 1,33,-1
 378 -10 l 1,34,35
 389 42 389 42 399 146 c 1,36,-1
 396 147 l 1,37,38
 333 36 333 36 243 -15 c 1,39,40
 160 -7 160 -7 128 49.5 c 128,-1,41
 96 106 96 106 96 205 c 1,0,1
300 797 m 1,42,-1
 177 718 l 1,43,-1
 166 734 l 1,44,45
 262 806 262 806 308 885 c 1,46,-1
 330 885 l 1,47,48
 363 796 363 796 440 732 c 1,49,-1
 425 720 l 1,50,-1
 300 797 l 1,42,-1
EndSplineSet
EndChar

StartChar: Udieresis
Encoding: 220 220 157
Width: 594
GlyphClass: 2
Flags: W
LayerCount: 2
Fore
SplineSet
96 205 m 1,0,1
 96 205 96 205 107 457 c 1,2,3
 107 566 107 566 99 620 c 1,4,5
 46 625 46 625 7 639 c 1,6,-1
 8 651 l 1,7,8
 128 651 128 651 202 664 c 1,9,-1
 208 659 l 1,10,11
 193 594 193 594 182.5 481.5 c 128,-1,12
 172 369 172 369 172 304.5 c 128,-1,13
 172 240 172 240 172.5 222.5 c 128,-1,14
 173 205 173 205 175.5 178 c 128,-1,15
 178 151 178 151 184.5 135 c 128,-1,16
 191 119 191 119 201 101 c 0,17,18
 220 67 220 67 268 59 c 1,19,20
 343 109 343 109 404 208 c 1,21,22
 413 340 413 340 413 469 c 128,-1,23
 413 598 413 598 402 649 c 1,24,25
 458 652 458 652 504 664 c 1,26,-1
 510 659 l 1,27,28
 494 587 494 587 484.5 447 c 128,-1,29
 475 307 475 307 475 179 c 128,-1,30
 475 51 475 51 486 0 c 1,31,32
 430 -3 430 -3 384 -15 c 1,33,-1
 378 -10 l 1,34,35
 389 42 389 42 399 146 c 1,36,-1
 396 147 l 1,37,38
 333 36 333 36 243 -15 c 1,39,40
 160 -7 160 -7 128 49.5 c 128,-1,41
 96 106 96 106 96 205 c 1,0,1
446 803 m 1,42,43
 437 788 437 788 418.5 766 c 128,-1,44
 400 744 400 744 386 735 c 1,45,46
 362 752 362 752 338 803 c 1,47,48
 345 816 345 816 364 833 c 128,-1,49
 383 850 383 850 397 858 c 1,50,51
 422 842 422 842 446 803 c 1,42,43
281 803 m 1,52,53
 272 788 272 788 253.5 766 c 128,-1,54
 235 744 235 744 221 735 c 1,55,56
 197 752 197 752 173 803 c 1,57,58
 180 816 180 816 199 833 c 128,-1,59
 218 850 218 850 232 858 c 1,60,61
 257 842 257 842 281 803 c 1,52,53
EndSplineSet
EndChar

StartChar: Yacute
Encoding: 221 221 158
Width: 489
GlyphClass: 2
Flags: W
LayerCount: 2
Fore
SplineSet
285 314 m 1,0,1
 283 269 283 269 283 160 c 128,-1,2
 283 51 283 51 294 0 c 1,3,4
 238 -3 238 -3 192 -15 c 1,5,-1
 186 -10 l 1,6,7
 207 80 207 80 217 294 c 1,8,9
 205 322 205 322 161 419 c 1,10,11
 84 582 84 582 59 622 c 1,12,13
 -2 628 -2 628 -37 642 c 1,14,-1
 -36 654 l 1,15,16
 -21 654 -21 654 -6 654 c 0,17,18
 95 654 95 654 162 666 c 1,19,20
 189 548 189 548 273 352 c 1,21,-1
 323 435 l 1,22,23
 387 544 387 544 387 614 c 0,24,25
 387 633 387 633 380 648 c 1,26,-1
 384 653 l 1,27,28
 445 655 445 655 488 667 c 1,29,30
 478 615 478 615 442 546.5 c 128,-1,31
 406 478 406 478 380 442 c 0,32,33
 317 353 317 353 285 314 c 1,0,1
472 808 m 1,34,-1
 274 733 l 1,35,-1
 265 751 l 1,36,37
 306 771 306 771 349.5 803.5 c 128,-1,38
 393 836 393 836 415 867 c 1,39,40
 439 867 439 867 454 862 c 1,41,42
 460 854 460 854 466 835.5 c 128,-1,43
 472 817 472 817 472 808 c 1,34,-1
EndSplineSet
EndChar

StartChar: Thorn
Encoding: 222 222 159
Width: 455
GlyphClass: 2
Flags: W
LayerCount: 2
Fore
SplineSet
272 521 m 0,0,1
 355 521 355 521 398 487.5 c 128,-1,2
 441 454 441 454 441 367.5 c 128,-1,3
 441 281 441 281 374.5 226 c 128,-1,4
 308 171 308 171 209 171 c 1,5,-1
 212 201 l 1,6,7
 357 201 357 201 357 342.5 c 128,-1,8
 357 484 357 484 255 484 c 0,9,10
 219 484 219 484 184 473 c 1,11,12
 173 340 173 340 173 195.5 c 128,-1,13
 173 51 173 51 184 0 c 1,14,15
 128 -3 128 -3 82 -15 c 1,16,-1
 76 -10 l 1,17,18
 90 49 90 49 100.5 190 c 128,-1,19
 111 331 111 331 111 448.5 c 128,-1,20
 111 566 111 566 103 620 c 1,21,22
 45 625 45 625 7 639 c 1,23,-1
 8 651 l 1,24,25
 128 651 128 651 202 664 c 1,26,-1
 208 659 l 1,27,28
 196 606 196 606 188 518 c 1,29,30
 232 521 232 521 272 521 c 0,0,1
EndSplineSet
EndChar

StartChar: germandbls
Encoding: 223 223 160
Width: 417
GlyphClass: 2
Flags: W
LayerCount: 2
Fore
SplineSet
421 176 m 0,0,1
 421 118 421 118 379.5 64.5 c 128,-1,2
 338 11 338 11 281 -15 c 1,3,4
 237 5 237 5 217 5 c 128,-1,5
 197 5 197 5 191 2 c 1,6,-1
 183 15 l 1,7,8
 221 45 221 45 240 85 c 1,9,10
 286 52 286 52 327 45 c 1,11,12
 344 57 344 57 354.5 80 c 128,-1,13
 365 103 365 103 365 124 c 128,-1,14
 365 145 365 145 337.5 181 c 128,-1,15
 310 217 310 217 277.5 251.5 c 128,-1,16
 245 286 245 286 217.5 326 c 128,-1,17
 190 366 190 366 190 393 c 2,18,-1
 190 402 l 1,19,20
 308 473 308 473 308 566 c 0,21,22
 308 649 308 649 221 649 c 0,23,24
 194 649 194 649 182 643 c 1,25,26
 150 578 150 578 150 482 c 2,27,-1
 150 255 l 2,28,29
 150 35 150 35 158 0 c 1,30,31
 91 -78 91 -78 83 -202 c 1,32,-1
 65 -200 l 1,33,34
 63 -187 63 -187 63 -161.5 c 128,-1,35
 63 -136 63 -136 70 -51.5 c 128,-1,36
 77 33 77 33 78 79 c 2,37,-1
 82 235 l 2,38,39
 83 269 83 269 83 319.5 c 128,-1,40
 83 370 83 370 77 428 c 1,41,42
 47 431 47 431 44 431 c 1,43,-1
 42 447 l 1,44,45
 55 455 55 455 78 464 c 1,46,47
 78 545 78 545 121 613 c 128,-1,48
 164 681 164 681 237 711 c 1,49,50
 299 711 299 711 340.5 686.5 c 128,-1,51
 382 662 382 662 382 610 c 0,52,53
 382 573 382 573 363.5 538 c 128,-1,54
 345 503 345 503 323.5 482 c 128,-1,55
 302 461 302 461 283.5 443 c 128,-1,56
 265 425 265 425 265 420 c 0,57,58
 265 385 265 385 343 306 c 0,59,60
 372 276 372 276 396.5 239.5 c 128,-1,61
 421 203 421 203 421 176 c 0,0,1
EndSplineSet
EndChar

StartChar: agrave
Encoding: 224 224 161
Width: 486
GlyphClass: 2
Flags: W
LayerCount: 2
Fore
SplineSet
124 695 m 1,0,1
 132 697 132 697 142 697 c 128,-1,2
 152 697 152 697 162 696 c 1,3,4
 199 629 199 629 301 560 c 1,5,-1
 291 543 l 1,6,-1
 101 642 l 1,7,8
 102 651 102 651 109.5 669.5 c 128,-1,9
 117 688 117 688 124 695 c 1,0,1
48 143 m 0,10,11
 48 251 48 251 95.5 349 c 128,-1,12
 143 447 143 447 230 485 c 1,13,14
 280 485 280 485 334 450 c 1,15,16
 350 489 350 489 370 517 c 1,17,-1
 384 513 l 1,18,19
 352 428 352 428 352 234 c 0,20,21
 352 117 352 117 360 70 c 1,22,23
 390 96 390 96 419 148.5 c 128,-1,24
 448 201 448 201 463 247 c 1,25,-1
 477 244 l 1,26,27
 458 167 458 167 421 95 c 128,-1,28
 384 23 384 23 333 -15 c 1,29,30
 303 -4 303 -4 293 31.5 c 128,-1,31
 283 67 283 67 283 167 c 1,32,33
 288 208 288 208 297 241 c 1,34,-1
 287 242 l 1,35,36
 269 164 269 164 228.5 91.5 c 128,-1,37
 188 19 188 19 132 -15 c 1,38,39
 90 -8 90 -8 69 40 c 128,-1,40
 48 88 48 88 48 143 c 0,10,11
119 174 m 0,41,42
 119 141 119 141 127.5 107.5 c 128,-1,43
 136 74 136 74 156 67 c 1,44,45
 205 102 205 102 248 211 c 128,-1,46
 291 320 291 320 291 388 c 1,47,48
 256 423 256 423 205 423 c 0,49,50
 178 423 178 423 164 409 c 1,51,52
 119 315 119 315 119 174 c 0,41,42
EndSplineSet
EndChar

StartChar: aacute
Encoding: 225 225 162
Width: 486
GlyphClass: 2
Flags: W
LayerCount: 2
Fore
SplineSet
48 143 m 0,0,1
 48 251 48 251 95.5 349 c 128,-1,2
 143 447 143 447 230 485 c 1,3,4
 280 485 280 485 334 450 c 1,5,6
 350 489 350 489 370 517 c 1,7,-1
 384 513 l 1,8,9
 352 428 352 428 352 234 c 0,10,11
 352 117 352 117 360 70 c 1,12,13
 390 96 390 96 419 148.5 c 128,-1,14
 448 201 448 201 463 247 c 1,15,-1
 477 244 l 1,16,17
 458 167 458 167 421 95 c 128,-1,18
 384 23 384 23 333 -15 c 1,19,20
 303 -4 303 -4 293 31.5 c 128,-1,21
 283 67 283 67 283 167 c 1,22,23
 288 208 288 208 297 241 c 1,24,-1
 287 242 l 1,25,26
 269 164 269 164 228.5 91.5 c 128,-1,27
 188 19 188 19 132 -15 c 1,28,29
 90 -8 90 -8 69 40 c 128,-1,30
 48 88 48 88 48 143 c 0,0,1
119 174 m 0,31,32
 119 141 119 141 127.5 107.5 c 128,-1,33
 136 74 136 74 156 67 c 1,34,35
 205 102 205 102 248 211 c 128,-1,36
 291 320 291 320 291 388 c 1,37,38
 256 423 256 423 205 423 c 0,39,40
 178 423 178 423 164 409 c 1,41,42
 119 315 119 315 119 174 c 0,31,32
342 696 m 1,43,44
 352 697 352 697 362 697 c 128,-1,45
 372 697 372 697 380 695 c 1,46,47
 387 688 387 688 394.5 669.5 c 128,-1,48
 402 651 402 651 403 642 c 1,49,-1
 213 543 l 1,50,-1
 203 560 l 1,51,52
 305 629 305 629 342 696 c 1,43,44
EndSplineSet
EndChar

StartChar: acircumflex
Encoding: 226 226 163
Width: 486
GlyphClass: 2
Flags: W
LayerCount: 2
Fore
SplineSet
48 143 m 0,0,1
 48 251 48 251 95.5 349 c 128,-1,2
 143 447 143 447 230 485 c 1,3,4
 280 485 280 485 334 450 c 1,5,6
 350 489 350 489 370 517 c 1,7,-1
 384 513 l 1,8,9
 352 428 352 428 352 234 c 0,10,11
 352 117 352 117 360 70 c 1,12,13
 390 96 390 96 419 148.5 c 128,-1,14
 448 201 448 201 463 247 c 1,15,-1
 477 244 l 1,16,17
 458 167 458 167 421 95 c 128,-1,18
 384 23 384 23 333 -15 c 1,19,20
 303 -4 303 -4 293 31.5 c 128,-1,21
 283 67 283 67 283 167 c 1,22,23
 288 208 288 208 297 241 c 1,24,-1
 287 242 l 1,25,26
 269 164 269 164 228.5 91.5 c 128,-1,27
 188 19 188 19 132 -15 c 1,28,29
 90 -8 90 -8 69 40 c 128,-1,30
 48 88 48 88 48 143 c 0,0,1
119 174 m 0,31,32
 119 141 119 141 127.5 107.5 c 128,-1,33
 136 74 136 74 156 67 c 1,34,35
 205 102 205 102 248 211 c 128,-1,36
 291 320 291 320 291 388 c 1,37,38
 256 423 256 423 205 423 c 0,39,40
 178 423 178 423 164 409 c 1,41,42
 119 315 119 315 119 174 c 0,31,32
256 617 m 1,43,-1
 147 538 l 1,44,-1
 136 554 l 1,45,46
 223 627 223 627 264 705 c 1,47,-1
 286 705 l 1,48,49
 305 652 305 652 325.5 618.5 c 128,-1,50
 346 585 346 585 382 552 c 1,51,-1
 367 540 l 1,52,-1
 256 617 l 1,43,-1
EndSplineSet
EndChar

StartChar: atilde
Encoding: 227 227 164
Width: 486
GlyphClass: 2
Flags: W
LayerCount: 2
Fore
SplineSet
216 667 m 1,0,1
 267 634 267 634 311 634 c 128,-1,2
 355 634 355 634 378 658 c 1,3,-1
 394 646 l 1,4,5
 356 593 356 593 298 569 c 1,6,7
 280 569 280 569 234 585.5 c 128,-1,8
 188 602 188 602 170 602 c 0,9,10
 136 602 136 602 114 578 c 1,11,-1
 97 590 l 1,12,13
 135 642 135 642 216 667 c 1,0,1
48 143 m 0,14,15
 48 251 48 251 95.5 349 c 128,-1,16
 143 447 143 447 230 485 c 1,17,18
 280 485 280 485 334 450 c 1,19,20
 350 489 350 489 370 517 c 1,21,-1
 384 513 l 1,22,23
 352 428 352 428 352 234 c 0,24,25
 352 117 352 117 360 70 c 1,26,27
 390 96 390 96 419 148.5 c 128,-1,28
 448 201 448 201 463 247 c 1,29,-1
 477 244 l 1,30,31
 458 167 458 167 421 95 c 128,-1,32
 384 23 384 23 333 -15 c 1,33,34
 303 -4 303 -4 293 31.5 c 128,-1,35
 283 67 283 67 283 167 c 1,36,37
 288 208 288 208 297 241 c 1,38,-1
 287 242 l 1,39,40
 269 164 269 164 228.5 91.5 c 128,-1,41
 188 19 188 19 132 -15 c 1,42,43
 90 -8 90 -8 69 40 c 128,-1,44
 48 88 48 88 48 143 c 0,14,15
119 174 m 0,45,46
 119 141 119 141 127.5 107.5 c 128,-1,47
 136 74 136 74 156 67 c 1,48,49
 205 102 205 102 248 211 c 128,-1,50
 291 320 291 320 291 388 c 1,51,52
 256 423 256 423 205 423 c 0,53,54
 178 423 178 423 164 409 c 1,55,56
 119 315 119 315 119 174 c 0,45,46
EndSplineSet
EndChar

StartChar: adieresis
Encoding: 228 228 165
Width: 486
GlyphClass: 2
Flags: W
LayerCount: 2
Fore
SplineSet
48 143 m 0,0,1
 48 251 48 251 95.5 349 c 128,-1,2
 143 447 143 447 230 485 c 1,3,4
 280 485 280 485 334 450 c 1,5,6
 350 489 350 489 370 517 c 1,7,-1
 384 513 l 1,8,9
 352 428 352 428 352 234 c 0,10,11
 352 117 352 117 360 70 c 1,12,13
 390 96 390 96 419 148.5 c 128,-1,14
 448 201 448 201 463 247 c 1,15,-1
 477 244 l 1,16,17
 458 167 458 167 421 95 c 128,-1,18
 384 23 384 23 333 -15 c 1,19,20
 303 -4 303 -4 293 31.5 c 128,-1,21
 283 67 283 67 283 167 c 1,22,23
 288 208 288 208 297 241 c 1,24,-1
 287 242 l 1,25,26
 269 164 269 164 228.5 91.5 c 128,-1,27
 188 19 188 19 132 -15 c 1,28,29
 90 -8 90 -8 69 40 c 128,-1,30
 48 88 48 88 48 143 c 0,0,1
119 174 m 0,31,32
 119 141 119 141 127.5 107.5 c 128,-1,33
 136 74 136 74 156 67 c 1,34,35
 205 102 205 102 248 211 c 128,-1,36
 291 320 291 320 291 388 c 1,37,38
 256 423 256 423 205 423 c 0,39,40
 178 423 178 423 164 409 c 1,41,42
 119 315 119 315 119 174 c 0,31,32
382 620 m 1,43,44
 373 605 373 605 354.5 583 c 128,-1,45
 336 561 336 561 322 552 c 1,46,47
 298 569 298 569 274 620 c 1,48,49
 281 633 281 633 300 650 c 128,-1,50
 319 667 319 667 333 675 c 1,51,52
 358 659 358 659 382 620 c 1,43,44
217 620 m 1,53,54
 208 605 208 605 189.5 583 c 128,-1,55
 171 561 171 561 157 552 c 1,56,57
 133 569 133 569 109 620 c 1,58,59
 116 633 116 633 135 650 c 128,-1,60
 154 667 154 667 168 675 c 1,61,62
 193 659 193 659 217 620 c 1,53,54
EndSplineSet
EndChar

StartChar: aring
Encoding: 229 229 166
Width: 486
GlyphClass: 2
Flags: W
LayerCount: 2
Fore
SplineSet
48 143 m 0,0,1
 48 251 48 251 95.5 349 c 128,-1,2
 143 447 143 447 230 485 c 1,3,4
 280 485 280 485 334 450 c 1,5,6
 350 489 350 489 370 517 c 1,7,-1
 384 513 l 1,8,9
 352 428 352 428 352 234 c 0,10,11
 352 117 352 117 360 70 c 1,12,13
 390 96 390 96 419 148.5 c 128,-1,14
 448 201 448 201 463 247 c 1,15,-1
 477 244 l 1,16,17
 458 167 458 167 421 95 c 128,-1,18
 384 23 384 23 333 -15 c 1,19,20
 303 -4 303 -4 293 31.5 c 128,-1,21
 283 67 283 67 283 167 c 1,22,23
 288 208 288 208 297 241 c 1,24,-1
 287 242 l 1,25,26
 269 164 269 164 228.5 91.5 c 128,-1,27
 188 19 188 19 132 -15 c 1,28,29
 90 -8 90 -8 69 40 c 128,-1,30
 48 88 48 88 48 143 c 0,0,1
119 174 m 0,31,32
 119 141 119 141 127.5 107.5 c 128,-1,33
 136 74 136 74 156 67 c 1,34,35
 205 102 205 102 248 211 c 128,-1,36
 291 320 291 320 291 388 c 1,37,38
 256 423 256 423 205 423 c 0,39,40
 178 423 178 423 164 409 c 1,41,42
 119 315 119 315 119 174 c 0,31,32
281 657.5 m 128,-1,44
 267 671 267 671 246 671 c 128,-1,45
 225 671 225 671 213 662 c 1,46,47
 196 642 196 642 196 609 c 0,48,49
 196 560 196 560 247 560 c 0,50,51
 268 560 268 560 278 569 c 1,52,53
 295 589 295 589 295 616.5 c 128,-1,43
 295 644 295 644 281 657.5 c 128,-1,44
171.5 541.5 m 128,-1,55
 146 558 146 558 146 594.5 c 128,-1,56
 146 631 146 631 179.5 661.5 c 128,-1,57
 213 692 213 692 262 706 c 1,58,59
 345 706 345 706 345 645 c 0,60,61
 345 601 345 601 313.5 570 c 128,-1,62
 282 539 282 539 235 525 c 1,63,54
 197 525 197 525 171.5 541.5 c 128,-1,55
EndSplineSet
EndChar

StartChar: ae
Encoding: 230 230 167
Width: 564
GlyphClass: 2
Flags: W
LayerCount: 2
Fore
SplineSet
48 117 m 128,-1,1
 48 228 48 228 111.5 333.5 c 128,-1,2
 175 439 175 439 272 469 c 1,3,4
 311 465 311 465 352 436 c 1,5,6
 381 465 381 465 417 483 c 1,7,-1
 423 481 l 1,8,9
 452 402 452 402 502 322 c 1,10,-1
 570 337 l 1,11,-1
 574 324 l 1,12,13
 434 268 434 268 324 172 c 1,14,15
 336 87 336 87 394 61 c 1,16,17
 469 115 469 115 506 214 c 1,18,-1
 529 205 l 1,19,20
 507 139 507 139 465 79 c 128,-1,21
 423 19 423 19 369 -15 c 1,22,23
 276 7 276 7 256 112 c 1,24,25
 234 78 234 78 191.5 39 c 128,-1,26
 149 0 149 0 114 -15 c 1,27,0
 48 6 48 6 48 117 c 128,-1,1
250 177 m 0,28,29
 250 289 250 289 307 380 c 1,30,31
 270 412 270 412 231 412 c 0,32,33
 211 412 211 412 197 402 c 1,34,35
 163 347 163 347 142.5 275 c 128,-1,36
 122 203 122 203 122 139.5 c 128,-1,37
 122 76 122 76 148 64 c 1,38,39
 211 93 211 93 251 148 c 1,40,41
 250 157 250 157 250 177 c 0,28,29
376 418 m 1,42,43
 348 387 348 387 334 334.5 c 128,-1,44
 320 282 320 282 320 257 c 128,-1,45
 320 232 320 232 320 226 c 2,46,-1
 321 204 l 1,47,48
 373 252 373 252 431 289 c 1,49,50
 398 355 398 355 376 418 c 1,42,43
EndSplineSet
EndChar

StartChar: ccedilla
Encoding: 231 231 168
Width: 362
GlyphClass: 2
Flags: W
LayerCount: 2
Fore
SplineSet
47 157 m 0,0,1
 47 258 47 258 88 347 c 128,-1,2
 129 436 129 436 208 485 c 1,3,4
 257 467 257 467 293 467 c 128,-1,5
 329 467 329 467 342 471 c 1,6,-1
 348 456 l 1,7,8
 307 422 307 422 307 313 c 1,9,-1
 293 313 l 1,10,11
 282 353 282 353 279 390 c 1,12,-1
 252 401 l 2,13,14
 205 420 205 420 169 425 c 1,15,16
 118 328 118 328 118 209 c 128,-1,17
 118 90 118 90 190 61 c 1,18,19
 265 115 265 115 302 214 c 1,20,-1
 325 205 l 1,21,22
 303 139 303 139 261 79 c 128,-1,23
 219 19 219 19 165 -15 c 1,24,25
 108 -4 108 -4 77.5 44.5 c 128,-1,26
 47 93 47 93 47 157 c 0,0,1
257 -119 m 0,27,28
 257 -126 257 -126 256 -133 c 1,29,30
 216 -195 216 -195 155 -215 c 1,31,32
 111 -215 111 -215 71 -194 c 1,33,34
 85 -170 85 -170 91 -155 c 1,35,-1
 95 -153 l 1,36,37
 124 -178 124 -178 160 -178 c 0,38,39
 178 -178 178 -178 186 -173 c 1,40,41
 199 -158 199 -158 199 -135 c 128,-1,42
 199 -112 199 -112 178.5 -104.5 c 128,-1,43
 158 -97 158 -97 122 -97 c 1,44,-1
 116 -93 l 1,45,-1
 177 14 l 1,46,-1
 206 16 l 1,47,-1
 172 -46 l 1,48,-1
 175 -49 l 1,49,50
 216 -49 216 -49 236.5 -69.5 c 128,-1,51
 257 -90 257 -90 257 -119 c 0,27,28
EndSplineSet
EndChar

StartChar: egrave
Encoding: 232 232 169
Width: 373
GlyphClass: 2
Flags: W
LayerCount: 2
Fore
SplineSet
383 275 m 1,0,1
 260 275 260 275 118 236 c 1,2,3
 118 95 118 95 191 61 c 1,4,5
 266 115 266 115 303 214 c 1,6,-1
 326 205 l 1,7,8
 304 139 304 139 262 79 c 128,-1,9
 220 19 220 19 166 -15 c 1,10,11
 47 13 47 13 47 177 c 0,12,13
 47 297 47 297 110.5 385.5 c 128,-1,14
 174 474 174 474 283 480 c 1,15,-1
 294 473 l 1,16,17
 298 394 298 394 314 299 c 1,18,-1
 383 289 l 1,19,-1
 383 275 l 1,0,1
118 257 m 1,20,21
 173 278 173 278 237 291 c 1,22,23
 231 361 231 361 231 441 c 1,24,25
 179 427 179 427 148.5 372.5 c 128,-1,26
 118 318 118 318 118 257 c 1,20,21
81 695 m 1,27,28
 89 697 89 697 99 697 c 128,-1,29
 109 697 109 697 119 696 c 1,30,31
 156 629 156 629 258 560 c 1,32,-1
 248 543 l 1,33,-1
 58 642 l 1,34,35
 59 651 59 651 66.5 669.5 c 128,-1,36
 74 688 74 688 81 695 c 1,27,28
EndSplineSet
EndChar

StartChar: eacute
Encoding: 233 233 170
Width: 373
GlyphClass: 2
Flags: W
LayerCount: 2
Fore
SplineSet
383 275 m 1,0,1
 260 275 260 275 118 236 c 1,2,3
 118 95 118 95 191 61 c 1,4,5
 266 115 266 115 303 214 c 1,6,-1
 326 205 l 1,7,8
 304 139 304 139 262 79 c 128,-1,9
 220 19 220 19 166 -15 c 1,10,11
 47 13 47 13 47 177 c 0,12,13
 47 297 47 297 110.5 385.5 c 128,-1,14
 174 474 174 474 283 480 c 1,15,-1
 294 473 l 1,16,17
 298 394 298 394 314 299 c 1,18,-1
 383 289 l 1,19,-1
 383 275 l 1,0,1
118 257 m 1,20,21
 173 278 173 278 237 291 c 1,22,23
 231 361 231 361 231 441 c 1,24,25
 179 427 179 427 148.5 372.5 c 128,-1,26
 118 318 118 318 118 257 c 1,20,21
315 696 m 1,27,28
 325 697 325 697 335 697 c 128,-1,29
 345 697 345 697 353 695 c 1,30,31
 360 688 360 688 367.5 669.5 c 128,-1,32
 375 651 375 651 376 642 c 1,33,-1
 186 543 l 1,34,-1
 176 560 l 1,35,36
 278 629 278 629 315 696 c 1,27,28
EndSplineSet
EndChar

StartChar: ecircumflex
Encoding: 234 234 171
Width: 373
GlyphClass: 2
Flags: W
LayerCount: 2
Fore
SplineSet
383 275 m 1,0,1
 260 275 260 275 118 236 c 1,2,3
 118 95 118 95 191 61 c 1,4,5
 266 115 266 115 303 214 c 1,6,-1
 326 205 l 1,7,8
 304 139 304 139 262 79 c 128,-1,9
 220 19 220 19 166 -15 c 1,10,11
 47 13 47 13 47 177 c 0,12,13
 47 297 47 297 110.5 385.5 c 128,-1,14
 174 474 174 474 283 480 c 1,15,-1
 294 473 l 1,16,17
 298 394 298 394 314 299 c 1,18,-1
 383 289 l 1,19,-1
 383 275 l 1,0,1
118 257 m 1,20,21
 173 278 173 278 237 291 c 1,22,23
 231 361 231 361 231 441 c 1,24,25
 179 427 179 427 148.5 372.5 c 128,-1,26
 118 318 118 318 118 257 c 1,20,21
208 617 m 1,27,-1
 99 538 l 1,28,-1
 88 554 l 1,29,30
 175 627 175 627 216 705 c 1,31,-1
 238 705 l 1,32,33
 257 652 257 652 277.5 618.5 c 128,-1,34
 298 585 298 585 334 552 c 1,35,-1
 319 540 l 1,36,-1
 208 617 l 1,27,-1
EndSplineSet
EndChar

StartChar: edieresis
Encoding: 235 235 172
Width: 373
GlyphClass: 2
Flags: W
LayerCount: 2
Fore
SplineSet
383 275 m 1,0,1
 260 275 260 275 118 236 c 1,2,3
 118 95 118 95 191 61 c 1,4,5
 266 115 266 115 303 214 c 1,6,-1
 326 205 l 1,7,8
 304 139 304 139 262 79 c 128,-1,9
 220 19 220 19 166 -15 c 1,10,11
 47 13 47 13 47 177 c 0,12,13
 47 297 47 297 110.5 385.5 c 128,-1,14
 174 474 174 474 283 480 c 1,15,-1
 294 473 l 1,16,17
 298 394 298 394 314 299 c 1,18,-1
 383 289 l 1,19,-1
 383 275 l 1,0,1
118 257 m 1,20,21
 173 278 173 278 237 291 c 1,22,23
 231 361 231 361 231 441 c 1,24,25
 179 427 179 427 148.5 372.5 c 128,-1,26
 118 318 118 318 118 257 c 1,20,21
348 620 m 1,27,28
 339 605 339 605 320.5 583 c 128,-1,29
 302 561 302 561 288 552 c 1,30,31
 264 569 264 569 240 620 c 1,32,33
 247 633 247 633 266 650 c 128,-1,34
 285 667 285 667 299 675 c 1,35,36
 324 659 324 659 348 620 c 1,27,28
183 620 m 1,37,38
 174 605 174 605 155.5 583 c 128,-1,39
 137 561 137 561 123 552 c 1,40,41
 99 569 99 569 75 620 c 1,42,43
 82 633 82 633 101 650 c 128,-1,44
 120 667 120 667 134 675 c 1,45,46
 159 659 159 659 183 620 c 1,37,38
EndSplineSet
EndChar

StartChar: igrave
Encoding: 236 236 173
Width: 299
GlyphClass: 2
Flags: W
LayerCount: 2
Fore
SplineSet
202 472 m 1,0,1
 168 382 168 382 168 86 c 2,2,-1
 168 70 l 1,3,4
 198 96 198 96 227 148.5 c 128,-1,5
 256 201 256 201 271 247 c 1,6,-1
 285 244 l 1,7,8
 266 166 266 166 230 94.5 c 128,-1,9
 194 23 194 23 143 -15 c 1,10,11
 95 1 95 1 95 76 c 0,12,13
 95 118 95 118 100 220 c 128,-1,14
 105 322 105 322 105 368 c 128,-1,15
 105 414 105 414 103 442 c 1,16,17
 65 445 65 445 25 456 c 1,18,-1
 25 470 l 1,19,20
 121 470 121 470 195 485 c 1,21,-1
 202 472 l 1,0,1
43 695 m 1,22,23
 51 697 51 697 61 697 c 128,-1,24
 71 697 71 697 81 696 c 1,25,26
 118 629 118 629 220 560 c 1,27,-1
 210 543 l 1,28,-1
 20 642 l 1,29,30
 21 651 21 651 28.5 669.5 c 128,-1,31
 36 688 36 688 43 695 c 1,22,23
EndSplineSet
EndChar

StartChar: iacute
Encoding: 237 237 174
Width: 299
GlyphClass: 2
Flags: W
LayerCount: 2
Fore
SplineSet
202 472 m 1,0,1
 168 382 168 382 168 86 c 2,2,-1
 168 70 l 1,3,4
 198 96 198 96 227 148.5 c 128,-1,5
 256 201 256 201 271 247 c 1,6,-1
 285 244 l 1,7,8
 266 166 266 166 230 94.5 c 128,-1,9
 194 23 194 23 143 -15 c 1,10,11
 95 1 95 1 95 76 c 0,12,13
 95 118 95 118 100 220 c 128,-1,14
 105 322 105 322 105 368 c 128,-1,15
 105 414 105 414 103 442 c 1,16,17
 65 445 65 445 25 456 c 1,18,-1
 25 470 l 1,19,20
 121 470 121 470 195 485 c 1,21,-1
 202 472 l 1,0,1
223 696 m 1,22,23
 233 697 233 697 243 697 c 128,-1,24
 253 697 253 697 261 695 c 1,25,26
 268 688 268 688 275.5 669.5 c 128,-1,27
 283 651 283 651 284 642 c 1,28,-1
 94 543 l 1,29,-1
 84 560 l 1,30,31
 186 629 186 629 223 696 c 1,22,23
EndSplineSet
EndChar

StartChar: icircumflex
Encoding: 238 238 175
Width: 299
GlyphClass: 2
Flags: W
LayerCount: 2
Fore
SplineSet
202 472 m 1,0,1
 168 382 168 382 168 86 c 2,2,-1
 168 70 l 1,3,4
 198 96 198 96 227 148.5 c 128,-1,5
 256 201 256 201 271 247 c 1,6,-1
 285 244 l 1,7,8
 266 166 266 166 230 94.5 c 128,-1,9
 194 23 194 23 143 -15 c 1,10,11
 95 1 95 1 95 76 c 0,12,13
 95 118 95 118 100 220 c 128,-1,14
 105 322 105 322 105 368 c 128,-1,15
 105 414 105 414 103 442 c 1,16,17
 65 445 65 445 25 456 c 1,18,-1
 25 470 l 1,19,20
 121 470 121 470 195 485 c 1,21,-1
 202 472 l 1,0,1
140 617 m 1,22,-1
 31 538 l 1,23,-1
 20 554 l 1,24,25
 107 627 107 627 148 705 c 1,26,-1
 170 705 l 1,27,28
 189 652 189 652 209.5 618.5 c 128,-1,29
 230 585 230 585 266 552 c 1,30,-1
 251 540 l 1,31,-1
 140 617 l 1,22,-1
EndSplineSet
EndChar

StartChar: idieresis
Encoding: 239 239 176
Width: 299
GlyphClass: 2
Flags: W
LayerCount: 2
Fore
SplineSet
202 472 m 1,0,1
 168 382 168 382 168 86 c 2,2,-1
 168 70 l 1,3,4
 198 96 198 96 227 148.5 c 128,-1,5
 256 201 256 201 271 247 c 1,6,-1
 285 244 l 1,7,8
 266 166 266 166 230 94.5 c 128,-1,9
 194 23 194 23 143 -15 c 1,10,11
 95 1 95 1 95 76 c 0,12,13
 95 118 95 118 100 220 c 128,-1,14
 105 322 105 322 105 368 c 128,-1,15
 105 414 105 414 103 442 c 1,16,17
 65 445 65 445 25 456 c 1,18,-1
 25 470 l 1,19,20
 121 470 121 470 195 485 c 1,21,-1
 202 472 l 1,0,1
280 620 m 1,22,23
 271 605 271 605 252.5 583 c 128,-1,24
 234 561 234 561 220 552 c 1,25,26
 196 569 196 569 172 620 c 1,27,28
 179 633 179 633 198 650 c 128,-1,29
 217 667 217 667 231 675 c 1,30,31
 256 659 256 659 280 620 c 1,22,23
115 620 m 1,32,33
 106 605 106 605 87.5 583 c 128,-1,34
 69 561 69 561 55 552 c 1,35,36
 31 569 31 569 7 620 c 1,37,38
 14 633 14 633 33 650 c 128,-1,39
 52 667 52 667 66 675 c 1,40,41
 91 659 91 659 115 620 c 1,32,33
EndSplineSet
EndChar

StartChar: eth
Encoding: 240 240 177
Width: 407
GlyphClass: 2
Flags: W
LayerCount: 2
Fore
SplineSet
360 269 m 0,0,1
 360 178 360 178 314 97 c 128,-1,2
 268 16 268 16 185 -15 c 1,3,4
 116 -15 116 -15 81.5 31 c 128,-1,5
 47 77 47 77 47 155.5 c 128,-1,6
 47 234 47 234 92.5 311 c 128,-1,7
 138 388 138 388 221 419 c 1,8,9
 262 406 262 406 280 366 c 1,10,-1
 284 366 l 1,11,12
 271 454 271 454 219 540 c 1,13,-1
 205 530 l 1,14,15
 140 485 140 485 110 455 c 1,16,-1
 105 456 l 1,17,-1
 95 486 l 1,18,-1
 204 562 l 1,19,20
 151 643 151 643 73 696 c 1,21,-1
 83 711 l 1,22,23
 174 666 174 666 241 589 c 1,24,-1
 277 615 l 2,25,26
 322 648 322 648 345 669 c 1,27,28
 353 660 353 660 368 649 c 1,29,-1
 369 645 l 1,30,-1
 258 568 l 1,31,32
 360 436 360 436 360 269 c 0,0,1
261.5 339.5 m 128,-1,34
 241 368 241 368 211 368 c 128,-1,35
 181 368 181 368 161 358 c 1,36,37
 118 278 118 278 118 163 c 0,38,39
 118 115 118 115 136.5 80 c 128,-1,40
 155 45 155 45 197 45 c 0,41,42
 223 45 223 45 243 55 c 1,43,44
 264 94 264 94 276 156 c 128,-1,45
 288 218 288 218 288 269 c 1,46,33
 282 311 282 311 261.5 339.5 c 128,-1,34
EndSplineSet
EndChar

StartChar: ntilde
Encoding: 241 241 178
Width: 502
GlyphClass: 2
Flags: W
LayerCount: 2
Fore
SplineSet
402 347 m 0,0,1
 402 296 402 296 389.5 209 c 128,-1,2
 377 122 377 122 377 68 c 1,3,4
 407 94 407 94 436.5 147.5 c 128,-1,5
 466 201 466 201 481 247 c 1,6,-1
 495 244 l 1,7,8
 476 166 476 166 440 94.5 c 128,-1,9
 404 23 404 23 353 -15 c 1,10,11
 305 2 305 2 305 76 c 0,12,13
 305 107 305 107 318 197.5 c 128,-1,14
 331 288 331 288 331 319 c 0,15,16
 331 393 331 393 294 406 c 1,17,18
 245 371 245 371 202 260.5 c 128,-1,19
 159 150 159 150 159 81 c 0,20,21
 159 42 159 42 167 0 c 1,22,23
 138 -2 138 -2 84 -15 c 1,24,-1
 78 -10 l 1,25,26
 98 59 98 59 98 214.5 c 128,-1,27
 98 370 98 370 92 442 c 1,28,29
 54 445 54 445 14 456 c 1,30,-1
 14 470 l 1,31,32
 103 470 103 470 177 485 c 1,33,-1
 184 472 l 1,34,35
 167 428 167 428 167 303 c 1,36,37
 162 262 162 262 153 229 c 1,38,-1
 163 228 l 1,39,40
 181 305 181 305 222 378 c 128,-1,41
 263 451 263 451 320 485 c 1,42,43
 402 470 402 470 402 347 c 0,0,1
244 667 m 1,44,45
 295 634 295 634 339 634 c 128,-1,46
 383 634 383 634 406 658 c 1,47,-1
 422 646 l 1,48,49
 384 593 384 593 326 569 c 1,50,51
 308 569 308 569 262 585.5 c 128,-1,52
 216 602 216 602 198 602 c 0,53,54
 164 602 164 602 142 578 c 1,55,-1
 125 590 l 1,56,57
 163 642 163 642 244 667 c 1,44,45
EndSplineSet
EndChar

StartChar: ograve
Encoding: 242 242 179
Width: 407
GlyphClass: 2
Flags: W
LayerCount: 2
Fore
SplineSet
243 57 m 1,0,1
 288 155 288 155 288 290 c 128,-1,2
 288 425 288 425 207 425 c 0,3,4
 180 425 180 425 161 413 c 1,5,6
 118 319 118 319 118 184 c 0,7,8
 118 128 118 128 136.5 86.5 c 128,-1,9
 155 45 155 45 197 45 c 0,10,11
 224 45 224 45 243 57 c 1,0,1
81.5 37.5 m 128,-1,13
 47 90 47 90 47 181 c 128,-1,14
 47 272 47 272 92.5 360.5 c 128,-1,15
 138 449 138 449 221 485 c 1,16,17
 360 485 360 485 360 300 c 0,18,19
 360 199 360 199 314 109 c 128,-1,20
 268 19 268 19 185 -15 c 1,21,12
 116 -15 116 -15 81.5 37.5 c 128,-1,13
89 695 m 1,22,23
 97 697 97 697 107 697 c 128,-1,24
 117 697 117 697 127 696 c 1,25,26
 164 629 164 629 266 560 c 1,27,-1
 256 543 l 1,28,-1
 66 642 l 1,29,30
 67 651 67 651 74.5 669.5 c 128,-1,31
 82 688 82 688 89 695 c 1,22,23
EndSplineSet
EndChar

StartChar: oacute
Encoding: 243 243 180
Width: 407
GlyphClass: 2
Flags: W
LayerCount: 2
Fore
SplineSet
243 57 m 1,0,1
 288 155 288 155 288 290 c 128,-1,2
 288 425 288 425 207 425 c 0,3,4
 180 425 180 425 161 413 c 1,5,6
 118 319 118 319 118 184 c 0,7,8
 118 128 118 128 136.5 86.5 c 128,-1,9
 155 45 155 45 197 45 c 0,10,11
 224 45 224 45 243 57 c 1,0,1
81.5 37.5 m 128,-1,13
 47 90 47 90 47 181 c 128,-1,14
 47 272 47 272 92.5 360.5 c 128,-1,15
 138 449 138 449 221 485 c 1,16,17
 360 485 360 485 360 300 c 0,18,19
 360 199 360 199 314 109 c 128,-1,20
 268 19 268 19 185 -15 c 1,21,12
 116 -15 116 -15 81.5 37.5 c 128,-1,13
324 696 m 1,22,23
 334 697 334 697 344 697 c 128,-1,24
 354 697 354 697 362 695 c 1,25,26
 369 688 369 688 376.5 669.5 c 128,-1,27
 384 651 384 651 385 642 c 1,28,-1
 195 543 l 1,29,-1
 185 560 l 1,30,31
 287 629 287 629 324 696 c 1,22,23
EndSplineSet
EndChar

StartChar: ocircumflex
Encoding: 244 244 181
Width: 407
GlyphClass: 2
Flags: W
LayerCount: 2
Fore
SplineSet
243 57 m 1,0,1
 288 155 288 155 288 290 c 128,-1,2
 288 425 288 425 207 425 c 0,3,4
 180 425 180 425 161 413 c 1,5,6
 118 319 118 319 118 184 c 0,7,8
 118 128 118 128 136.5 86.5 c 128,-1,9
 155 45 155 45 197 45 c 0,10,11
 224 45 224 45 243 57 c 1,0,1
81.5 37.5 m 128,-1,13
 47 90 47 90 47 181 c 128,-1,14
 47 272 47 272 92.5 360.5 c 128,-1,15
 138 449 138 449 221 485 c 1,16,17
 360 485 360 485 360 300 c 0,18,19
 360 199 360 199 314 109 c 128,-1,20
 268 19 268 19 185 -15 c 1,21,12
 116 -15 116 -15 81.5 37.5 c 128,-1,13
236 617 m 1,22,-1
 127 538 l 1,23,-1
 116 554 l 1,24,25
 203 627 203 627 244 705 c 1,26,-1
 266 705 l 1,27,28
 285 652 285 652 305.5 618.5 c 128,-1,29
 326 585 326 585 362 552 c 1,30,-1
 347 540 l 1,31,-1
 236 617 l 1,22,-1
EndSplineSet
EndChar

StartChar: otilde
Encoding: 245 245 182
Width: 407
GlyphClass: 2
Flags: W
LayerCount: 2
Fore
SplineSet
210 667 m 1,0,1
 261 634 261 634 305 634 c 128,-1,2
 349 634 349 634 372 658 c 1,3,-1
 388 646 l 1,4,5
 350 593 350 593 292 569 c 1,6,7
 274 569 274 569 228 585.5 c 128,-1,8
 182 602 182 602 164 602 c 0,9,10
 130 602 130 602 108 578 c 1,11,-1
 91 590 l 1,12,13
 129 642 129 642 210 667 c 1,0,1
243 57 m 1,14,15
 288 155 288 155 288 290 c 128,-1,16
 288 425 288 425 207 425 c 0,17,18
 180 425 180 425 161 413 c 1,19,20
 118 319 118 319 118 184 c 0,21,22
 118 128 118 128 136.5 86.5 c 128,-1,23
 155 45 155 45 197 45 c 0,24,25
 224 45 224 45 243 57 c 1,14,15
81.5 37.5 m 128,-1,27
 47 90 47 90 47 181 c 128,-1,28
 47 272 47 272 92.5 360.5 c 128,-1,29
 138 449 138 449 221 485 c 1,30,31
 360 485 360 485 360 300 c 0,32,33
 360 199 360 199 314 109 c 128,-1,34
 268 19 268 19 185 -15 c 1,35,26
 116 -15 116 -15 81.5 37.5 c 128,-1,27
EndSplineSet
EndChar

StartChar: odieresis
Encoding: 246 246 183
Width: 407
GlyphClass: 2
Flags: W
LayerCount: 2
Fore
SplineSet
243 57 m 1,0,1
 288 155 288 155 288 290 c 128,-1,2
 288 425 288 425 207 425 c 0,3,4
 180 425 180 425 161 413 c 1,5,6
 118 319 118 319 118 184 c 0,7,8
 118 128 118 128 136.5 86.5 c 128,-1,9
 155 45 155 45 197 45 c 0,10,11
 224 45 224 45 243 57 c 1,0,1
81.5 37.5 m 128,-1,13
 47 90 47 90 47 181 c 128,-1,14
 47 272 47 272 92.5 360.5 c 128,-1,15
 138 449 138 449 221 485 c 1,16,17
 360 485 360 485 360 300 c 0,18,19
 360 199 360 199 314 109 c 128,-1,20
 268 19 268 19 185 -15 c 1,21,12
 116 -15 116 -15 81.5 37.5 c 128,-1,13
376 620 m 1,22,23
 367 605 367 605 348.5 583 c 128,-1,24
 330 561 330 561 316 552 c 1,25,26
 292 569 292 569 268 620 c 1,27,28
 275 633 275 633 294 650 c 128,-1,29
 313 667 313 667 327 675 c 1,30,31
 352 659 352 659 376 620 c 1,22,23
211 620 m 1,32,33
 202 605 202 605 183.5 583 c 128,-1,34
 165 561 165 561 151 552 c 1,35,36
 127 569 127 569 103 620 c 1,37,38
 110 633 110 633 129 650 c 128,-1,39
 148 667 148 667 162 675 c 1,40,41
 187 659 187 659 211 620 c 1,32,33
EndSplineSet
EndChar

StartChar: divide
Encoding: 247 247 184
Width: 550
GlyphClass: 2
Flags: W
LayerCount: 2
Fore
SplineSet
318 385 m 128,-1,1
 318 368 318 368 304 353.5 c 128,-1,2
 290 339 290 339 274 339 c 128,-1,3
 258 339 258 339 243.5 353.5 c 128,-1,4
 229 368 229 368 229 385 c 128,-1,5
 229 402 229 402 243.5 416 c 128,-1,6
 258 430 258 430 274 430 c 128,-1,7
 290 430 290 430 304 416 c 128,-1,0
 318 402 318 402 318 385 c 128,-1,1
318 112 m 128,-1,9
 318 95 318 95 304 80.5 c 128,-1,10
 290 66 290 66 274 66 c 128,-1,11
 258 66 258 66 243.5 80.5 c 128,-1,12
 229 95 229 95 229 111.5 c 128,-1,13
 229 128 229 128 243.5 142.5 c 128,-1,14
 258 157 258 157 274 157 c 128,-1,15
 290 157 290 157 304 143 c 128,-1,8
 318 129 318 129 318 112 c 128,-1,9
62 280 m 1,16,17
 232 271 232 271 341.5 271 c 128,-1,18
 451 271 451 271 490 274 c 1,19,-1
 496 268 l 1,20,-1
 487 222 l 1,21,-1
 61 222 l 1,22,-1
 53 229 l 1,23,-1
 62 280 l 1,16,17
EndSplineSet
EndChar

StartChar: oslash
Encoding: 248 248 185
Width: 407
GlyphClass: 2
Flags: W
LayerCount: 2
Fore
SplineSet
337 552 m 1,0,1
 318 514 318 514 301 463 c 1,2,3
 360 423 360 423 360 300 c 0,4,5
 360 199 360 199 314 109 c 128,-1,6
 268 19 268 19 185 -15 c 1,7,8
 150 -15 150 -15 124 -1 c 1,9,-1
 96 -77 l 1,10,-1
 91 -77 l 1,11,12
 76 -69 76 -69 68 -54 c 1,13,-1
 99 16 l 1,14,15
 47 65 47 65 47 168.5 c 128,-1,16
 47 272 47 272 92.5 360.5 c 128,-1,17
 138 449 138 449 221 485 c 1,18,19
 250 485 250 485 277 475 c 1,20,21
 285 498 285 498 299 548 c 1,22,23
 318 550 318 550 333 555 c 1,24,-1
 337 552 l 1,0,1
288 286 m 0,25,26
 288 349 288 349 270 384 c 1,27,-1
 149 66 l 1,28,29
 168 45 168 45 196 45 c 128,-1,30
 224 45 224 45 243 57 c 1,31,32
 288 155 288 155 288 286 c 0,25,26
118 184 m 0,33,34
 118 129 118 129 132 96 c 1,35,-1
 253 407 l 1,36,37
 235 425 235 425 207.5 425 c 128,-1,38
 180 425 180 425 161 413 c 1,39,40
 118 319 118 319 118 184 c 0,33,34
EndSplineSet
EndChar

StartChar: ugrave
Encoding: 249 249 186
Width: 542
GlyphClass: 2
Flags: W
LayerCount: 2
Fore
SplineSet
174 312 m 128,-1,1
 159 211 159 211 159 144 c 128,-1,2
 159 77 159 77 196 64 c 1,3,4
 245 99 245 99 288 209.5 c 128,-1,5
 331 320 331 320 331 389 c 0,6,7
 331 428 331 428 323 470 c 1,8,9
 352 472 352 472 406 485 c 1,10,-1
 412 480 l 1,11,12
 392 411 392 411 392 264 c 128,-1,13
 392 117 392 117 400 70 c 1,14,15
 430 96 430 96 459 148.5 c 128,-1,16
 488 201 488 201 503 247 c 1,17,-1
 517 244 l 1,18,19
 498 167 498 167 461 95 c 128,-1,20
 424 23 424 23 373 -15 c 1,21,22
 343 -4 343 -4 333 31.5 c 128,-1,23
 323 67 323 67 323 167 c 1,24,25
 328 208 328 208 337 241 c 1,26,-1
 327 242 l 1,27,28
 309 165 309 165 268 92 c 128,-1,29
 227 19 227 19 170 -15 c 1,30,31
 88 0 88 0 88 123 c 0,32,33
 88 170 88 170 101.5 263 c 128,-1,34
 115 356 115 356 115 389 c 128,-1,35
 115 422 115 422 112 442 c 1,36,37
 74 445 74 445 34 456 c 1,38,-1
 34 470 l 1,39,40
 123 470 123 470 197 485 c 1,41,-1
 204 472 l 1,42,0
 189 413 189 413 174 312 c 128,-1,1
125 695 m 1,43,44
 133 697 133 697 143 697 c 128,-1,45
 153 697 153 697 163 696 c 1,46,47
 200 629 200 629 302 560 c 1,48,-1
 292 543 l 1,49,-1
 102 642 l 1,50,51
 103 651 103 651 110.5 669.5 c 128,-1,52
 118 688 118 688 125 695 c 1,43,44
EndSplineSet
EndChar

StartChar: uacute
Encoding: 250 250 187
Width: 524
GlyphClass: 2
Flags: W
LayerCount: 2
Fore
SplineSet
174 312 m 128,-1,1
 159 211 159 211 159 144 c 128,-1,2
 159 77 159 77 196 64 c 1,3,4
 245 99 245 99 288 209.5 c 128,-1,5
 331 320 331 320 331 389 c 0,6,7
 331 428 331 428 323 470 c 1,8,9
 352 472 352 472 406 485 c 1,10,-1
 412 480 l 1,11,12
 392 411 392 411 392 264 c 128,-1,13
 392 117 392 117 400 70 c 1,14,15
 430 96 430 96 459 148.5 c 128,-1,16
 488 201 488 201 503 247 c 1,17,-1
 517 244 l 1,18,19
 498 167 498 167 461 95 c 128,-1,20
 424 23 424 23 373 -15 c 1,21,22
 343 -4 343 -4 333 31.5 c 128,-1,23
 323 67 323 67 323 167 c 1,24,25
 328 208 328 208 337 241 c 1,26,-1
 327 242 l 1,27,28
 309 165 309 165 268 92 c 128,-1,29
 227 19 227 19 170 -15 c 1,30,31
 88 0 88 0 88 123 c 0,32,33
 88 170 88 170 101.5 263 c 128,-1,34
 115 356 115 356 115 389 c 128,-1,35
 115 422 115 422 112 442 c 1,36,37
 74 445 74 445 34 456 c 1,38,-1
 34 470 l 1,39,40
 123 470 123 470 197 485 c 1,41,-1
 204 472 l 1,42,0
 189 413 189 413 174 312 c 128,-1,1
376 696 m 1,43,44
 386 697 386 697 396 697 c 128,-1,45
 406 697 406 697 414 695 c 1,46,47
 421 688 421 688 428.5 669.5 c 128,-1,48
 436 651 436 651 437 642 c 1,49,-1
 247 543 l 1,50,-1
 237 560 l 1,51,52
 339 629 339 629 376 696 c 1,43,44
EndSplineSet
EndChar

StartChar: ucircumflex
Encoding: 251 251 188
Width: 524
GlyphClass: 2
Flags: W
LayerCount: 2
Fore
SplineSet
174 312 m 128,-1,1
 159 211 159 211 159 144 c 128,-1,2
 159 77 159 77 196 64 c 1,3,4
 245 99 245 99 288 209.5 c 128,-1,5
 331 320 331 320 331 389 c 0,6,7
 331 428 331 428 323 470 c 1,8,9
 352 472 352 472 406 485 c 1,10,-1
 412 480 l 1,11,12
 392 411 392 411 392 264 c 128,-1,13
 392 117 392 117 400 70 c 1,14,15
 430 96 430 96 459 148.5 c 128,-1,16
 488 201 488 201 503 247 c 1,17,-1
 517 244 l 1,18,19
 498 167 498 167 461 95 c 128,-1,20
 424 23 424 23 373 -15 c 1,21,22
 343 -4 343 -4 333 31.5 c 128,-1,23
 323 67 323 67 323 167 c 1,24,25
 328 208 328 208 337 241 c 1,26,-1
 327 242 l 1,27,28
 309 165 309 165 268 92 c 128,-1,29
 227 19 227 19 170 -15 c 1,30,31
 88 0 88 0 88 123 c 0,32,33
 88 170 88 170 101.5 263 c 128,-1,34
 115 356 115 356 115 389 c 128,-1,35
 115 422 115 422 112 442 c 1,36,37
 74 445 74 445 34 456 c 1,38,-1
 34 470 l 1,39,40
 123 470 123 470 197 485 c 1,41,-1
 204 472 l 1,42,0
 189 413 189 413 174 312 c 128,-1,1
263 617 m 1,43,-1
 154 538 l 1,44,-1
 143 554 l 1,45,46
 230 627 230 627 271 705 c 1,47,-1
 293 705 l 1,48,49
 312 652 312 652 332.5 618.5 c 128,-1,50
 353 585 353 585 389 552 c 1,51,-1
 374 540 l 1,52,-1
 263 617 l 1,43,-1
EndSplineSet
EndChar

StartChar: udieresis
Encoding: 252 252 189
Width: 524
GlyphClass: 2
Flags: W
LayerCount: 2
Fore
SplineSet
174 312 m 128,-1,1
 159 211 159 211 159 144 c 128,-1,2
 159 77 159 77 196 64 c 1,3,4
 245 99 245 99 288 209.5 c 128,-1,5
 331 320 331 320 331 389 c 0,6,7
 331 428 331 428 323 470 c 1,8,9
 352 472 352 472 406 485 c 1,10,-1
 412 480 l 1,11,12
 392 411 392 411 392 264 c 128,-1,13
 392 117 392 117 400 70 c 1,14,15
 430 96 430 96 459 148.5 c 128,-1,16
 488 201 488 201 503 247 c 1,17,-1
 517 244 l 1,18,19
 498 167 498 167 461 95 c 128,-1,20
 424 23 424 23 373 -15 c 1,21,22
 343 -4 343 -4 333 31.5 c 128,-1,23
 323 67 323 67 323 167 c 1,24,25
 328 208 328 208 337 241 c 1,26,-1
 327 242 l 1,27,28
 309 165 309 165 268 92 c 128,-1,29
 227 19 227 19 170 -15 c 1,30,31
 88 0 88 0 88 123 c 0,32,33
 88 170 88 170 101.5 263 c 128,-1,34
 115 356 115 356 115 389 c 128,-1,35
 115 422 115 422 112 442 c 1,36,37
 74 445 74 445 34 456 c 1,38,-1
 34 470 l 1,39,40
 123 470 123 470 197 485 c 1,41,-1
 204 472 l 1,42,0
 189 413 189 413 174 312 c 128,-1,1
402 620 m 1,43,44
 393 605 393 605 374.5 583 c 128,-1,45
 356 561 356 561 342 552 c 1,46,47
 318 569 318 569 294 620 c 1,48,49
 301 633 301 633 320 650 c 128,-1,50
 339 667 339 667 353 675 c 1,51,52
 378 659 378 659 402 620 c 1,43,44
237 620 m 1,53,54
 228 605 228 605 209.5 583 c 128,-1,55
 191 561 191 561 177 552 c 1,56,57
 153 569 153 569 129 620 c 1,58,59
 136 633 136 633 155 650 c 128,-1,60
 174 667 174 667 188 675 c 1,61,62
 213 659 213 659 237 620 c 1,53,54
EndSplineSet
EndChar

StartChar: yacute
Encoding: 253 253 190
Width: 471
GlyphClass: 2
Flags: W
LayerCount: 2
Fore
SplineSet
81 123 m 0,0,1
 81 170 81 170 94.5 263 c 128,-1,2
 108 356 108 356 108 389 c 128,-1,3
 108 422 108 422 105 442 c 1,4,5
 67 445 67 445 27 456 c 1,6,-1
 27 470 l 1,7,8
 116 470 116 470 190 485 c 1,9,-1
 197 472 l 1,10,11
 182 413 182 413 167 312 c 128,-1,12
 152 211 152 211 152 144 c 128,-1,13
 152 77 152 77 189 64 c 1,14,15
 238 99 238 99 281 209.5 c 128,-1,16
 324 320 324 320 324 389 c 0,17,18
 324 428 324 428 316 470 c 1,19,20
 345 472 345 472 399 485 c 1,21,-1
 405 480 l 1,22,23
 385 398 385 398 385 257 c 128,-1,24
 385 116 385 116 394.5 42.5 c 128,-1,25
 404 -31 404 -31 435 -115 c 1,26,27
 403 -150 403 -150 370 -215 c 1,28,-1
 339 -200 l 2,29,30
 206 -136 206 -136 104 -136 c 0,31,32
 36 -136 36 -136 -15 -195 c 1,33,-1
 -26 -186 l 1,34,35
 20 -115 20 -115 163 -15 c 1,36,37
 81 0 81 0 81 123 c 0,0,1
241.5 -99.5 m 128,-1,39
 333 -125 333 -125 361 -125 c 128,-1,40
 389 -125 389 -125 399 -117 c 1,41,42
 362 -63 362 -63 339 4.5 c 128,-1,43
 316 72 316 72 316 133 c 2,44,-1
 316 167 l 1,45,46
 321 208 321 208 330 241 c 1,47,-1
 320 242 l 1,48,49
 272 46 272 46 117 -74 c 1,50,38
 150 -74 150 -74 241.5 -99.5 c 128,-1,39
368 696 m 1,51,52
 378 697 378 697 388 697 c 128,-1,53
 398 697 398 697 406 695 c 1,54,55
 413 688 413 688 420.5 669.5 c 128,-1,56
 428 651 428 651 429 642 c 1,57,-1
 239 543 l 1,58,-1
 229 560 l 1,59,60
 331 629 331 629 368 696 c 1,51,52
EndSplineSet
EndChar

StartChar: thorn
Encoding: 254 254 191
Width: 453
GlyphClass: 2
Flags: W
LayerCount: 2
Fore
SplineSet
104 79 m 1,0,-1
 112 442 l 1,1,2
 112 590 112 590 108 628 c 1,3,4
 70 631 70 631 30 642 c 1,5,-1
 30 656 l 1,6,7
 137 656 137 656 227 703 c 1,8,-1
 235 690 l 1,9,10
 203 661 203 661 193.5 619.5 c 128,-1,11
 184 578 184 578 180 462 c 2,12,-1
 175 303 l 1,13,14
 170 262 170 262 161 229 c 1,15,-1
 171 228 l 1,16,17
 189 305 189 305 230 378 c 128,-1,18
 271 451 271 451 328 485 c 1,19,20
 410 470 410 470 410 347 c 0,21,22
 410 238 410 238 365 138.5 c 128,-1,23
 320 39 320 39 236 -15 c 1,24,-1
 213 -7 l 2,25,26
 178 5 178 5 161 7 c 1,27,-1
 161 -15 l 2,28,29
 161 -93 161 -93 168 -143 c 2,30,-1
 172 -170 l 1,31,32
 115 -186 115 -186 72 -215 c 1,33,-1
 62 -202 l 1,34,35
 98 -169 98 -169 100 -98 c 2,36,-1
 103 18 l 1,37,38
 79 18 79 18 60 6 c 1,39,-1
 51 17 l 1,40,41
 68 41 68 41 104 79 c 1,0,-1
161 79 m 1,42,43
 226 52 226 52 253 52 c 128,-1,44
 280 52 280 52 285 56 c 1,45,46
 312 105 312 105 325.5 177.5 c 128,-1,47
 339 250 339 250 339 321.5 c 128,-1,48
 339 393 339 393 302 406 c 1,49,50
 254 370 254 370 214 271.5 c 128,-1,51
 174 173 174 173 161 93 c 1,52,-1
 161 79 l 1,42,43
EndSplineSet
EndChar

StartChar: ydieresis
Encoding: 255 255 192
Width: 471
GlyphClass: 2
Flags: W
LayerCount: 2
Fore
SplineSet
81 123 m 0,0,1
 81 170 81 170 94.5 263 c 128,-1,2
 108 356 108 356 108 389 c 128,-1,3
 108 422 108 422 105 442 c 1,4,5
 67 445 67 445 27 456 c 1,6,-1
 27 470 l 1,7,8
 116 470 116 470 190 485 c 1,9,-1
 197 472 l 1,10,11
 182 413 182 413 167 312 c 128,-1,12
 152 211 152 211 152 144 c 128,-1,13
 152 77 152 77 189 64 c 1,14,15
 238 99 238 99 281 209.5 c 128,-1,16
 324 320 324 320 324 389 c 0,17,18
 324 428 324 428 316 470 c 1,19,20
 345 472 345 472 399 485 c 1,21,-1
 405 480 l 1,22,23
 385 398 385 398 385 257 c 128,-1,24
 385 116 385 116 394.5 42.5 c 128,-1,25
 404 -31 404 -31 435 -115 c 1,26,27
 403 -150 403 -150 370 -215 c 1,28,-1
 339 -200 l 2,29,30
 206 -136 206 -136 104 -136 c 0,31,32
 36 -136 36 -136 -15 -195 c 1,33,-1
 -26 -186 l 1,34,35
 20 -115 20 -115 163 -15 c 1,36,37
 81 0 81 0 81 123 c 0,0,1
241.5 -99.5 m 128,-1,39
 333 -125 333 -125 361 -125 c 128,-1,40
 389 -125 389 -125 399 -117 c 1,41,42
 362 -63 362 -63 339 4.5 c 128,-1,43
 316 72 316 72 316 133 c 2,44,-1
 316 167 l 1,45,46
 321 208 321 208 330 241 c 1,47,-1
 320 242 l 1,48,49
 272 46 272 46 117 -74 c 1,50,38
 150 -74 150 -74 241.5 -99.5 c 128,-1,39
395 620 m 1,51,52
 386 605 386 605 367.5 583 c 128,-1,53
 349 561 349 561 335 552 c 1,54,55
 311 569 311 569 287 620 c 1,56,57
 294 633 294 633 313 650 c 128,-1,58
 332 667 332 667 346 675 c 1,59,60
 371 659 371 659 395 620 c 1,51,52
230 620 m 1,61,62
 221 605 221 605 202.5 583 c 128,-1,63
 184 561 184 561 170 552 c 1,64,65
 146 569 146 569 122 620 c 1,66,67
 129 633 129 633 148 650 c 128,-1,68
 167 667 167 667 181 675 c 1,69,70
 206 659 206 659 230 620 c 1,61,62
EndSplineSet
EndChar

StartChar: hbar
Encoding: 295 295 193
Width: 483
GlyphClass: 2
Flags: W
LayerCount: 2
Fore
SplineSet
62 -10 m 1,0,1
 82 59 82 59 82 265.5 c 128,-1,2
 82 472 82 472 78 549 c 1,3,4
 22 545 22 545 3 543 c 1,5,-1
 0 547 l 1,6,7
 19 566 19 566 28 579 c 1,8,-1
 76 580 l 1,9,10
 71 655 71 655 54 702 c 1,11,-1
 68 706 l 1,12,13
 86 679 86 679 105 640 c 1,14,15
 168 717 168 717 261 750 c 1,16,-1
 266 736 l 1,17,18
 180 699 180 699 157 584 c 1,19,-1
 230 587 l 2,20,21
 293 590 293 590 314 592 c 1,22,-1
 317 588 l 1,23,24
 307 573 307 573 302 556 c 1,25,-1
 152 552 l 1,26,27
 148 517 148 517 148 475 c 2,28,-1
 148 303 l 1,29,30
 143 262 143 262 134 229 c 1,31,-1
 144 228 l 1,32,33
 162 305 162 305 203 378 c 128,-1,34
 244 451 244 451 301 485 c 1,35,36
 383 470 383 470 383 347 c 0,37,38
 383 298 383 298 370.5 215.5 c 128,-1,39
 358 133 358 133 358 84 c 2,40,-1
 358 68 l 1,41,42
 388 94 388 94 417.5 147.5 c 128,-1,43
 447 201 447 201 462 247 c 1,44,-1
 476 244 l 1,45,46
 457 166 457 166 421 94.5 c 128,-1,47
 385 23 385 23 334 -15 c 1,48,49
 286 1 286 1 286 76 c 0,50,51
 286 107 286 107 299 197.5 c 128,-1,52
 312 288 312 288 312 319 c 0,53,54
 312 393 312 393 275 406 c 1,55,56
 226 371 226 371 183 260.5 c 128,-1,57
 140 150 140 150 140 81 c 0,58,59
 140 42 140 42 148 0 c 1,60,61
 123 -2 123 -2 68 -15 c 1,62,-1
 62 -10 l 1,0,1
EndSplineSet
EndChar

StartChar: Itilde
Encoding: 296 296 194
Width: 292
GlyphClass: 2
Flags: W
LayerCount: 2
Fore
SplineSet
182.5 447 m 128,-1,1
 173 307 173 307 173 179 c 128,-1,2
 173 51 173 51 184 0 c 1,3,4
 128 -3 128 -3 82 -15 c 1,5,-1
 76 -10 l 1,6,7
 90 49 90 49 100.5 190 c 128,-1,8
 111 331 111 331 111 448.5 c 128,-1,9
 111 566 111 566 103 620 c 1,10,11
 45 625 45 625 7 639 c 1,12,-1
 8 651 l 1,13,14
 128 651 128 651 202 664 c 1,15,-1
 208 659 l 1,16,0
 192 587 192 587 182.5 447 c 128,-1,1
115 845 m 1,17,18
 166 812 166 812 210 812 c 128,-1,19
 254 812 254 812 277 836 c 1,20,-1
 293 824 l 1,21,22
 255 771 255 771 197 747 c 1,23,24
 180 747 180 747 133 763.5 c 128,-1,25
 86 780 86 780 69 780 c 0,26,27
 36 780 36 780 13 756 c 1,28,-1
 -4 768 l 1,29,30
 34 820 34 820 115 845 c 1,17,18
EndSplineSet
EndChar

StartChar: itilde
Encoding: 297 297 195
Width: 287
GlyphClass: 2
Flags: W
LayerCount: 2
Fore
SplineSet
120 667 m 1,0,1
 171 634 171 634 212.5 634 c 128,-1,2
 254 634 254 634 277 658 c 1,3,-1
 293 646 l 1,4,5
 255 593 255 593 197 569 c 1,6,7
 180 569 180 569 138.5 585.5 c 128,-1,8
 97 602 97 602 71.5 602 c 128,-1,9
 46 602 46 602 23 578 c 1,10,-1
 6 590 l 1,11,12
 46 644 46 644 120 667 c 1,0,1
202 472 m 1,13,14
 168 382 168 382 168 86 c 2,15,-1
 168 70 l 1,16,17
 198 96 198 96 227 148.5 c 128,-1,18
 256 201 256 201 271 247 c 1,19,-1
 285 244 l 1,20,21
 266 166 266 166 230 94.5 c 128,-1,22
 194 23 194 23 143 -15 c 1,23,24
 95 1 95 1 95 76 c 0,25,26
 95 118 95 118 100 220 c 128,-1,27
 105 322 105 322 105 368 c 128,-1,28
 105 414 105 414 103 442 c 1,29,30
 65 445 65 445 25 456 c 1,31,-1
 25 470 l 1,32,33
 121 470 121 470 195 485 c 1,34,-1
 202 472 l 1,13,14
EndSplineSet
EndChar

StartChar: dotlessi
Encoding: 305 305 196
Width: 299
GlyphClass: 2
Flags: W
LayerCount: 2
Fore
SplineSet
202 472 m 1,0,1
 168 382 168 382 168 86 c 2,2,-1
 168 70 l 1,3,4
 198 96 198 96 227 148.5 c 128,-1,5
 256 201 256 201 271 247 c 1,6,-1
 285 244 l 1,7,8
 266 166 266 166 230 94.5 c 128,-1,9
 194 23 194 23 143 -15 c 1,10,11
 95 1 95 1 95 76 c 0,12,13
 95 118 95 118 100 220 c 128,-1,14
 105 322 105 322 105 368 c 128,-1,15
 105 414 105 414 103 442 c 1,16,17
 65 445 65 445 25 456 c 1,18,-1
 25 470 l 1,19,20
 121 470 121 470 195 485 c 1,21,-1
 202 472 l 1,0,1
EndSplineSet
EndChar

StartChar: IJ
Encoding: 306 306 197
Width: 584
GlyphClass: 2
Flags: W
LayerCount: 2
Fore
SplineSet
182.5 447 m 128,-1,1
 173 307 173 307 173 179 c 128,-1,2
 173 51 173 51 184 0 c 1,3,4
 128 -3 128 -3 82 -15 c 1,5,-1
 76 -10 l 1,6,7
 90 49 90 49 100.5 190 c 128,-1,8
 111 331 111 331 111 448.5 c 128,-1,9
 111 566 111 566 103 620 c 1,10,11
 45 625 45 625 7 639 c 1,12,-1
 8 651 l 1,13,14
 128 651 128 651 202 664 c 1,15,-1
 208 659 l 1,16,0
 192 587 192 587 182.5 447 c 128,-1,1
392 154 m 0,17,18
 403 361 403 361 403 463.5 c 128,-1,19
 403 566 403 566 395 620 c 1,20,21
 337 625 337 625 299 639 c 1,22,-1
 300 651 l 1,23,24
 420 651 420 651 494 664 c 1,25,-1
 500 659 l 1,26,27
 484 587 484 587 474.5 447 c 128,-1,28
 465 307 465 307 465 197.5 c 128,-1,29
 465 88 465 88 474 13 c 1,30,31
 449 -41 449 -41 390.5 -94.5 c 128,-1,32
 332 -148 332 -148 271 -180 c 1,33,-1
 260 -165 l 1,34,35
 333 -104 333 -104 359.5 -31.5 c 128,-1,36
 386 41 386 41 392 154 c 0,17,18
EndSplineSet
EndChar

StartChar: ij
Encoding: 307 307 198
Width: 542
GlyphClass: 2
Flags: W
LayerCount: 2
Fore
SplineSet
202 472 m 1,0,1
 168 382 168 382 168 86 c 2,2,-1
 168 70 l 1,3,4
 198 96 198 96 227 148.5 c 128,-1,5
 256 201 256 201 271 247 c 1,6,-1
 285 244 l 1,7,8
 266 166 266 166 230 94.5 c 128,-1,9
 194 23 194 23 143 -15 c 1,10,11
 95 1 95 1 95 76 c 0,12,13
 95 118 95 118 100 220 c 128,-1,14
 105 322 105 322 105 368 c 128,-1,15
 105 414 105 414 103 442 c 1,16,17
 65 445 65 445 25 456 c 1,18,-1
 25 470 l 1,19,20
 121 470 121 470 195 485 c 1,21,-1
 202 472 l 1,0,1
204 620 m 1,22,23
 195 605 195 605 176.5 583 c 128,-1,24
 158 561 158 561 144 552 c 1,25,26
 120 569 120 569 96 620 c 1,27,28
 103 633 103 633 122 650 c 128,-1,29
 141 667 141 667 155 675 c 1,30,31
 180 659 180 659 204 620 c 1,22,23
494 472 m 1,32,33
 465 376 465 376 465 136 c 0,34,35
 465 34 465 34 473 0 c 1,36,37
 406 -78 406 -78 398 -202 c 1,38,-1
 380 -200 l 1,39,40
 378 -187 378 -187 378 -161.5 c 128,-1,41
 378 -136 378 -136 384.5 -56 c 128,-1,42
 391 24 391 24 393 79 c 2,43,-1
 397 235 l 2,44,45
 398 262 398 262 398 310 c 128,-1,46
 398 358 398 358 395 442 c 1,47,48
 357 445 357 445 317 456 c 1,49,-1
 317 470 l 1,50,51
 413 470 413 470 487 485 c 1,52,-1
 494 472 l 1,32,33
497 620 m 1,53,54
 488 605 488 605 469.5 583 c 128,-1,55
 451 561 451 561 437 552 c 1,56,57
 413 569 413 569 389 620 c 1,58,59
 396 633 396 633 415 650 c 128,-1,60
 434 667 434 667 448 675 c 1,61,62
 473 659 473 659 497 620 c 1,53,54
EndSplineSet
EndChar

StartChar: Jcircumflex
Encoding: 308 308 199
Width: 292
GlyphClass: 2
Flags: W
LayerCount: 2
Fore
SplineSet
100 154 m 0,0,1
 111 361 111 361 111 463.5 c 128,-1,2
 111 566 111 566 103 620 c 1,3,4
 45 625 45 625 7 639 c 1,5,-1
 8 651 l 1,6,7
 128 651 128 651 202 664 c 1,8,-1
 208 659 l 1,9,10
 192 587 192 587 182.5 447 c 128,-1,11
 173 307 173 307 173 197.5 c 128,-1,12
 173 88 173 88 182 13 c 1,13,14
 157 -41 157 -41 98.5 -94.5 c 128,-1,15
 40 -148 40 -148 -21 -180 c 1,16,-1
 -32 -165 l 1,17,18
 41 -104 41 -104 67.5 -31.5 c 128,-1,19
 94 41 94 41 100 154 c 0,0,1
127 797 m 1,20,-1
 4 718 l 1,21,-1
 -7 734 l 1,22,23
 89 806 89 806 135 885 c 1,24,-1
 157 885 l 1,25,26
 190 796 190 796 267 732 c 1,27,-1
 252 720 l 1,28,-1
 127 797 l 1,20,-1
EndSplineSet
EndChar

StartChar: jcircumflex
Encoding: 309 309 200
Width: 243
GlyphClass: 2
Flags: W
LayerCount: 2
Fore
SplineSet
195 472 m 1,0,1
 166 376 166 376 166 136 c 0,2,3
 166 34 166 34 174 0 c 1,4,5
 107 -78 107 -78 99 -202 c 1,6,-1
 81 -200 l 1,7,8
 79 -187 79 -187 79 -161.5 c 128,-1,9
 79 -136 79 -136 85.5 -56 c 128,-1,10
 92 24 92 24 94 79 c 2,11,-1
 98 235 l 2,12,13
 99 262 99 262 99 310 c 128,-1,14
 99 358 99 358 96 442 c 1,15,16
 58 445 58 445 18 456 c 1,17,-1
 18 470 l 1,18,19
 114 470 114 470 188 485 c 1,20,-1
 195 472 l 1,0,1
130 617 m 1,21,-1
 21 538 l 1,22,-1
 10 554 l 1,23,24
 97 627 97 627 138 705 c 1,25,-1
 160 705 l 1,26,27
 179 652 179 652 199.5 618.5 c 128,-1,28
 220 585 220 585 256 552 c 1,29,-1
 241 540 l 1,30,-1
 130 617 l 1,21,-1
EndSplineSet
EndChar

StartChar: kcommaaccent
Encoding: 311 311 201
Width: 468
GlyphClass: 2
Flags: W
LayerCount: 2
Fore
SplineSet
150 489 m 2,0,-1
 150 303 l 1,1,2
 145 262 145 262 136 229 c 1,3,-1
 146 228 l 1,4,5
 164 305 164 305 205 378 c 128,-1,6
 246 451 246 451 303 485 c 1,7,8
 346 477 346 477 369 437.5 c 128,-1,9
 392 398 392 398 392 347 c 0,10,11
 392 262 392 262 289 215 c 1,12,13
 310 140 310 140 347 83 c 2,14,-1
 358 66 l 1,15,16
 388 93 388 93 418.5 147 c 128,-1,17
 449 201 449 201 464 247 c 1,18,-1
 478 244 l 1,19,20
 459 166 459 166 423 94.5 c 128,-1,21
 387 23 387 23 336 -15 c 1,22,23
 289 3 289 3 261 76.5 c 128,-1,24
 233 150 233 150 226 211 c 1,25,-1
 226 218 l 1,26,27
 273 229 273 229 297 252.5 c 128,-1,28
 321 276 321 276 321 312 c 0,29,30
 321 387 321 387 277 403 c 1,31,32
 227 368 227 368 184.5 259.5 c 128,-1,33
 142 151 142 151 142 81 c 0,34,35
 142 42 142 42 150 0 c 1,36,37
 125 -2 125 -2 70 -15 c 1,38,-1
 64 -10 l 1,39,40
 84 59 84 59 84 442 c 0,41,42
 84 561 84 561 77 628 c 1,43,44
 39 631 39 631 -1 642 c 1,45,-1
 -1 656 l 1,46,47
 100 656 100 656 190 703 c 1,48,-1
 198 690 l 1,49,50
 175 669 175 669 164 634.5 c 128,-1,51
 153 600 153 600 151.5 572 c 128,-1,52
 150 544 150 544 150 489 c 2,0,-1
231 -31 m 1,53,54
 258 -51 258 -51 275 -84 c 1,55,56
 263 -162 263 -162 164 -215 c 1,57,-1
 154 -202 l 1,58,59
 201 -167 201 -167 207 -130 c 1,60,61
 187 -111 187 -111 172 -84 c 1,62,63
 178 -72 178 -72 197.5 -55 c 128,-1,64
 217 -38 217 -38 231 -31 c 1,53,54
EndSplineSet
EndChar

StartChar: kgreenlandic
Encoding: 312 312 202
Width: 506
GlyphClass: 2
Flags: W
LayerCount: 2
Fore
SplineSet
182 74 m 0,0,1
 182 42 182 42 190 0 c 1,2,3
 161 -2 161 -2 107 -15 c 1,4,-1
 101 -10 l 1,5,6
 117 45 117 45 117 207.5 c 128,-1,7
 117 370 117 370 111 442 c 1,8,9
 73 445 73 445 33 456 c 1,10,-1
 33 470 l 1,11,12
 122 470 122 470 196 485 c 1,13,-1
 203 472 l 1,14,15
 186 428 186 428 186 296 c 1,16,17
 184 267 184 267 174 222 c 1,18,-1
 184 221 l 1,19,20
 205 300 205 300 245 361 c 128,-1,21
 285 422 285 422 351 489 c 1,22,-1
 365 483 l 2,23,24
 419 460 419 460 453 460 c 1,25,-1
 458 445 l 1,26,27
 416 403 416 403 416 326 c 0,28,29
 416 318 416 318 416 309 c 1,30,-1
 402 308 l 1,31,32
 389 344 389 344 385 388 c 1,33,34
 367 399 367 399 345 403 c 1,35,36
 318 400 318 400 260 321 c 1,37,38
 302 181 302 181 365 83 c 2,39,-1
 376 66 l 1,40,41
 406 93 406 93 436.5 147 c 128,-1,42
 467 201 467 201 482 247 c 1,43,-1
 496 244 l 1,44,45
 477 166 477 166 441 94.5 c 128,-1,46
 405 23 405 23 354 -15 c 1,47,48
 309 2 309 2 273 82.5 c 128,-1,49
 237 163 237 163 218 242 c 1,50,51
 182 170 182 170 182 74 c 0,0,1
EndSplineSet
EndChar

StartChar: Ldotaccent
Encoding: 319 319 203
Width: 404
GlyphClass: 2
Flags: W
LayerCount: 2
Fore
SplineSet
182.5 447 m 128,-1,1
 173 307 173 307 173 205.5 c 128,-1,2
 173 104 173 104 178 47 c 1,3,4
 203 41 203 41 275 41 c 128,-1,5
 347 41 347 41 398 58 c 1,6,-1
 403 52 l 1,7,8
 392 22 392 22 388 -10 c 1,9,10
 318 0 318 0 234 0 c 128,-1,11
 150 0 150 0 82 -15 c 1,12,-1
 76 -10 l 1,13,14
 90 49 90 49 100.5 190 c 128,-1,15
 111 331 111 331 111 448.5 c 128,-1,16
 111 566 111 566 103 620 c 1,17,18
 45 625 45 625 7 639 c 1,19,-1
 8 651 l 1,20,21
 128 651 128 651 202 664 c 1,22,-1
 208 659 l 1,23,0
 192 587 192 587 182.5 447 c 128,-1,1
373 353 m 1,24,25
 364 338 364 338 345.5 316 c 128,-1,26
 327 294 327 294 313 285 c 1,27,28
 289 302 289 302 265 353 c 1,29,30
 272 366 272 366 291 383 c 128,-1,31
 310 400 310 400 324 408 c 1,32,33
 349 392 349 392 373 353 c 1,24,25
EndSplineSet
EndChar

StartChar: ldot
Encoding: 320 320 204
Width: 510
GlyphClass: 2
Flags: W
LayerCount: 2
Fore
SplineSet
78 76 m 1,0,-1
 89 442 l 1,1,2
 89 590 89 590 85 628 c 1,3,4
 47 631 47 631 7 642 c 1,5,-1
 7 656 l 1,6,7
 114 656 114 656 204 703 c 1,8,-1
 212 690 l 1,9,10
 180 661 180 661 170 620 c 0,11,12
 151 534 151 534 151 86 c 2,13,-1
 151 70 l 1,14,15
 181 96 181 96 210 148.5 c 128,-1,16
 239 201 239 201 254 247 c 1,17,-1
 268 244 l 1,18,19
 249 166 249 166 213 94.5 c 128,-1,20
 177 23 177 23 126 -15 c 1,21,22
 78 1 78 1 78 76 c 1,0,-1
332 382 m 1,23,24
 323 367 323 367 304.5 345 c 128,-1,25
 286 323 286 323 272 314 c 1,26,27
 248 331 248 331 224 382 c 1,28,29
 231 395 231 395 250 412 c 128,-1,30
 269 429 269 429 283 437 c 1,31,32
 308 421 308 421 332 382 c 1,23,24
EndSplineSet
EndChar

StartChar: Lslash
Encoding: 321 321 205
Width: 456
GlyphClass: 2
Flags: W
LayerCount: 2
Fore
SplineSet
176 341 m 1,0,1
 173 260 173 260 173 182 c 128,-1,2
 173 104 173 104 178 47 c 1,3,4
 203 41 203 41 275 41 c 128,-1,5
 347 41 347 41 398 58 c 1,6,-1
 403 52 l 1,7,8
 392 22 392 22 388 -10 c 1,9,10
 318 0 318 0 234 0 c 128,-1,11
 150 0 150 0 82 -15 c 1,12,-1
 76 -10 l 1,13,14
 99 89 99 89 107 306 c 1,15,16
 39 272 39 272 10 251 c 1,17,-1
 6 254 l 1,18,19
 12 275 12 275 13 293 c 1,20,-1
 108 341 l 1,21,22
 111 401 111 401 111 483.5 c 128,-1,23
 111 566 111 566 103 620 c 1,24,25
 45 625 45 625 7 639 c 1,26,-1
 8 651 l 1,27,28
 128 651 128 651 202 664 c 1,29,-1
 208 659 l 1,30,31
 187 561 187 561 178 377 c 1,32,-1
 238 408 l 2,33,34
 290 435 290 435 313 449 c 1,35,-1
 317 448 l 1,36,37
 317 429 317 429 322 414 c 1,38,-1
 176 341 l 1,0,1
EndSplineSet
EndChar

StartChar: lslash
Encoding: 322 322 206
Width: 282
GlyphClass: 2
Flags: W
LayerCount: 2
Fore
SplineSet
151 86 m 2,0,-1
 151 70 l 1,1,2
 181 96 181 96 210 148.5 c 128,-1,3
 239 201 239 201 254 247 c 1,4,-1
 268 244 l 1,5,6
 249 166 249 166 213 94.5 c 128,-1,7
 177 23 177 23 126 -15 c 1,8,9
 78 1 78 1 78 76 c 0,10,11
 78 100 78 100 86 311 c 1,12,13
 22 279 22 279 -4 259 c 1,14,-1
 -8 262 l 1,15,16
 -2 283 -2 283 -1 301 c 1,17,-1
 87 345 l 1,18,19
 89 411 89 411 89 500.5 c 128,-1,20
 89 590 89 590 85 628 c 1,21,22
 47 631 47 631 7 642 c 1,23,-1
 7 656 l 1,24,25
 114 656 114 656 204 703 c 1,26,-1
 212 690 l 1,27,28
 180 661 180 661 170.5 619.5 c 128,-1,29
 161 578 161 578 157 462 c 2,30,-1
 154 381 l 1,31,-1
 182 396 l 2,32,33
 234 423 234 423 257 437 c 1,34,-1
 261 436 l 1,35,36
 261 417 261 417 266 402 c 1,37,-1
 153 345 l 1,38,39
 151 258 151 258 151 86 c 2,0,-1
EndSplineSet
EndChar

